<mxfile host="65bd71144e">
    <diagram name="PÃ¡gina-1" id="DtKIO5XFwHDZ3K7n3A5H">
        <mxGraphModel dx="3240" dy="2295" grid="1" gridSize="10" guides="1" tooltips="1" connect="1" arrows="1" fold="1" page="1" pageScale="1" pageWidth="827" pageHeight="1169" math="0" shadow="0">
            <root>
                <mxCell id="0"/>
                <mxCell id="1" parent="0"/>
                <mxCell id="2" value="" style="shape=image;verticalLabelPosition=bottom;labelBackgroundColor=default;verticalAlign=top;aspect=fixed;imageAspect=0;image=data:image/png,iVBORw0KGgoAAAANSUhEUgAAAwEAAALxCAYAAAAE+qq4AAAAAXNSR0IArs4c6QAAAARnQU1BAACxjwv8YQUAAAAJcEhZcwAADsMAAA7DAcdvqGQAAJ2YSURBVHhe7N1/fM31///x2zlnZzZns9kvP7b5WYb8pqiQ0A/lR7U1PxKF5EfvKPTxnvc7VHwrvKP3O7xFRaI0iki9Q0pJJTHC/Bo2vzY/xnbsx7Gz7x/bjp2XKcqP2blfLxeX2vPxfL3O67wOZ6/7eT2fz2Oq3/jOfABMJkREREREpOwzGxtERERERKRsUwgQEREREfEwCgEiIiIiIh5GIUBERERExMMoBIiIiIiIeBiFABERERERD6MQICIiIiLiYc6HgPyCrwsQEREREZGyTXcCREREREQ8jEKAiIiIiIiHUQgQEREREfEwCgEiIiIiIh5GIUBERERExMMoBIiIiIiIeBiFABERERERD6MQICIiIiLiYRQCREREREQ8jEKAiIiIiIiHUQgQEREREfEwCgEiIiIiIh5GIUBERERExMMoBIiIiIiIeBiFABERERERD6MQICIiIiLiYRQCREREREQ8jEKAiIiIiIiHUQgQEREREfEwCgEiIiIiIh5GIUBERERExMMoBIiIiIiIeBiFABERERERD6MQICIiIiLiYRQCREREREQ8jEKAiIiIiIiHUQgQEREREfEwCgEiIiIiIh5GIUBERERExMMoBIiIiIiIeBiFABERERERD6MQICIiIiLiYRQCREREREQ8jEKAiIiIiIiHUQgQEREREfEwCgEiIiIiIh5GIUBERERExMMoBIiIiIiIeBiFABERERERD6MQICIiIiLiYRQCREREREQ8jEKAiIiIiIiHUQgQEREREfEwCgEiIiIiIh5GIUBERERExMMoBIiIiIiIeBiFABERERERD6MQICIiIiLiYdxDQH6+248iIiIiIlL2mOo3vtP9yt9kcvvxejKZTERGhBubRURERETkLyj1IaBt61vJyTpjLImIiIiIyJ90Q4SAlIN7yc3NNZZFRERERORP0MRgEREREREPoxAgIiIiIuJhFAJERERERDyMQoCIiIiIiIdRCBARERER8TBaHUhE5A889nhvoh99FC8vLwDy8/M5e/YsB/bv59NPPmXD+vXGTa6qRo0b8/zIEfiWL8/Mt6bz9Zo1xi5X1N3t2zNo6BCOp6UxdNBgY9njtLnrLgYOepqzdjv/mjyFxJ07jV1EREo93QkQEblMJpMJm81G/VtuYeQLo+j9eG9jFylm0JDBzJz9Nne1a2csiYjIdaIQICJyiRI2b6brAw/yZJ++zJr5X1KSk7FardzZpg1Vw/Xt5hfTsFEjKlasiNlcNn7lrPvmGx7v2YunBzyluwAicsMqG+/IIiLX0Injx1m+bBkfzP+AzMxMfH19CQkJMXaTq6znY734x9gX8fX1NZZEROQPaE6AiMgfKJoTsH3bNv4RN8bVfle7djw9ZDC5OTl88smnPPzwQwAsXbqMbt26UjEoiMOHDrFk8RIe6/0YAP+aPIWELVug2Nh+Y/uT/ftxd/v2BAQGAmC32/npxx/57/QZZGVlubaz+flx9MgRwiMisFgsF/QDGPzMUO7v1AlT4Xt7Xl4eaampfLrkEz5fsQIAX19fBj8zlJatWuHr60teXh6HDx8m/qNFfL1mTYlzAv427Flat23LyhUraHX77VSuUgWTycSpkyf5ZMknLP3kE9dxBgUHU1zywYOu/fj6+vL0kMHc1rIlNpsNgNPp6Xy9Zg3vznnHtU279u3p0bOH63EyMzOh8PfEnFlvs3rVKt6aOYOQ0FA+XPgh99zTkfCICE6fPs1bb/6bZi2a/+F5oPB4evV+jLZ33UVAYCAmkwm73c7Gn35i7ntzee7552jUpAn8wfPIz88n/dQpPlv2GYs//hiKvd5Hjx4lNTXVdb5zc3P5bds2Zs96m+SDB13HIiJyNelOgIjIZQoOCaHbww/zWJ/H8fPz49SpUyTt3QuAl9XKI488TFBwMCaTiRPHj3Ps6FHjLi5q+Ijn6fbwwwRWrIjJZMJkMuHn58fd7dszekycW99y5cpRvUYNvLy83PrF/WOM69Px7dt+w263u7axWCxUrlKFx/o8Tpu77gKgd5/HaXvXXa5tLBYLgYGB5Docru1K4uvry8PR0VQND8dsNmMymQgKDib60Riat2hh7H4BX19f4v4xhrvbt8fPz8/1fAMrVqTbww/zt+HDoHAi7lNPD3R7HH9/f/z8/Ni0cSOrV61y7dNkMvHggw8QERmJyWTizOnTJGzZcknnoeh4uj70EBWDglyP5efnR4vbbqNBgwau7Ysr6XmYzWaCgoPp+VgvHu/bx61/vfr1uatdO9f59vb2pknTpnTv0d2tn4jI1aQQICJyiRo1acKyz1fw7ry59H9qAJUrVybTbud/X3zp6lOhQgXOnTvHpNdeZ8Tw55j73ly3ffye++6/n9tateLokSPMfGs63aNj6B4dw6z/zuLUyZNE1a1Lh3vucfXPzc1lSXw8T/bpy/gXx7Lxp59wOp3UrV+f+zp1AuCbtWvpFdudrg88SNcHHiRu9N9JTk7Gz8+PW26pD4CPjw9ms5ltW7fyZJ++dH3gQR7r3oPv161zPdbFZGRkMP/9+XSPjuGd2XPItNvx8/Ojbr26JGzZwhOP9yH54EGysrJ4Y/IUuj7woOvT80dioqnfoAG7du1iyuuTXPMtFi1cSFZWFs2bN6dR48a0ur0V/v7+pCQnM/GVCTzZpy8b1q8nPz+fm+vUcZuP4ePjQ3k/P96ZPYehgwYz463pZGVlXdJ5eCQmmlsaNsThcPDFypUMHTSYoYMG8926dezetYtv1q7lH3Fj+GjhQs6dO+d6zLs7dKBO3bqu7Z7s05e40X9nW0ICVquVO+680+0Y8/Pz2ZqQQNzovzN00GC2JiQAULNWLVcfEZGrTSFARORPyMnJYfeuXbz15r9Z+fnnbu2fLPmEdd98w+5du9i9a5fbdr+n9s03YStfnqrh4QwaOoSPFsfz0eJ4Bj49kKDgYLy9valcuZKrf15eHgf2H+DE8eP8snEjL40bz84dOwrvEFR39Yt+9FFmv/sOny7/jImv/j8iCz8lt1qtAKz/fj0njh+nWvXq3HvffQRfxvyG/fv2uS7aP12yhOSDBzGZTJQrV87Y9QJ1oqKwWq1ERUUx4oVRroAV27MnNpsN3/LlCQ4OJqBCBQB2bN/OhvUFx/rD+h/IycmhXLlybvMx8vLyWLtqletYftu2zVX7o/NQJyoKi8XChvXrmf7v/5B88CDJBw/y+v97lbH/+KdrP0a1a9fC19eXhM2bmf7v/3Di+HG2JSTw4cIPOXXyJEHBwURFRbn65+TksPqrVWxLSCD54EHWf7+enJwcvLy8qBoejre3t9v+RUSuBoUAEZFLVLQ6UNcHHuTRhx9hxPDnLvi0/KzdzsEDB9zaLlXVwvHuf8XhQ4cACAoKgsLhRY/37UNYpUoXXZ3nl40beXXi/2N3YiKPxETz39lvM+r/XrisMFDEkZODxWJxje//PZc6mTolJYX8/HxuadiQVnfcQXBICC1ubUG5cuXIysri+PHjrr65ubkkJe13255LPA8hISHk5eVx5MgRY+l3VapUEMxOnTrl1p6wZYvbEKSLOWu3k5+f7wo03oWhRETkair5nVBERP6U/Px8nE6nsRkKx6H7+Pi4fi4ac17k2LFjAKz79ltX2Cj+55Gu3fjg/fmu/iWpWLEiAMfT0mjeogXNmjfH6XTy/bp1jBj+HF0feJCEzZuNm5G4cyfjx45j0FMD+XXTJu5s04bBQ4cYu/0lRV+2VuTUyZPk5eXx6ZIlFzzXrg88SPfoGL5es4YVy1ewPymJKlWqEPePMbw7b65rHP+WzZtdwadI8aE6wCWfh1MnT2KxWKgQEODW/keKXreic1+keYsW+FeogNPpvOjfCRGR60UhQETkKsvLyyM/Px//ChW4q91dBIeE0OqOO3iifz8Ci1047t27j6ysLFrceiuDhg4hslo1fH19ie3Zkzff+s8Fk20tFgvVa1QnOCSEyGrVGPK3Z2jUpAlZWVns3buPChUqUK5cOc6ePcvGjb9c0tCks3Y7J44fx+l0UqVKFWP5T/Px8aFp82Zudxd2795Nfn4+7Tt2pOdjjxEcEkJwSAiDhgxm0hv/co2jTz54kG/WfkNGRgYUBq2MjAyWL1vGzOkzXPu7mEs9DwcOHCA/P592d9/tOv9Fx/Pq5EkXXYr00KHD5ObmUu+WW+j52GP4+vrSoFEjHu3RnYCAANJPnWL37t3GzUREriuFABGRq+y3bds4lJKC2WymzV138e68ucT9Yww1a9Z06/f16tXs3LEDHx8fHnjwQd6aOYOPFsfT+/HeRERG0qCh++o03t7ePBITw7vz5vLWzBnc36kTVquVHdu38/ny5SQmJnLyxAkqVKjAsOeGs+zzFSz7fIVricvwyEh8fX15oHNnPlocz7LPV/DR4nge6NwZLy+vy1rV6PccO3oUk8lE6zZteHfeXBYv/ZQevXqxZvUakg8exN/fn56P9eLdeXN5d95cHujcmWrVqtGkaVMoXB3o4UceZtPGjXSPjqHbg515rHsPZs962/hQJbrU8/DFyi84eOBAwTkpPP/Fj+e2li2NuwZg5YoV7PjtN8qXL0/Px3rx0eJ4Jr76/6hfvz4Oh4P1339/wd0KEZHrTSFAROQaeH/e++zcscN1VyAzM5Nv1q7l1MmTrj5ZWVm8OmEiyz79lPRTp8jPzyc/P5+zZ8/y29atJCRsdfV1Op1s+fVXjh49itPpJD8/nzNnzrDis894beL/g8L5AR99+BGHDx92DVM6dfIky5ct4+jRo9x00008EhONj48P2VlZriErubm5bPn1Vz768CPX4/0VH334EYk7d7r2n5+fTwV/P5IPHuSlceP55uuvyczMdD3fjIwMNm3cyN49e6Dok3wfH9q1b+8KK8s+X8HHnyzh+VEjL/oJfZFLPQ/JBw8yfuw41n3zDWfPnnU7no0//cS2YpOMi8vKymLqG1P57ttvXd/P4HQ6ST12jIUfLOD9ufOMm4iIXHf6sjARESnVqoaHM+z556hbt+4FE6fPnTvH0k8+Ye6777m1i4jI79OdABERKfXMZjM//vAD418cS9cHHmT0yFEk7duHl5cXFQqXEBURkUunOwEiIlKqPdq9O9179ihx/fzMzEzenT2Hr/73P2NJRER+hyW0crVxbi2lLARUrxbOmdOnyMvLM5ZFRMQDbP/tN3JzHQQHB+Pn74/ZbMbhcHBg/37ee/c91n79tXETERH5A7oTICIiIiLiYTQnQERERETEwygEiIiIiIh4GIUAEREREREPozkBf9HwZ5/FbLEYm0VESpXk5GQ+jo83NpcZFStW5MknnjA2i4iUOmvXrmX37t1kZGYaS9eUQsBfNPzZZ5n19tuub8IUESltoqKiqFOnTpkPASOff56XX3nFWBIRKTV69ujBloQEhYA/ciOFgE2bNhlLIiKlQvfu3T0mBMTGxpKnD2VEpJR67dVXS00I0JwAEREREREPoxAgIiIiIuJhFAJERERERDyMQoCIiIiIiIdRCBARERER8TAKASIiIiIiHkYhQERERETEwygEiIiIiIh4GIUAEREREREPoxAgIiIiIuJhFAJERERERDyMQoCIiIiIiIdRCBARERER8TAKASIiIiIiHkYhQERERETEwygEiIiIiIh4GIUAEREREREPoxAgIiIiIuJhFAJERERERDyMQoCIiIiIiIdRCBARERER8TAKASIiIiIiHkYhwINFRkYyc8YMFsfHu/4s+OAD/vWvf3HvvfdiMV/7vx6jR49mcXw8ffv0MZauqYiICMbExTF//nwWx8fz8aJFzJo1i969e1+X83IlFL3eM2fMIDIy0lj+Uxo3bsz78+YxedIkY0lELkPfyeffhxfHx7N40ULmTZ/EqJhmBBo7XwtPTGJxfDzzRrcxVq4xG616jWXauwvPn5uFs5k2uietbMa+pU+b0XNZHD+XMW2NlT+n4O/JJPoaC5x/zSY/YSyIlOzGvJqRq6ZcuXJUr1aNpwYMYMSIETfsBe9f0bx5c8a++CLNmjXD18cHALPZTHBQEHe1bUvNWrWMm1wxvXr2ZOobb9CoUSNjSUQ8idmKLawmrXrEMfO1PkQZ6x4hil4TpzPqkYZE+FvPN1sDiWjRlfvvLt5XRC6X513hyQXS0tIY/txzRMfE8I9//IPvv/+e/Px8GjVqRMuWLY3dy7SAgAB69+5NUFAQhw8f5o2pU4mNjWXY8OH8vHEjaWlp7Nmzx7jZFdOsWTOCg4MxmUzGkoiUeUksi4khOiaGPsPGMH1pIulOsNbuQM/7jH3LvqhBw4iuYwNHKps+nMywvjFExwxgwoebSM1OIWm5cQsRuRwKAeJmx86d/OuNN9i9ezdeXl4EBQUZu5Rp9917L+Hh4aSmpvLG1Kl899135DmdpKSkMOn113nnnXeMm4iIXHH2Q4msfn8MU9enAjb8qhh7lHXR9L0rDEhn09ujmBC/gRQ7BT/HT2TkS7NZbdxERC6LqX7jO/PdW0rPJ5Amk4m2rW8l5eBecnNzjeVSYfizzzLr7bfZtGmTsVTqRUZGMiYuDoAJEyeSnJwMgMVs5uWXX6ZWrVrMnz+f4OBgunbtymeffUbFihVp2bIlJpOJjxYtok6dOjRp3Jj58+ezfMUK175Hjx59QXvjRo3o9dhj1KxRA4vFQm5uLomJicyeM4eUlBTXdre2aMGePXuoXLkyfn5+Jfa7p2NH+vXrh7e3NwB5Tifpp07xySefsPKLL1zHYTGbGTFiBLfeeivrvvuON99801UrydgXX6RBgwYsXbqU+R98YCxfwPicsrKz2ZqQwLvvvUdqaioUPqdaNWuyfMUKHnzgAYKCgsgHDh06xHvvvsuWhATXaxEaGuq2/6SkJEaOGuX2Wn20aBE9uncnODiYgwcP8vIrr+B0Ounfr1/BECZfX/Ly8khJSWHhwoX8vHEjXOT1Lnqto6LODzbIys4mcedO/jtrlus5FHnkkUfodP/9VKxYEWd+PocPHaJSpUocOnSIkaNGQeE5f+LJJ2nTujV+fn448/M5eeIEiz7+mDVr1oDhWEp6PqdOnXJ73CJhYWH07t2bJo0bU758eZz5+Rw7doxPPvnEte9LeU369unDPffcw+LFi2l7112Eh4djAk6ePMmCBQv45ttvDY98Y+vevTt16tTh4/h4Y6nMqFixIiOff57Y2FjynE5judTrOzmerjWSWBYzirnF2puNmM2Y2wNJWh7DyH1xzHu2GWycxoT99/PCI1EEmiFl1RiGZQ9gceeaBf3eK7aDJyZd2G5rxYC/96FtnTBsZsDpIP3QLyydMZllu9y3sydv5ZR/QyICL9KPZoyaFUer4p8XZaeTsn4xY6evJL1Yc9QTkxjfuSbsXEj/fyzGXqx2gc5j+fCJhrBrMf3jFv5+30s9hjpdGTM0mmbhhZMJ7KkkfbeQkW+vK+wQRdcRg+nWIoJAa8HztR/ZytK3p7F42+8fAZRwXu0pJGVUomblXDa92ZcJRW8rxn4lnteSXezvCZT0WkfRdfRgYppFFD6OndSkb1nwf3Moesa2lv0Z07ctUWGF5yQ7naRv5vLK2+vcXruS2Wj4yGAGPNCciMDC4Vr2VBK/W8jrru0v5Zz2YXJ8V6xfTmZ1cI/zx+tIJ2nVbMbO2fAHr/+N5bVXX2VLQgK7d+8mIzPTWL6mdCdA3NSrW5dRL7zATTffTFZWFvv27XPVGjZsyO133IHVaiUnJ4f9+/e7bft7WrVqxXPPPcdNtWtjsVgA8Pb2pmHDhsT9/e8XTFS96aab8PPzc+s3Ji6OWoXj8bckJHDi5ElXf4vZTHBwML1796Zjhw6u9qrh4dSqVQuz2UxUnTpUqVzZVTMKDQ0lJDSUnJwcduzcaSxfoKTn5Ovjw2233caIESMICAhw9Q0KCuLx3r0JCQnBbDZjMZupFhlJ37598ff3L7bX3+ft7U2vnj0JCQnBZDKRmpaG0+kkLi6OO++8E19fXwAsFgvVq1dn6NChtGrVyrgblzynk+3bt+MsdtHk6+NDkyZNePbZZ93mhPTv358ePXoQFBSEyWTCYjYTGRnpCmIUvg6jRo2i0/334+/v7+oXGhrKUwMG0KVLF1dfLvJ8LhYAatWqxfhx47jzjjuw2WyufVetUoWOHTpgMZsv6zXx9fWlV69eVIuMxGI2YzabCQkJ4bHHHnP9PRO5XmzhUXR4ahLDbw8EUkkp/jlTSFdeiCkIAGAndXtiseIfsHVgzLSRdKpbeAFKwfyDwMhW9B0/ib6GNQNskYUBwNivTlGPTaxONFwu+gQS0b4//294M7fmVg1qYgWsdVrRza1yoYY3VcIKHNu77BIuAC/lGBoyfHif8wEAwBaGzVa0XRR9J4+j7+2FF6sUzssIb0avMeOKPd+LKOm82iKoWbnYXIaL9fud8/9XNHx2GH1bFF5QA5hthPn7uS7ube3jeHNUp/MBgILzVvO+YUwZ3YHfn3dto8PoaYzr1ep8AKDgnEa1v58HbFz2OY24b6T78VoDqdlpMKM8cCjctaIQIISGhjL1jTdYHB/PK6+8wq0tWgDw3fffs33HDle/yGrVWLN6NX369uWf//wnWzZvLraXi/P39+fhhx/GZDLx4Ycf0q9/f6JjYhj1wgtsSUggNDSUDu3bu23z008/MWjwYPr178+HH37ImYwMQkNDefDBBwFITU3lmWeeIbpw/Gy//v359ddf8fHx4ZZbbnHtJzk5mT1795KXl8f27ds5cvRosUdx5+Pjg9XLi/z8fM6dO2csX+Cejh3x9/dn//79xI0ZQ2xsLP+dNYszZ85Qo3p17m7XztXXZDJx9OhRpkyZQmxsLAsWLiQ3N5fQ0FBq1apFcnIygwYPJikpibNnz/LSyy8THRPj+nS9SEBAAOfOnWPsuHEMGjyYOXPmcHe7dtSoXp3MzExmz5lDbGwscWPGsGfPHvz9/bmnY0e3fRjN/+ADHo2NdZ3Lt6ZPJzMzk/CqVV13CBo1akTr1q0hP59vvv2WQYMH07t3bz5duhSHw+HaV8uWLWnQoAEOh4NPly6ld+/eDBs+nE2bNuHl5cXd7dq5hZ6Sns/FxMbGEhYW5hqqVfQ8t2/fzk8//USe03lZrwnAmTNn+O+sWcTGxvLvf/+bjIwMKlSoQP169dz6iVwbNelauALOvGkTGHJfTWxA+sbFvJ1wvpetRk34dQ7D+sbQ///G8dZl3Lhq87c+NAtMJ3HpDEYOLPg3Hz1wFNPXpOCw1qTDY+6rATn2LmPSsL5Exwxg5MxlJJ4ErDXp1Cfa1WfTlAGu94/omL4Mm7MVOxBWpw0Ni+1r9ZYkHIB92zqWFmsvSaBPwSWoI++PIwCXdAyB2HwBRworx/V19R08dWvBDu7rQYcaVnCksHr6cPrExNBn2AxW7reDtSYdenRyf0CDZoN60iwQOLmVBZPOb7/u6Pn3R/7E+f8rAsvbAAcpX46nT9G5GTKNgmccQc9uBStPpW9byISBxeZbOCCwRRd6/l4gaTuMvi0CwZnO1qL5Gn2HM/3LJFK3fccC+585p3aSvpxRsK+BE1m53wHYqNX0yp0TcacQIG7y8vI4cuQI8+bNu+CCbMf27bz99tvY7XYOHDx4ybfca9asSeVKlfDz86NHjx68M2cOi+PjmfT66zRu1Aiz2UzlKu4DXo8ePUpaWhqnT5/m4/h4ln76KXl5edSoXt316fStLVrw2muvseijj3hnzhyaNm0KgG/58m77mjx5MrHdu/PW9Olu7UbZ2dk4LuHin8LhLOHh4ZzJyGDuvHkkJiaS53Tyv//9j2+++QaLxUJdw4Xkxo0bWf/DD65+x44dw2w242f7/c9bisvKzmbBwoVs27aNtLQ00tLSqFuvHmazma+++oqVK1eS53SSmJjIR4sWYbfbCQ8Pv+BOS3G+Pj48NWAA7737LvEff8zQIUPw8/PDy8sLa+Gn/M2aNsXfz49Nv/7Km2++SVpaGlnZ2SQkJLiFgJtvvhlfX19+/vln3n//fbKys0lJSWHe++9z4sQJV+gpUtLzKUmVKlWoXq0aWVlZvP/++665GomJifzzxRf5dOnSP/Wa7N6zh//973/kOZ2s/eYbkpKSMJvNlCtcFUrkenKkp7BpyWSefXW1+6fhR1fz+oSVpNghfW/SJQzbKNKKVjfZgECiug1m8qzCJTdnTWJI+wisgC2kptsWuaeS2HDIDqSTtGoecS+vJAWwhkfhuudqa0j0iKnMWRjP4vi5TOvfsOBTZF+b2/KmKe+PokdMDH1e+uNP99Oz/6iHwR8ewzriv0nCYa1E887306r4HQGgTdNa2HCQuHQM09ekYAfsh1Yze+xqkgBbzaZc/FK0DZ0aBIIjiWUvj2fxj+e3/yWl+FDmyz//f8W6JatJclip1LQL97eMMHyy35664cDJDbw1bjGbTuKab7Fgix2IoO75m+oXaNWyFjYg5atxjCuar2FPYfXboxg8YSX8mXOakcjSt1cX7OvkJmav3YkD8PapWLyXXEEKAeK2OlBs9+4887e/sXz5hcsuXM6Ff3HVIiMpV66csfmyJO3fT25uLuXLlyesUiW6dOnC888/7zbs469KS0vjzOnTlCtXjptuuslYdhMUFITNZiMnO/uC4SvHjx//wzsJGRkZnDt3DovFQsWKl/4GZ8/M5OCBA25tIcHB5OXlkZ7ufimQlpbG2bNn3dqMAgICGDd+PPcXG75TkspVqmAymThy+LCx5KZK1aoAnDhxwq09OTmZzBLGPpb0fEoSFhaGn58fmZmZJBfOCzH6q68JQE5uLhaL5bKCmciVc351oOiYGHoMGM6EBReOh7Yf2cVlDAAqpg6V/uqXDiTvIjUD8K9IBEXDW8bSq/iQjytga8opHEBEja7G0oUu8RgS3xvFoKmrOFWtK6OmzeXD/8QR3aDg33qtEBuQi/2w4WzbkziV4d50oZpU9AeyT7GvYGrdRVyB8w+AFeulvEXtmsfIodNYdTKCbiOmMm/+dMY8UhiO2kYQBnAmFeOMxnVH3eeClSSqUmDBULTEkt+P+cvnFDjjIBew+l2RkyYlUAiQS5Z3kYuokj45NRe7mExOScHhcJCcnMwTTz5Z7Jbt+T+vvvqq2/ZGYaGheHl5YbfbyczM5O527bB4efHzxo2MeuEFomNiWLZsmXGzy7Z7927MZjMdO3QocVx4/Xr1sJjNnDx5ErvdTjkfnwsu4sPDw/Hy8rro+fojJpMJLy8vYzMA+fn5OPPd5/IfP3ECi8VCYKD7G2VkRAR+fn4XDG8ymUyu16doKFF6ejqz58yhd+/eDH/uuQs+kc8qDBPBwcFu7UZFIcHYr1atWlSoUAGn00l+seMv6fmU5PfOd5Hf6/NXXxORUiXv4gtl2Hwi3H+2FL8qLrz4yt7K3BLeh6NjYogeOa9Y/xLYIrD5ABmn2AdE9OpCs0BwpG5yDYOJjllGknG7y7UyseCOQ4OujGlfwhVvnYY0LGy+nGNI/24OcUP60mfcQnbamtFrTBzRNth33A54Y6tqeKzIOoT5F5xz94E9xdnJdQA+NiJLONTzrsD5B6AStboYH8hG1xrurz0AJ9cx+x9D6PPkeBbssdGsVxxjYmzwbQqpABXCcJ+5AZ2qhRX8T56hUMxFz1cxF+1zSedUrgWFAPlL8go/zW55221EREQQEBDA4MGD3b7sat++faSlpVE1PJyhQ4e6Lq6joqJ4+aWXeKjbhVPEKleuTGhoKBazmdatW/PII49gtVrZvXs3gYGBlC9fntzcXDZt2uQ2ednIYjbzwqhRfLxoEc8++6yxfIHVa9Zw/PhxwsLCeG74cFq3bu2a2Dp0yBBGjx7NAw8+SHJyMidOnMDfz4+HHnqIiIgILGYznTp14o477iAvL4/du3cbd39JypUrx2233eb6orI/cqDwk/Q2bdpwx+23Q+G5jY6OxtfXl8OHD3PkyBFX/8DAQNq3b4/FbCYgIAAvLy8OHz7M+vXrycrOdvUr7sCBA5w7d47mzZvz+OOPExAQgK+PD3WjorBaz19kJKekkJOTQ+PGjenUqRMWs5mIiAjXdy+cOHGCpKSSfjX/vuTkZNLS0qjg789TAwa4XpeIiAhGjx5N7969r+prIlLqFV6whbXoQ6fwgiEnzWLimNyx+IXhOjYl2cGnITGv9adD7cIPDoKaET16OpOfuvAi0rtiTdfQmcDaHRjySleirGBP+pV1QM3ggsB9atcXrC4cBnMxUU9M4sP4eD58JfoPJp0C9nks3WgveB5PTWJMTCsibACB1OzYn8ljxjL8bwWTVy/nGIrYDyeRbgesEdRtDuv2pODASlTHkUQ3LTgvtvAODBnZkQjAfvA3Nhh34vIj+1IBaxRdXxnsOq+28FY0rHR+4YQ/c/6NNqWkAlaiuk1iVOeaBUOdgmrSYcgEejWwXjiJvIg9maSTdsBKxE3NgF9JSQWCmtN3SAfXuW0WM5aYRjYghZ1rjTs5b92uwvPVzf21aRYTx4xX+mDjr55TuRYUAuQv2bFjBw6Hg9q1azNt6lTemTOnYKWWYkN0MjIyWPP11zhyc7m1RQsmvf46i+PjmThhAvXr16dhw+JTxwrcdtttzJwxg0WLFvHc8OGEhYVx5OhRPl+5kuTkZA4dOoSvjw9PDxzo+ir5rl0LbhtXqlTJtQrM5awOROHF5vIVK8jOzqZq1ao8N3w4ixYtYuaMGQUXzhaL65Psz5YvJzMzk8aNGjFt6lQWLVrEgP798fPzY/+BA3y99nfeQS/i8OHDrjsR8+fP58OFC7n//vuN3dx8/vnn7EtKIiQkhBEjRrjObY0aNcjIyOCrVasAOHzoEMdPnMDLy4vOnTsz6oUX2L17N1lZWdSvX981V2PqG28QGhqKt7e3a1jU12vXsv/AAXx8fHioWzfemTOH+fPnExsb6xYCvlm7loSEBGw2GwP692fRokVMmzqVxo0a4XA4+HrtWjIyLuU+8IVWfP45GRkZbq/LtKlTubVFC9cdmqvxmojcENZuJckBBDZjwLS5LI6fzZgezQgzDI9Z+eFqkrLBVrsTQ16bXTgmPY5eLcKo2eC+giE+xVhrFwydWRwfz5zXBtMh0grZSax+t2Dc97pf9xVMwG0dx5zC9+LF8V2pCeAfQcNiK8BczupAAOv+PY8NJwFrGM16jGTa3HgWx89m8qBO1LSdDz6XegydXix4HkXPuU3lgonCSb8A8fMKJqIGNqTXmILzMm/aYDqEW8GRxOoPC55vyVJYuHQT6YA1soPrvM6bNrLgfBVzueffaOvbq0nMLjgnrZ6YVPB8i80pcJtEft9Y5rnOx2zGtA0rmCi8fxOwlbfjN5GOlYj2g13ndkyPhgWThTd+xsLfG9q0pPB8GV6bMT2aEVY7im62v3pO5VpQCJC/ZOXKlXy+ciVZWVkA5ObmsnnzZhISii1lASxfvpypU6e6VuoBcDgc7Nu3j3XrilYsLnDgwAEStm51fTdEVnY2P/30Ey+//LLruwzefe89duzcSZ7TidPp5PTp0yxfvpzExETCw8NddxcuZ3WgIsWPtWjSa15eHnv27mXq1Kmu+RIbNmzgrbfe4mBysmuuRFZWFt+vX8+UKVM4ffq0234vxfwPPmDbtm2u/eXl5RFQoYKxm5vTp08zZcoUfvrpJ9c5Kzret956iw0bCj5ryXM6eeedd9i1a5frNVj/ww8sXbqUM4UX5g6Hg927d/PJJ5+Qk5PDPR07EhkZedHHOJic7PYdHnlOJ9OmTWPVqlWuvxN5TieHjxzh7dmz+eyzz1x9L9eGDRsYN348O3budHtdjhw5wqrVq8lzOq/KayJyQ0iexyvvFX2hVuHa88mrmf2l4c7brnmMfHYaK3emYi+a4uV0YE9NZPUXP+E2myZjKyvXpJBeNGbD6SB970qmPjuKuUUXiF9OZvrKJNKL9uWwk5qwmOkrk7A7w+gwsE9h4fJWBwLAvppJz41nwQ8ppBe7SelIT2HDgvE8O6lwwvQlHUME5fPs2IuNP3GkJ7HyrUkFK9mQyNyxE1mwMcXtvKQnb2DBhHHM/YP1++1rJjJi6kqSXCeLgu8JMKwOdFnnvyT2xcQVbV/8uWSkkvjlNEYUm0Qe4e/AnuH2hEn6cjqvf1jQo+RjvnA/JUtk7sjBTP0yyf21yUglcc0XfH4FzqlcffqysL/oRv6yMBHxDPqyMBGR0kFfFiYiIiIiIteNQoCIiIiIiIdRCBARERER8TAKASIiIiIiHkYhQERERETEwygEiIiIiIh4GIUAEREREREPoxAgIiIiIuJhFAJERERERDyMQoCIiIiIiIdRCBARERER8TAKASIiIiIiHkYhQERERETEwygEiIiIiIh4GIUAKbMsZjOPP/44c2bP5uNFi1gcH8/899/n/154gYiICGP3UiUyMpKZM2Ywc8YMIiMjjeU/ZfKkSbw/bx6NGzc2lujbpw+L4+Pp26ePsSQicnG3j2ROfDyLi/9ZNJcZr/SnTZCxcyn1xCQWx8cz+Qlj4U8q3F/xPx++O53JI6JpaDN2Frl+FAKkTAoICGDcuHF069qVwMBAzOaCv+q+vr40b96cli1bGjcREZHLZfXGamwz2wir24nhrwyjmbHmoaz+YdS8vSfjpk+gVx1j9VJE0GHQBGZMG0kbY0nkT1IIkDKpV69e1KtXj6ysLJYsWUK//v3p3bs3ixcv5sSJE+zevdu4iYiI/En2jdOIjokhOiaGPuMWsjUDCGtIh9uNPT1H0vKC8xHddzhxM5exNdUBtiiinx1MlLHzH6pJq5ZRhFXwNhZE/jSFAClzoqKiuLVFCxwOB4s+/pgPFizg9OnTZGVns2DhQl599VWSkpKMm4mIyBVg37aYTQccxmbPZU8hcdU8xo2azaZ0oHIret5n7CRy7ZnqN74z373F5Pbj9WQymWjb+lZSDu4lNzfXWC4Vhj/7LLPefptNmzYZS3KdREdH0z02lj179vDPf/6TPKfT2MUlLCyMF198kSqVKwOQn5/P2bNn2fjLL7w9axZZ2dkA3NW2Lb169SIoqGCQa3p6Ol9++SXxixdD4fCj/v360axZM3x9fcnLyyMlJYWFCxfy88aNxR6xZHe1bcujsbFUCgsD4FhqKv5+fmRlZTFh4kSSk5MBaNyoEb0ee4yaNWpgsVjIzc0lMTGR2XPmkJKSYtiru8mTJlGpUiUmT5nCli1b3Gp9+/Sha9euLFu2jLnz5hEQEMDTAwfStGlTvL29yc3NZc/evcyaNct1LHe1bUvMo49SqVIlzCYTZ8+eZf369cydO9d13qR06N69O3Xq1OHj+HhjqcyoWLEiI59/ntjY2N/9Ny9XWNs45j3bDDZOo8+r64BAanbsyfD+Hah0cBkj/28eBe9MNnpNnE10nWKDhxx2Und8wfQpC9lqL2yr05UxQ6NpFl44eN6eStJ3Cxn59jrXZlHdRjKkS3MiAgv3ZU8l8dt5TJizgaLdXFwUXUcMplvLCALNgDOdpINQs0YgSctjGPleUT8brfrH0bdtFGGFh+JIT+GXz2YwaWlisf2V4IlJLO5c07C/ArYnJjGvc03sReerxUjmjG5FYLE+jvQUvv14HNO/TC9s6cPk+K7ULNaHwrsvBee84LyNGtyV5uGBWM0F5zZlyzJm/3ux69zaWvZn/FMdqVl43hzpKfzyxWQmxf/+7w65sl579VW2JCSwe/duMjIzjeVrSncCpMyJCA/HYrGwZ+/eP7wYSE1NZd/eva6fTSYTNpuNtm3a8PTTT0PhnYW+ffsSEhKC2WzGbDYTGBiI1bvgtmxAQABxcXHceeed+Pr6AmCxWKhevTpDhw6lVatWrv2XpEuXLgwaNIgqlSu79l+lcmX8/Pzc+rVq1YrnnnuOm2rXxmKxAODt7U3Dhg2J+/vfr9gEYoA+ffpw22234V34HL29vQkMDCS78OK+6JirVqmCxWx2nbeOHTsybNgwLIVzMETEM9haDCucBDubyYPa4rdjGWNfKgoAAHaWJuzD7f6A1UZYo2jGjImm4Dq7IcOH9zkfAABsYdhsRRfDEPXEJMY/3up8ACjsE9VpJG+O+qPR8lH0nTyOvrcXBgAAcyA1axS/BAew0WH0NEZ1Oh8AAKyBEbR6fByTH//zC0vY953CDthCCi/pN65h50n3PtbACDo8NZHhLdzbL6pOHyaP70OryMIAQMG5jWjRkzHj+xQOPYpmzPBOrgAAYA2sRMVir5B4Hv2mljLHt3x5APLOnTOWSvSvN95wjWWNjY1l4cKFnDt3jto33URoaCg+Pj5YrVaOHz/O3+PiiI6J4dHCfgB3t2tHjerVyczMZPacOcTGxhI3Zgx79uzB39+fezp2ND6kS1hYGPfddx9eXl5s3ryZUS+8QGxsLO+88w5nz5519fP39+fhhx/GZDLx4Ycf0q9/f6JjYhj1wgtsSUggNDSUDu3bu+37r7DZbOTn5/PVV18RGxtLdEwMf/vb30hLS8Pf35+727XDarWyJSGBYcOH07t3b5YsWUJOTg4NGjTQxGsRj2YlsFFXJv53KgOanm+1fziGHoXvtdExMfSfsJoUB1hrNuN+AAKx+QKOFFaO6+vqN3jq1oIdRPbhqftqwqF1zJ00nD4xMUTH9GXYpIVsTYfAll3p+zur79h69KFTDStkp7B65ij6x8QQPXAiC7YZ7h+0HUbfFoGk71zG9P8bUHgcAxg5czUpDis12/e5gpNzNzFp4PlzEt13OLMT7EAYUa0bFvaZx8iYaWzKADI2MbVo7kXhXYBOPTpQ0wqOQ6uZPqxvwTmZvpIkO1hrdCgcemTD2wpkbGW26/F6Eld2bw7KJVAIkDInq9jF86UICwvj+eefZ/7777No0SJ69uyJ1WrF6uWFj48P27Zu5bfffiMgIIB7OnYkNDTUbfu69ephNpv56quvWLlyJXlOJ4mJiXy0aBF2u53w8PCLfkp/2623EhIczL6kJKZOm8a+ffvIczpJ2LoVu/38L6aaNWtSuVIl/Pz86NGjB+/MmcPi+Hgmvf46jRs1wmw2U7lKFbd9/xVr167Fbrdzyy23cPsdd7h9sl+rVi1CQ0M5euwYM2fOJCUlhazsbD5YsICt27bh6+vLzTff7LY/ESnbik8M7v9/k1mwMRWHTwSdnujP+c/NA2nz1ARmzC1YNnPOmA5EWAtWGCq477mO+G+ScFgr0bzz/bQqfkcAoF1DalrBGt6GvqOmMi8+nsXxc5k2qicNAwHCiGjuvsl5NmJaRGHFzqZZw5m+Kol0gJObWLw/1a1nq5a1sAGBdbsy5LXZxe5wFB6vf0VquW1xGbwK/uPIPH93w9YgmlFvzObDRfEsnjuVAY0KnrfNx3iHoiRtaFbTBo5ElsXNYPUhO2AnZc0cxn6dBNio1bQNsJiVG9PBvxYdojtQ80ZZvlWuKoUAKXNS09JwOp3UqFHDWLpArVq1GD9uHHfecYdrKI9RntPJpEmTiI+Pp0mTJkx/6y0mTpjg2n9IcDB5eXmkp59/UwdIS0tz+zS/JMHBwVitVk6dOkVGRoax7FItMpJy5coZmy+byWTCy6vwt9Dv2LBhA+PGj+fkyZM8M3Qo77zzDrGxsVjMZiIjIrBarWRnZZGa6v7L88jhw24/i4jnSd+7gcWvLi5YISi8Lh2gcCjODIbf5z7ExijxvVEMmrqKU9W6MmraXD78TxzRDQo2aBNeMGfqz2lGRDBAKinfGmvuoipdysX3n9OsaUHAOHW0YB6hrX0cb47r6T6U57LUpKI/kG0n2XBDo2joUeFPrH51GOMWbMXacjCTZ8Uz77Ub6Lsc5Kr4U3/lREqzxMREsrKyqFu3Ll26dDGWqV6tGmGFE3CLPtk/fPgwb0ydSmxsLC+9/PIFF+95Tifxixfz1MCBzHnnHSIjIxnx/POEhYVx/MQJLBYLgYHuvzgiIyLw8/MjPz+fcxcZmpTrcOB0Oqng7/+74+iTU1JwOBwkJyfzxJNPnr91XOzPq6++atzsAuXKlaNe3bpubRazmVq1Lvxca//+/YwdN45nhw1jX1ISMTExdO/e3XUsPr6+rvNYpFq1auTn5+PMd19vQEQ83H096FDDCvYkVhYNxSka4mKQ/t0c4ob0pc+4hey0NaPXmDiibbDuaMGHDqmrhl/w/lfwpy8TLnqBn449C6AiYX8w1n7fcTvgYOt7xv0X/RnFXONGl6JOH3q1CARSSVyfAkTQs1szAnGQunEhk4YVDoFa/vur17kvEprEqQzAx0akIVxFRIVhAxx5RTMx7GxdMplhA2LoP3Ud9mr6LgdPd/GrDpEb1KZNm9i+Ywfe3t7EPvooj/XqRUBAAL4+PnTq1IkXX3yRfk8+icVspmJQECaTid179vDLxo1/OJEY4MiRI2RnZxMYGEiVKlU4cOAAAG3atOGO2wsWxY6KiiI6OhpfX18OHz7MkSNHDHspcGD/fnJycrjpppsY+swzhIaGYjGbqRsV5XZnYt++faSlpVE1PJyhQ4e6LtqjoqJ4+aWXeKhbt2J7LVlycjJms5n77ruPhx9+GF8fH0JDQ3nmmWeoV78+OTk5JJewwlDGmTOcPHkSs8lEterVOXz4MOmnTxMWFkaPHj1c5/bxxx+nfv36ZGdns3fPHuNuRMRDBNbuQN9XetLMH0hNYRNAFb+CC9LkDXzxQ+FQnD9gP5xEuh2wRlC3ObB6JylA2F1xjIlpRYQNwEZE+/5M/k8cnYw7cLOVxKN2IJBWA8cS3TKiYDJyUE26VnP/MGPdr/uwY6Xho5MY0LFm4co9gTSLiWPGa8WHN10iWwStYuKY8WLXgrH7u1bzdgJATSpVADhF4per2XDoj9c2wj+KNp0Kjx2Adew84gBrFB1GRdMsiMJzMphR7SMAO8kJG4rvAQBHUgrHcoGwCIpmHojn0RKhf5GWCC2datWqxfPPP+9a+rM4p9PJzz//zJQpU+jSpQs9e/YscYhMdnY2M2bOZMuWLYwfN47q1au71Y8cPcpLL71ETk4OcXFx3FS7tlsdICMjg5n//S8bNlz4Jkzhp/CjRo2iRYsWmEr4t5eWluZaIrRz58707NEDHx8fYzc2b97My6+8Ymx206BBA54bPvyCOxYULo26ceNGJk2aRJ7TyUPdul1wXpxOJ0uXLmX+Bx/QpUsXevXs6Vo96GL7kdJBS4TKVVO4RGjJI3zS2TR9GBPW2CGyP9Pe6HSRC2g7W98bwrjldjq9ONc1Jt7FkcjiAWNYYLfRYdQ0hrS88D0M7Gx9uy/jvjS2F1OnD5PHF1yIl+T8kp5R9H1tHF1rl9QxhZXPDWd2wUrJJStcIrQkjtR1vD1qGqsLr/dLfL5Fjq4m7pkZFCxIWsISqySxLGYUc3/neTn2L2PsyHkkEsGAaVPpFG7ocHIDEwZOLghqck1oiVCRq2zfvn289NJLfL9+PXa7vWCIitPJiZMn+eijj5gyZQp5TiefffYZq1evdq1rn5WdzebNm/nqq68wm8081K2ba2lMh6Pglmqe08nB5GTmvvceqampnD59milTpvDTTz+5wmpeXh579u7lrbfeumgAoHBf06ZNY9WqVWRlZbnaDh85QqbhzWH58uVMnTq1YOnTvDwAHA4H+/btY92682toX8y2bdt4+ZVX2LZtm+v5Op1OTp8+zZdffsm0adNcF0/e5cpht9txFv6clZXF6tWrWVz4vQifffYZb8+ezfHjx3E6neTn55ORkXHBfkTEAzkd2A9tZfGkwgAAkDyH6e9vIqXow26ng/Tk1cyes4FUh42G0cNoQwTl8+zYi60j6khPYuVbk1hgp2Bc+6RhjFuwgZT0Yp2y00nZuJrVP59vKtGueYydsJBNxT9xd6STtN94XyKRuf83mKlfJpJavGtGKolrvuRHw5Kef8jpwJGewqal0xg05HwAAFg5ZQYr955/fEdGKluXzGDlXjtU7sBTTxRV7CyYPM/9bkG2lYotLv68Un5YyISx8wpDRE1wpuMo9tZsP7SJBW/OUADwYLoT8BfpToCIlHa6EyAiUjroToCIiIiIiFw3CgEiIiIiIh5GIUBERERExMMoBIiIiIiIeBiFABERERERD6MQICIiIiLiYRQCREREREQ8jEKAiIiIiIiHUQgQEREREfEwCgEiIiIiIh5GIUBERERExMMoBIiIiIiIeBiFABERERERD6MQICIiIiLiYRQCREREREQ8jEKAiIiIiIiHUQgQEREREfEwCgEiIiIiIh5GIUBERERExMMoBIiIiIiIeBiFABERERERD6MQICIiIiLiYUz1G9+Z795icvvxejKZTLRtfSspB/eSm5trLJcKw599loULFxqbRURKjcpVqlCnTh0+jo83lsqMihUrMvL553nzzTeNJRGRUuOBBx5gS0ICu3fvJiMz01i+phQC/qKnn3rK2CTyh4KDg8nKzuas3W4siYHFYiE0NBT72bOctdvJy8szdpFLcPLUqTIfAmJjYozNIn9JUFAQmZmZpfYaRG5MP2/cqBDwR26EEFC1ShVjk8jvMlssPNW/P8s//5xDKSnGspSgZq1aNG3cGB8fH37dsoUd27cbu8gfcJw7R1pamrG5zPDy8iIsNNTYLPKXDHv2WeKXLNF7tVxRGRkZZOfk4HA4jKVrSiFA5BqrFBbGqJEjeXnCBE6fPm0sy0V4e3vTpnVr2t99Nwlbt/K/r77i1KlTxm4iIlfM5NdfZ8Z//8vevXuNJZEbniYGi1xjQcHBAAoAlyk3N5fVa9Yw6+238fHx4emnnqJFixbGbiIiInIJFAJErrHg4GCOHDlibJZLdODgQebOm8c369bR6b776BEbS8WKFY3dRERE5HcoBIhcYyFBQZw4ccLYLJfphx9+YMbMmeQDgwYOpHmzZsYuIiIichEKASLXWHBwMMePHzc2y59w/MQJPlq0iNVr1tC5c2cejYmhXLlyxm4iIiJioBAgco2FhIRw/ORJY7P8BT/9/DNvTZ+O1Wpl+LPP0qBBA2MXERERKUYhQOQaCw4O1nCgq+D48eMsWLiQb9et44k+fXjk4YeNXURERKSQQoDINVSxYkXMZrOGA11FP2zYwKTJkwkODmbk889To3p1YxcRERGPpxAgcg2FhITgdDq1vv1Vdiw1lbdnz2bjL7/wzNCh3NOxo7GLiIiIR1MIELmGNBTo2lr7zTdMeeMNGjVsyDNDh+Lv72/sIiIi4pEUAkSuoZCgIA0FusaOHDnClDfeIDk5mTF//zv16tY1dhEREfE4CgEi11BISIjuBFwnS5ctI37xYvr360eH9u2NZREREY+iECByDVUMCuKElge9bjb+8gtT3niDpk2b0ufxxylfvryxi4iIiEdQCBC5hoKCgjQp+Do7cuQIk6dM4dy5cwz729+oXbu2sYuIiEiZpxAgco34+vjg6+OjEFBKLFi4kB9+/JHBTz9Nm9atjWUREZEyTSFA5BoJCgoC4KSGA5Uaa9eu5e3Zs7nj9tvpHhuLxWIxdhERESmTFAJErpGKFSuSlZ1NVna2sSTXUeKuXUyfMYNy3t7079ePChUqGLuIiIiUOQoBItdIxYoVdReglMrIzGTe/PkcOXKEpwcOpEqVKsYuIiIiZYpCgMg1oknBpd9ny5fz008/8cyQIdx8003GsoiISJmhECByjVSsWFEh4Abwzbff8tHHH/P0wIE0adzYWBYRESkTFAJErpGKgYEKATeIhIQE/v3WW/R+7DHuvOMOY1lEROSGpxAgco0EBARw5swZY7OUUgcOHODlCRN4+KGHuKdjR2NZRETkhqYQIHINeHl54efnx+nTp40lKcVOnz7NyBde4L5776Vxo0bGsoiIyA1LIUDkGggICAAgXSHghjRp8mQe792bm2++2VgSERG5ISkEiFwDgYGBABoOdIM6lprK3HnzePqpp6hZo4axLCIicsNRCBC5BgICAsjIzCQvL89YkhvE1m3bWPbZZ/R78knCw8ONZRERkRuKqX7jO/PdW0xuP15PJpOJtq1vxZFjN5ZEbii3tmjBzTfVZsGHHxlLcoO5tUVz6tWrxyefLiUjI8NYFpEyZNjfnmHxkk9IOXTIWBK54ZX6EFC5UpixWeSG0+XBewivWpmZb79vLMkNKPqhBzCZTMR/ssJYEpEyZOqkcfxn5nvs2bvfWBK54ZXqECBSVvTr052KgQFMeXOWsSQ3oNCQYMb/cwT/nT2fLVu3G8siUkZ89P4Mxk98g+07dhlLIjc8zQkQuQZ8fHzIyskxNssNKu34CZZ/vopune81lkRERG4ICgEi10C5ct5kZysElCWff7kGk8nEg506GEsiIiKlnkKAyDXg41NOIaAM+uzzr+j24L1UrhRqLImIiJRqCgEi10A5b90JKIs2bd7Gxl+30q3L/caSiIhIqaYQIHINeJfzJjc319gsZcDyz7+iRbNGNGl0i7EkIiJSaikEiFwDPuXKKQSUUYePHOOHDRtpcEuUsSQiIlJqKQSIXAPe3t7kKASUWZu3bqdB/brGZhERkVJLIUDkGijnbSU312FsljIiYesOQkIqEhFexVgSEREplRQCRK4B3Qko286dO8emX7fRuFF9Y0lERKRUUggQuQa8va2aE1DGbdq8lUYN6hmbRURESiWFAJFrwGw2azhQGbclYTsN6kdhNuttVURESj/9thK5RhwOhYCyLCs7m+07dtG4oYYEiYhI6acQIHKNOBznjE1SxmzdnqilQkVE5IagECByjeTqTkCZl5p6nFo1qhmbRURESh2FAJFrxKE5AWVeaupxaioEiIjIDUAhQOQacZzTcKCy7ljacXx9fahapZKxJCIiUqooBIhcI1odqOyz28/icJwjJCTYWBIRESlVFAJErpFzuhPgEbKys/H1KWdsFhERKVUUAkSuMqvVCwCn02ksSRmUnZVN+fK+xmYREZFSRSFA5CqzelmNTVKGFdwJ8DE2i4iIlCoKASJXWdGdAPEMWVnZ+PoqBIiISOmmECBylVm8LMYmKcOyc3IwmUzGZhERkVJFIUDkKtNwIM+Sk5NrbBIRESl1FAJErjINB/Is2Tk5xiYREZFSRyFA5CpTCPAsuhMgIiI3AoUAkatMw4E8S47uBIiIyA1AIUDkKvPSnQCPkp2tECAiIqWfQoCIyBXmo28MFhGRUk4hQETkCitXTiFARERKN4UAEZErrFw5b2OTiIhIqaIQICJyhfnoToCIiJRyCgEiIleY7gSIiEhppxAgInKFlS/va2wSEREpVRQCRESuoMNHjhFUMdDYLCI3GF9fHwCys7ONJZEyQSFAROQKOnT4KBUVAkRueL4+BSEgK0shQMomhQARkSvo8JGjWMxmAgIqGEsicgPxKQwBZxUCpIxSCBARuYIcjnOkph4nOEh3A0RuZL6+Bat86U6AlFUKASIiV9jBlMNERlQ1NovIDcRWvjy5Dge5ubnGkkiZoBAgInKF7Uzcwy31oozNInID8fOzkZp63NgsUmYoBIiIXGGJu/ZSv14dY7OI3ED8bOUVAqRMUwgQEbnCdu3Zh8Vi5ubaNY0lEblB+PnZOJamECBll0KAiMhV8PMvW+h0f3tjs4jcICIjqpKcctjYLFJmKASIiFwFK1aupkH9KO5s1cJYEpEbQO1a1dm7b7+xWaTMUAgQEbkKjqWm8fkXa+jy4L14e3sbyyJSigUEVCAkOIiDyboTIGWXQoCIyFWy4otVAHR98B5jSURKsZtq12Bv0gGcTqexJFJmKASIiFwlDsc5Vnyxim6d76VmjUhjWURKqZrVI9mXdNDYLFKmKASIiFxF677/iU2btzFowONUDAwwlkWkFKpeLYKDyYeMzSJlikKAiMhV9u8Z73LyZDrPDxtoLIlIKVS9WjjJmg8gZZxCgIjIVXbu3Dn+M/NdfMr58M/Rw41lESlF6kXdhK+vLweSU4wlkTJFIUBE5Bqwn81iwmvTqFfvZp5/VncEREqr225tyk8//0pOTq6xJFKmKASIiFwj6afPMHzki7S8tSkxDz9oLIvIdebjU46WLZry48bNxpJImaMQICJyDaWmneCfL03i0Uc6M+q5wcayiFxHt7VoSvrp0yRs3W4siZQ5CgEiItfYrt376PvUcCIjqvDW1AlUrVLZ2EVEroOWtzbRXQDxGAoBIiLXQXZ2Ds+OeJGdiXt44/Wx3Hn7rcYuInINVYusSrMmDfnp51+NJZEyyVS/8Z357i0mtx/l6ggM0HrhnqLOzbUYMWwgTz8z2lgSAaB9uzt5qMt9fLPuBxZ/utJYFpFroHOnDlStUolZ7ywwlsSDpJ8+bWwqsxQCrpPKlcOoUyvc2CxlUHjVqjzUrTNvzZhlLIm4VAoLpVWrllgsFjZt2sz+AweMXUTkKqlUKYxHHurKZytWkpKiLwnzVCfS7fy2fZexucxSCLhOKlcOo1a1UJKT9bXkZV3t2rUZ/PTTjHzhBWNJ5AJ3t2tH+7vvZktCAl9//TUnTp40dhGRK6zfk0+SeuwYyz//3FgSDxEcHIzD6e1RIUBzAkRESpGv167lP9OnY7VaGTpkCK1btzZ2EZEr6M477qBiYCCrv/7aWBIp0xQCRERKmWPHjrHwww/5dNkyWjRvztNPPUX9evWM3UTkLwoJCaFD+/asXrOGrKwsY1mkTFMIEBEppRISEnhr+nT2JSUREx1NvyefVBgQuYLu7diRxF272Lxli7EkUuYpBIiIlGIOh4OvVq1i6ptvkpKSojAgcoXc3a4dwSEhfLZ8ubEk4hEUAkREbgBnzpzhf199xdQ33yQ5OVlhQOQvqFevHne3a8enS5dy9uxZY1nEIygEiIjcQM6cOeO6M5CTk8NTAwYwffp03v9gPp8u/4xPl3/G7HffIfrRR42bXhGNGjfmvffn8dHieO5u395YvuZemTiBJcuW8tjjvY0lkRIFBgbS5cEHWfLppyQnJxvLIh5DIUBE5AZ05swZtv72GwEhwdj8bKSfOMmBPXs5kZpGhQoV6PlYL2JiY42biXi8Lp07s2nzZjZv3mwsiXgUhQARkRuY2Wwm32Ti7XfeYe68eWzdvJmDe/dx/OgxmjZujEnf/SLicu899+DIzWXVqlXGkojHUQgQESkL8vPZtGkTU998k4OHUrBYLJSzWhk1YgT33XsvlStXNm4h4lHuveceatSowUcff2wsiXgkhQARkTLkrnbtqFu/Pr7+fqxbv55fN2+mSePGjHz+eWbOnMnCjz5k2ecr+OSzZcyaM5sHHnzQbXtfX1/6PzWAufPf59Pln7F0xXIWLPqI50eOIDgkxK1vkQaNGvHWf2ey4ONFdHrgAVd7u/bt+ff0t/jks2Us+3wF8Z9+wqR/TaFBo0auPq9MnMC8BR/Q54m+vPf+PJauWM6nyz9j5tuzaGeYc9CgUSMm/WsKS5YtZdnnK1iw6COqhIe79REpSes77+SW+vV5b+5c8vPzjWURj6QQICJygwsKDuaV/zeRZZ+vYMQLo/Dx8WHhBwtY+umnfLVqFVPeeIPNCQmcO3eOQwcOcnDvPs6cOkVISAiP9XmcNnfdBYUBIO4fY+j60ENUDArCbDZjMpnw8/OjxW230aBBA+NDE1W3Lk8PeppKlSqxcvlyVn7+OQCdHniAgYMHUb1GDSwWCwDe3t5E1a3L8yOep1Hjxq59BAQEEP3oowQFB2MymTCbzVQND6d7j+5ULbzIb96iBSNGjiCqbl28vLwA8PPzIzQ01LUfkZI0a9qUO++4g1mzZ5Obm2ssi3gshQARkTImJDSUAQOf4oW/jwbg3LlzzJ8/n2eeeYap06bx+eefs2/3HpJ27yErI5PmzZoC8EhMNLc0bIjD4eCLlSsZOmgwQwcN5rt169i9axffrF3r9jg+Pj4M/dszRFarxnfr1vH+3HkAVA0P54HOD2ICln36KUMHDabrAw8y/sWxbN++neCQEO66u51rPyaTiWPHjjFz+gy6R8fw6ZIl5ObmEhQcTFRUFAAPdn6Q4JAQThw/zqz/zqJ7dAwTX5nA4cOHXfsRMaobFUXPHj2YOWsWdrvdWBbxaAoBIiI3uJMnTvCPv8fR9YEHGTH8OVZ+/jm5ubk0b9GCBzp3dvWLfvRRxr3yMgOHDqFZq5ZUDq+Kw+EgokpVBvTrR/369TGbzWxYv57p//4PyQcPknzwIK//v1cZ+49/uj2m2WwmJvZRatSsSfLBg64AAHDzzTcTEhqKzWaj60MP8dbMGSz7fAVjXxpP/fr1MZlMVAoLc9vf1i1b+Hz5crKysvhi5RecOH4ck8lEeZuNRo0bU6t2bTLtdj5csJDlS5eSlZXFhvXrOZ6a6rYfkSK1a9dmQP/+vDZpEqdPnzaWRTyeQoCISBmye9cuZvznLfbs3o2Pjw81atYAYPiI53m8bx/CKlVyDfPxDwggvHo1jqQeI+XQIXys3hzYsxdnXh7hfzDWvly5cgSHhJBptxMeEcGDnc/PLYiIjKBcuXJu/S/H4UOHOHfuHF5eXgQGBhAcHIxv+fLkZmdz5MgRY3eRC0TVqcPgp59m6ptvcvz4cWNZRBQCRETKLpPJhMVspnmLFjRr3hyn08n369YxYvhzdH3gQRIK10nPdTj44ssvycrNIaRSGBX8/Rk6eDCDBg6kdevWBAUFGXeN0+lkww8/8N+3ppOVlUX7Dh1o3qIFAIcPHcbhcHDk8GEGPTWQrg88eMGff8SNMe7yonIdDs6dO4d3uXJUrFjRWBZx0+CWW3hqwAD+M306KSkpxrKIFFIIEBEpQ26uU4fnR40kqm5dcnNzOXToMBUqVKBcuXKcPXuWjRt/YfeuXcbNADhw4AA2f3/qNWzI4bRUUg4donHDhvz9//6P119/jdtbtcLb2xuAnJwcfvxhA9+sXcuaVauoEBDAw9GP4OvrS2JiIidPnKBS5coMeWaoKxy0uuMOJr/xL/o80dfwyL8vad8+zpw+jc1mI7ZHd+5qVzCfoHmLFlQMDjZ2Fw/WtEkTnujbl39Nncr+/fuNZREpRiFAROQGV3x1oClT36Dd3XdjtVrZ8dtvrFyxwnVRXqFCBYY9N5xln69g2ecraNSkCQDhkZH4+vryxcovOHjgAL6+vtx7330MHDqE+7p0pmadmwmsGESH9u3p1rkzmafPkH32rOvxF8z/gF27dlH/llt4tHsshw8d4vt16zh37hyNGjdm7EvjWfb5CuL+MYY6UVHUq1+/2NH/scOHDrH+++9xOBxEVqvGiBdGueYYREZGGruLh2p522081qsXr73+uiaMi1wCS2jlauPcWvTtkteEn5+NigE2zpzRZKWyxt/fn8qVKxMQEEBAQABVqlShfr167ExMdLUFBARoopr8ZZUqV+b2O+7At3x5V1t+fj4ZGRl8+803vPnGVLKyssjIyMBuP0v1GjXw8/MjPz+f9FOnWP3VV1QICCA8PByTCb5bt46ffvqJ4KAgQsPCXEtxZmVlsTUhgdlz3iH33Dnq1Y3ibKadSoWTf8+ePUvKoUM0adKEGjVqkJyczJdffMGpU+lUrlwJf39/zGYzDoeDQykprPt2HTt37ACgfYcOVKpcmX179/LTjz+6nseDnTvj7+/Pju3b2ZqQQMKWLeTlOalWLRIfX18AMjMzOXPmDL6+vq5+4plat25N9MMP8/KECZw8dcpYFvlD5cuXx5lvIS3thLFUZpnqN77T/VszFAKuicqVw6hVLZTk5IPGkpQBE15+2TUx0mQyXfDlNGfPnuXFce75W+RGYjKZuKV+fW655Rbq16vH8RMn2LlzJzt37iRZ47DlKmjbpg33dOyI0+lk7Pjxrvb2d9/NA5068c+xY8nKynLbRuRSBQcH43B689v2kodLlkW6E3Cd6E5A2dasaVNsNhumEv49mUwmDh06xE8//2wsidxQUtPS+O233/h540ZycnKoWbMmDz7wAFFRUVTw9ycnO5uMzEzjZiJ/Sqf77ycsLAxvb2/atG7N12vX0vnBB7mnY0dGx8Xpi8DkL/HEOwEKAdeJQkDZZjKZqF6jBlar1VgiMzOTVWvWaKlDKTMcDgeHDx9mS0ICv/zyC+fOnaNOnTp06dyZm2rXxmazkZ2dTaa+rEn+pMDAQDq0b++6w+rt7c3d7doRGBDAi+PG4XQ6jZuIXBaFABQCrhWFgLItOTmZpk2a4O/vbyyxb98+Vnz+ubFZpEzIzs4mOSWFTb/+ypaEBNewoQcfeICaNWpgs9nIys7Wt7fKZWl3113UrlULi8XiarNYLBpWKVeMQgAKAdeKQkDZFxISQmhIiGtJRYCMjAzWrF3LsWPH3PqKlEV2u539+/fz88aN7Ni5E6vVSuNGjeh0//1Ur1aN8oWTis8WW2lIpCTRjzxCQECAsZl777mH/331lbFZ5LIpBKAQcK0oBJR9u3btommTJlSoUMHVdujQIZavWOHWT8QTnDlzhr1797Lhxx/Zt28f5cuXp3mzZtzTsSPVIiPxLV+e9FOn/nBc9ysvvYS3tzd79u41lqSMat6sGQ0bNcJauFqVkYKAXAkKASgEXCsKAZ7hXF4etWrVwmq1kpGZyZqvv9ZcAPF4J0+dInHXLr77/nsOHjxIeZuNZk2acP999xEZGYmPj0+J3/T68vjx+Pr6EhERQW5uLgcPanU1T9C1c2cqhYWVuNBCdnY25/LyuL1VK9Z9952xLHLJFAJQCLhWFAI8w+HDh2nSuDEVKlQgJSWFzz77zNhFxKOdOHGCxMREftiwgf0HDlC+fHmaNWlCl86diQgPJ8/pJDU1FYAHOnXCZDJhsVioXr06ZpOJpKQk4y6lDLFarXTo0IHy5ctjMplwOp1kZWVx5swZjh8/zo6dO5k+Y4YCgPxlnhgC9D0B10lp/56AChUq0P7uu43N8ieEV61KpUqVOHDwICdOeM6by9X0zbffckpfCFRmWSwWbrrpJm6qXZuoOnUIDg7mt+3bada0qVu/rKwsvvn2W1atXk2zpk2pVq2aW13KhubNmuF0OsnNzeXMmTNkZWdz/PhxY7dSb/mKFeTl5V3wvTFSOnji9wQoBFwnN0IIeKJPH9b/8IOxJHJdPfzQQ0z+178UAjyE1Wqldu3aPNGnj+sbjIvLycnhq1WrOHPmDA0bNOC37duNXUSuu4cfeoix48crBJRiCgEoBFwrN0oIGDJ0qLEkct1YLBYWffSRQoAHmvTaayWOCQfIys7mt99+o5y3N3+PizOWRa6r4OBgZv33vwoBpZwnhgCzsUFERKS0uVgAAPD18aFxo0bGZhER+R0KASIiUqr9vwkTAAomhRZ+0di5c+c4ffo0hw4d4ocfftAwIBGRy6QQICIipdrfx4xh3XffsWz5ct6bO5epb77J6Lg4Xp4wgTemTWPxJ5+wXSFAROSyKASIiEipt3TZMr777jv27t2r+SAiIleAQoCIiIiIiIdRCBARERER8TAKASIiIiIiHkYhQERERETEwygEiIiIiIh4GIUAEREREREPoxAgIiIiIuJhFAJERERERDyMQoCIiIiIiIdRCBARERER8TAKASIiIiIiHkYhQERERETEwygEiIiIiIh4GIUAEREREREPoxAgIiIiIuJhFAJERERERDyMQoCIiIiIiIdRCBARERER8TAKAXKDsdGq11imvbuQxfHxBX8Wzmba6J60shn73ijaMObdeBa/G0cbY+lPuxr7FJHLFRERwZi4OObPn8/i+Hg+XrSIWbNm0bt3byzm0v0rODIykpkzZjBzxgwiIyON5cv2R/sbPXo0Hy5cSOcHHzSWROQqKN3vQCJuoug1cTqjHmlIhL/1fLM1kIgWXbn/7uJ9r6xmPeKYNnsCfY0FEZGLaN68OWNffJFmzZrh6+MDgNlsJjgoiLvatqVmrVrGTURErhmFALlhRA0aRnQdGzhS2fThZIb1jSE6ZgATPtxEanYKScuNW1w5DVs0IyLQ29gsIlKigIAAevfuTVBQEIcPH+aNqVOJjY1l2PDh/LxxI2lpaezZs8e4mYjINaMQIDeIaPreFQaks+ntUUyI30CKnYKf4ycy8qXZrDZuIiJyndx3772Eh4eTmprKG1On8t1335HndJKSksKk11/nnXfeMW4iInJNmeo3vjPfvcXk9qNcHZUrh1GrWijJyQeNpVKhQoUKPNGnD0OGDjWWro/OY/nwiYawazH94xZiN9YvEEXXEYPp1iKCQCvgdGA/spWlb09j8bbCrZ+YxOLOVlZOWkOlXtE0Cy+YVOBIT2LV2+OY/aO9cGz9MJr5u++d/cuIHjnvfJ1NTP1/SXR6IZqoQODQauKGzSARG636x9G3bRRhhXMWHOlJrHpvArO/Sy/cWbF9PDmRdYWtth4TmBMThWvgk9OB/fhOvpg+mQVFz6Gob8v+jOnblqjCB7EfSsIeXJMwh2Gfhn5kp5P0zVxeeXsdRUfTd3I8XWsksazvF1Sc2Ic24TawbyWm73jc3yyuPYvFwqKPPmLyv/7FqVOnjGXxYM2aNqVhgwb8PS7OWLouxr74Ig0aNGDp0qXM/+ADY9nNPR070q9fP7y9C+425jmdpJ86xSeffMLKL75w9burbVt69epFUFAQAOnp6Xz55ZfEL14MhXcf+vfrVzD8yNeXvLw8UlJSWLhwIT9v3Ojaz8Xc1bYtj8bGUiksDIBjqan4+/mRlZXFhIkTSU5OBqBxo0b0euwxataogcViITc3l8TERGbPmUNKSophr+dFRkYypvD1Kb6/IqNHj6ZJ48bMnz+f5StWEBAQwNMDB9K0aVO8vb3Jzc1lz969zJo1y7XtXW3bEvPoo1SqVAmzycTZs2dZv349c+fOJSs7223/10twcDCz/vtfxo4fT15eHvn51/udVEoSHByMw+nNb9t3GUtllu4EyA2h4U2VsALH9i67pADQd/I4+t5eGAAAzFZs4c3oNWYcfesU7xtBp1F9XAEAwBpYk05DRtKpeLc/VJFuRQEAsB/ZRiI2OoyexqhO5wMARfsfPpkx7X9/JrP9s23scxRrMFuxhTUkekwc0cU2tbWP481Rnc5f2AO28JqEFQxBPt9WQj98Aql53zCmjO6A+9HYaPjigIIAAJCWdN0DgMiNwqdcOUJCQ8nJyWHHzp3G8gW2JCRw4uRJ188Ws5ng4GB69+5Nxw4dAIiKiqJv376EhIRgNpsxm80EBgZiLQwOAQEBxMXFceedd+Lr61uwH4uF6tWrM3ToUFq1auXaf0m6dOnCoEGDqFK5smv/VSpXxs/Pz61fq1ateO6557ipdm0sFgsA3t7eNGzYkLi//73ECb9/Vp8+fbjttttc4cjb25vAwECyCy/ui465apUqWMxmTCYTNpuNjh07MmzYsFI/8VrketO/ELkhBPoUfkqf98cRgPt60KGGFRwprJ4+nD4xMfQZNoOV++1grUmHHobLe3sSKwv79Z+wkiQHYKtFs7YA65jwZAzL9gMksSwmhuiYmMK7AMX416Qmm5g9rC/RA0cxdtY6iOxB1xaBQDpbP5xI/5gYogdOZMGvqTgIpFm3HkS478WdfSFxPQsfr3Db1ckOsNaiuespNGNIj2YEAukJC5k0rC/RMX0ZNn0dqcUDBBH07FbYb9tCJgwsNp/CAYEtutDT7Xd3GDWrpbBywgCi+w5n5BsFnzSKyB+zeHlh9fIiPz+fc+fOGcsXSE1N5ZlnnnH9W+/Xvz+//vorPj4+3HLLLQD4+PhgtVo5fvw4f4+LIzomhkdjY1m4cCEAd7drR43q1cnMzGT2nDnExsYSN2YMe/bswd/fn3s6djQ86nlhYWHcd999eHl5sXnzZka98AKxsbG88847nD171tXP39+fhx9+GJPJxIcffki//v2Jjolh1AsvsCUhgdDQUDq0b++277/CZrORn5/PV199RWxsLNExMfztb38jLS0Nf39/7m7XDqvVypaEBIYNH07v3r1ZsmQJOTk5NGjQgJYtWxp3KSLFKATIDSE9+xIu/gu1aVoLGw4Sl45h+poU7ID90Gpmj11NEmCr2dRt2Uz7jmXMLuyX/uscvk10AN5YKxTr9IdSWf36RFYessPJJJJOAh3qEgGk/zCdcfGbCobbnNzE4gkL2ZoBhNel4DO+iwts3Z+J0+cWLIU6K44OkVbAinfRh3Nt76dhEDj2L2PsS4vZcMgO2ElZs4kUtzvh7akbDpzcwFvjFrPpJK75FAu22IEI6rodjIOtH45j9q/pYE8h6dCln38RT5d37hyOS7j4L+7WFi147bXXWPTRR7wzZw5NmzYFwLd8eQC2bd3Kb7/9RkBAAPd07EhoaKjb9nXr1cNsNvPVV1+xcuVK8pxOEhMT+WjRIux2O+Hh4Rf9lP62W28lJDiYfUlJTJ02jX379pHndJKwdSt2+/l/+zVr1qRypUr4+fnRo0cP3pkzh8Xx8Ux6/XUaN2qE2WymcpUqbvv+K9auXYvdbueWW27h9jvucPtkv1atWoSGhnL02DFmzpxJSkoKWdnZfLBgAVu3bcPX15ebb77ZbX8i4k4hQG4IW1NO4QAianQ1li5QK8QG5GI/bLhwtSdxKsO9qSSnsnMBK34hxsrvyEgh0TCMsE3lgnG1p05sci+wjpQThqYSRD0xiZnDDcN3jGpVxAbkHk/i4iNxgbYRhAGcSeWCozmaamgBOEbKKl34i/wZ2Tk5nDl9mnLlynHTTTcZyxfo0qULzz//vNsQG6M8p5NJkyYRHx9PkyZNmP7WW0ycMIEaNWoAEBIcTF5eHunpRbN7CqSlpbl9ml+S4OBgrFYrp06dIiPj4m+S1SIjKVeunLH5splMJsyXMP9ww4YNjBs/npMnT/LM0KG88847xMbGYjGbiYyIwGq1kp2VRWqq+3vYkcOH3X4WkZIpBMiNYWUiKYC1QdeSx9LXaUjDwuZ9x+2AN7aqhn6RdQjzB/JycRspc8msWEt46CK5hp+LLq4rBjczVDpR0/1DPJfzi5B2oufdNbFiJ+nLGYwcWDBMYOpGw4V5ZsFz8a4QYRjTb/BtCqkAFcK44GiqFYQV8oq3OnAoA4j8abt378ZsNtOxQwdqlfB9APXr1cNiNruGtVi8vPh540ZGvfAC0TExLFu2zLgJeU4n8YsX89TAgcx55x0iIyMZ8fzzhIWFcfzECSwWC4GBhROTCkVGRODn5/e7Q5NyHQ6cTicV/P1/dxx9ckoKDoeD5ORknnjyyfNDFYv9efXVV42bXaBChQrUqeM2OYuAgACqlnAXYf/+/YwdN45nhw1jX1ISMTExdO/e3XUsPr6+hBVOZC5SrVo18vPzcWoCrsjvuvi/dpHSxD6PpRvtQCDNnprEmJhWRNgAAqnZsT+Tx4xl+N8KJreu25OCAytRHUcS3bTgF6ItvANDRnYkArAf/I0Nxv1fkko0fLxgXP0l2VRw4R3Yog9D2hdepAc1I3pcdEFgObTTfVlT/yg69GpYeDEfip8NyE7hh883FAwvKsmP+zgGWOt0ZeKQDtQMArAR0bKBYWLwr6SkAkHN6Tukg+vcNYsZS0wjG5DCzrXF+4vIX7F6zRqOHz9OWFgYzw0fTuvWrbGYzYSGhjJ0yBBGjx7NAw8+SGBgIOXLlyc3N5dNmzaxb98+465KdOTIEbKzswkMDKRKlSocOHAAgDZt2nDH7bdD4WTi6OhofH19OXz4MEeOHDHspcCB/fvJycnhpptuYugzzxAaGorFbKZuVJRrkjHAvn37SEtLo2p4OEOHDnWFm6ioKF5+6SUe6tat2F4vlJyczIkTJ/D29iY2NpZ2d92FxWymVq1aDBs2jKpVq5KVlVXiOcg4c4aTJ09iNpmoVr06hw8fJv30acLCwujRowcBAQH4+vjw+OOPU79+fbKzs9mr72EQ+V1aIvQ60RKhf4KtA6PeGEyrgtXxLpD+4wyenbQae+HqQF1rFPtW4SKOJJaNHcXcXUVLhNbEvnEafV4tWkQT2oyey/AWNpKWxzDyvYK2ZiNmM+b24pf/6WyYMoBJP5S8vGeBgtWBhrQoKTaks2n6MCassQM2oifOpledguMtOJ4kBkybSqdw43YF7NvmMXjcMuy/+xhAxvnjsrWP480hJYeY9I0zePbV1diLLxEaM4q5xo7XmZYIlYspbUuEAnTu3JmePXrgU/htwcVlZ2ez8MMPWb58Of/8xz9o0qSJsQsAB5OTGTduHE6nk/HjxlG9enW3+pGjR3nppZfIyckhLi6Om2rXdqsDZGRkMPO//2XDhpI//rCYzYwaNYoWLVpgKuEaIC0tzbWk5+89p82bN/PyK68Ym920b9+e/v36lbh9ntPJl19+yZw5cwB4qFs3evbsiZeXl6uP0+l0LbvapUsXevXs6Vo9qEh+fj4bN25k0qRJ5DmdbrXrQUuE3hi0RKhIaWZfzaTnxrPghxTSi016daSnsGHB+MIAAJDI3LETWbAxBXvR+7/TQXryBhZMGFcQAC7TppnTWLyz2FhbhxXbRS7Qz7Oz+tWRTP0yifRi44/sqYmsnDqyMAAU9Fs8YTark9NxuH5fpTD7rXlsKjYh15Gewuo5c9iQ6sDWIJrhbQu2LfExDiWRalgi275mIiOmriTJ/WBI/HIaIwoDgIhcOcuXL2fq1Kns2bsXh6Pg311eXh579u5l6tSpLF9e8DXn7773Hjt27iTP6cTpdHL69GmWL19OYmIi4eHhPNStm2tpTNd+nE4OJicz9733SE1N5fTp00yZMoWffvqJ3NyCwYlFj/XWW29dNABQuK9p06axatUqsrKyXG2HjxwhMzPTrW/x55SXVzCG0OFwsG/fPtatc/8YpCRr1qy58Jw4nZw4cYJFH33Ee+++6+rrXa4cdrsdZ+GFfFZWFqtXr2Zx4fcifPbZZ7w9ezbHjx/H6XSSn59PRkYGX375JdOmTSsVAUCkNNOdgOtEdwJELp/uBMjFlMY7ASLoTsANQ3cCRERERESkzFMIEBERERHxMAoBIiIiIiIeRiFARERERMTDKASIiIiIiHgYhQAREREREQ+jECAiIiIi4mEUAkREREREPIxCgIiIiIiIh1EIEBERERHxMAoBIiIiIiIeRiFARERERMTDKASIiIiIiHgYhQAREREREQ+jECAiIiIi4mEUAkREREREPIxCgIiIiIiIh1EIEBERERHxMAoBIiIiIiIeRiFARERERMTDKASIiIiIiHgYhQAREREREQ+jECAiIiIi4mFM9Rvfme/eYnL7Ua6OypXDqFUtlOTkg8ZSqVChQgWe6NOH3Xv2GEsi11XrO+9k8r/+xalTp4wl8WDNmjalYYMGpKalGUsi113rO+9k7Pjx5OXlkZ/vftklpUNwcDAOpze/bd9lLJVZCgHXyY0QAlo0b25slj/JZDK53viL/3/Rz0Uu9suhqM/F9lFSH6Mr8Th/VL+UPiXVi/9c1PZ7P/+6ebNCgLhp1rQpgYGBxmb5k+695x6279jBoUOHSvw3bmwrUlKtpLYiJdVKaityubWS2or8Xq0kv9f/YrXi7d+uW6cQUIopBAAKAddGaQ8BFosFHx8fY7NIqZCdnU1eXp6xWTyYj48PFovF2Cx/0vixY/ls+XI2/vKLsSR/0tmzZxUASjGFABQCrpXSHgJERMRzTX79deKXLGHDhg3GkkiZ5IkhQBODRUREREQ8jEKAiIiIiIiHUQgQEREREfEwCgEiIiIiIh5GIUBERERExMMoBIiIiIiIeBiFABERERERD6MQICIiIiLiYRQCRERExM2evXuNTSJSxigEiIiIiIh4GIUAEREREREPoxAgIiIiIuJhFAJERERERDyMQoCIiIiIiIdRCBARERER8TAKASIiIiIiHkYhQERERETEwygEiIiIiIh4GIUAEREREREPoxAgIiIiIuJhFAJERERERDyMQoCIiIiIiIdRCBARERER8TAKASIiIiIiHkYhQERERETEwygEiIiIiIh4GIUAEREREREPoxAgIiIiIuJhFAJERERERDyMQoCIiIiIiIdRCBARERER8TAKASIiIiIiHkYhQERERETEwygEiIiIiIh4GIUAEREREREPoxAgIiIiIuJhFAJERERERDyMQoCIiIiIiIdRCBARERE3N9WubWwSkTJGIUBERERExMMoBIiIiIiIeBiFABERERERD6MQICIiIiLiYRQCREREREQ8jEKAiIiIiIiHMdVvfGe+e4vJ7Ue5OipXDqNWtVCSkw8aSyIiItfUS+PG4eXlhclkwmQy4eXlxblz53A6neTn5+Pl5cXbs2ezZ+9e46YiZUJwcDAOpze/bd9lLJVZuhMgIiLi4Q4dPoy3tzdWqxUvLy8AvLy88Pb2ply5cmRlZSkAiJQxCgEiIiIebs3XX5OZmWlsdklPTzc2icgNTiFARETEw+3evZvtO3YYmwGw2+38smmTsVlEbnAKASIiIsL6H37g5MmTbm0mk4lTp06x7rvv3NpF5ManECAiIiKkpKRw8tQpTMUWCMnMzGTzli1u/USkbFAIEBEREQBWr1lDRkaG6+fUtDTWfvONWx8RKRsUAkRERAQK5wbs3LkTCu8CbNiwwdhFRMoIfU/AdaLvCRCRK+Xmm24yNon8aZWrVKFj+/ZkZGaydOlSY1nkL9m9Z4+xqVTwxO8JUAi4ThQCRORKiRs9mqysLGOziEipsmfvXj5bvtzYXCooBKAQcK0oBIjIlRI3ejQTJk4kMTHRWBIRKRX69etHcHCwQkApojkBIiIiIiIeRiFARERERMTDKASIiIiIiHgYhQAREREREQ+jECAiIiIi4mEUAkREREREPIxCgIiIiIiIh1EIEBERERHxMAoBIiIiIiIeRiFARERERMTDKASIiIiIiHgYhQAREREREQ+jECAiIiIi4mEUAkREREREPIxCgIiIiIiIh1EIEBERERHxMAoBIiIiIiIeRiFARERERMTDKASIiIiIiHgYhQAREREREQ+jECAiIiIi4mEUAkREREREPIxCgIiIiIiIh1EIEBERuQqef+45Fi1axOL4eBbHx/PxokW8M2cOTw0YgK+Pj7F7qfPss8/y4cKF9OzZ01i6aho0aMCc2bOZ+sYbhIWFGcsicgUpBIiIiFwF3uXKYTGf/zVrNpsJCAjgvvvuY9iwYW61G8Vtt93G5EmTeKxXL2NJRG4wN947kIiIyA3C4XDw7rvvEh0Tw6DBg/nyyy9xOBzUr1+fxk2aGLuXKm+++SY9evZk4cKFrrZ6detSs2ZNvLy83PpeKdu2baP/gAEMf+45UlNTjWURuYIUAkRERK6BtLQ0Zr39Nvv27cPb25uqVaoYu4iIXDOm+o3vzHdvMbn9KFdH5cph1KoWSnLyQWNJROSyxI0ezYSJE0lMTDSW5DoaPXo0TRo3Zv78+SxfsQIAi9nMq6++SmRkpFv7I488wv3330/FwEBMJhOZmZms++473nv3XfKcTiIjIxkTF0dAQABHjx0jvGpVLBYLWVlZbPr1V+bPn+/2yfldbdsS8+ijVKpUCbPJxNmzZ1m/fj1z584lKzsbi9lM//79adu2Lb6+vuTl5ZGcnMy8998HYOSIEZQvXx6Hw+E6ztGjR3NrixauxwA4e/Ysk6dMYcuWLVjMZp548knatG6Nn58fzvx8Tp44waKPP2bNmjUArucB8NGiRfTo3p3g4GAOHjxIeno6jRs3BiApKYmRo0a5HuePno+Ufv369SM4OJjPli83lkqF4OBgHE5vftu+y1gqs3QnQERE5BoIDQ2lf//+REREcObMGbbv2AFA//796dGjB8FBQZjNZkwmE/7+/nS6/35GjBjhtg9vb2+qRUZisVgA8PX15c477mDEiBEEBAQA0KVLFwYNGkTVKlWwFO7PZrPRsWNH11yE6OhoOt5zD76+vgBYLBaCgoJw5Oa6Pd6lspjNjBo1ik7334+/vz8mkwmL2UxoaChPDRhAly5d3Pp7e3vTq2dPQkJCMJlMpKalketwuPUpcinPR0Qun/7liIiIXCVWq5Unn3ySxfHxzJwxg/vuuw+Llxc//vQT+/bt49YWLWjbpg2HDh1i0uTJxMbGEhsbyxtTp3LixAkaNGhAs2bNXPvLzc0lfvFievfuTb/+/VmyZAlnz56lRvXq3N2uHf7+/tzdrh1Wq5UtCQkMGz6c3r17s2TJEnJycmjQoAEtW7bE19cXi9nMpk2b6N27N9ExMTzZrx/bd+xgy5YtPN6nD0lJSW7P5dVXX2XZsmUALFu2jOiYGB7v04ctW7bQsmVLGjRogMPh4NOlS+nduzfDhg9n06ZNeHl5uY6tSEBAAOfOnWPsuHEMGjyYOXPm8Oqrr/Luu+/iKBYGLvX5iMjlUwgQERG5Rs6ePcuCDz5gzpw5ANStVw+bzUa1yEhGjRzJokWLWLRoEc8NH05ISMgFcwfOnTvH9u3bycrO5vTp03ywYAHfr1+Pl5cX1atXp1atWoSGhnL02DFmzpxJSkoKWdnZfLBgAVu3bcPX15ebb76Zdd99R2pqKrVq1aLd3Xf/5SVLb775Znx9ffn55595//33ycrOJiUlhXnvv8+JEycIDQ2lVq1arv5Z2dksWLiQbdu2kZaWRlpamtv+ilzq8xGRy6cQICIicpUUrQ70xJNPsnv3bsr5+BAcEuKqh4eHY/qLc/Gyzp4FwLd8eSIjIrBarWRnZV2wus6Rw4dd/79v3z7GjhvHb9u389hjj/HOO+8w6Omn/3QYqFK1KgAnTpxwa09OTiYzM9OtDcCemcnBAweMzRe41OcjIpdPIUBEROQqy8jIYP4HH5CZkUHbNm1o1aoVFLuQ/WrVKqJjYi7406NnT9fk4Yvx8/ODwjCQnJKCw+HAx9f3gi/bqlatGvn5+TjzC9YDSU1N5V//+hdPDRjADxs20L5DB55++mm3bS7GYlgitOh5BAcHu7XXqlWLChUq4HQ6yS98XMDtOH7P5TwfEbk8CgEiIiLXwLZt21jx+ef4+PjQvXt3AgIC2L17N1lZWdx5xx081qsXAQEBWMxm7r33Xl579VW3ITQAJrOZqlWruibdDnzqKVq3bk1ubi7bt2/n8OHDpJ8+TVhYGD169CAgIABfHx8ef/xx6tevT3Z2Nnv37HHbZ25uLsfT0sh3OomIiHCrXcwt9eu79U1OSSEnJ4fGjRvTqVMnLGYzERER9O7dm6CgIE6cOHHBHINL8Weej4hcGoUAERGRa+TTTz7h182biYyI4OmBA/nxxx9JSEjAx8eHRx55hHfmzGHRokU8PXAgNWrUoFHDhm7b+/r4MKB/fxYtWuSaaGy1WtmyZQtr1qwhLS2N//3vf+SdO8ddbdvyzpw5zJ8/n4e6dcNqtbJt2zZ+/PFH7rj9dua//z6L4+NZtGgR0dHReHl5cfgPhtgcPnyY3NxcatSowbSpU1kcH8+okSP5Zu1aEhISsNlsruObNnUqjRs1wuFw8PXatWRkZBh394cu9fmIyOVTCBAREblG8pxOFi1aRFpaGk2bNuWBBx9kypQpfPTRR5w4edI1bMZut/Prr7+yecsWt+0dDgdpaWnkFeu3atUqpk2bRp7TCcBnn33G27Nnc/z4cdf+MjIy+PLLL139fHx9OXv2rGub3NxcfvrpJ+Z/8IHb4xmtWbOGlV984VqbPy8vDz8/P/KcTqZNm8aqVavIysoqqDmdHD5yhLdnz+azzz4z7OnSXcrzEZHLpy8Lu070ZWEicqXoy8LKvqIv2bLZbK4v5xK5kejLwkof3QkQEREREfEwCgEiIiIiIh5GIUBERERExMMoBIiIiJRyycnJDBo8mMf79NF8ABG5IhQCREREREQ8jEKAiIiIiIiHUQgQEREREfEwCgEiIiIiIh5GIUBERERExMMoBIiIiIiIeBiFABERERERD6MQICIiIiLiYRQCREREpExr1KgR7777LpNef52AgABjWcQjKQSIiIhHs5jNPP/cc/Ts2ROAyMhIZs6YwcwZM4iMjDR2v6r69unD4vh4+vbpYyzJRTRo0IA5s2cz9Y03CAsLM5YB6NihA2aTicVLlnD69Glj+Q/17NmToUOGYDHrsknKDv1tFhERj/bEk09Sr149tm7daizJX1CnTh1eGj+e54YPN5auqUaNGtGgQQO+//57NmzYYCxfkj27d9O8eXOeePJJY0nkhqUQICIiHuvWFi1o26YNO3bsYNu2bcay/AV1br6ZOnXqUM7Hx1i6orZt20b/AQMY/txzpKamGsskJCTQr39/Zr39trF0yX7euJGkpCTuvOMOGjRoYCyL3JAUAkRExGO1adMGq9XK5i1bjCURN7/++ivly5enY4cOxpLIDclUv/Gd+e4tJrcf5eqoXDmMWtVCSU4+aCyJiFyWuNGjmTBxIomJicaS/I7IyEjGxMVhMpmYOHEiBw4WvB8XtQNMmDiR5ORkGjduzIjnn2fz5s0EBQdTp04dLGYzWVlZrF+/Hh9fX5o1bYqvry+5ubn8/PPPzJgxg6zsbNf+AgICOHrsGOFVq2KxWMjKymLTr78yf/581yfYffv0oWvXrixbtoy58+a5jjUiIoIB/fsTFRWFt7c3eXl5JO3fz4IPPmBLQoJr23vvvZcvvvySNm3aEFSxIvn5+Zw8eZJVq1bR4tZbqVmjBmazmTNnzrDkk09Yvny56zEsZjNPPPkkbVq3xs/Pj/z8fE6lp/PFF1+wZMkSANd5+PHHH7HZbDRt2hRvb2+ysrL49ttvmTNnDnlOp+t5FOdwOJg/fz7LV6yg92OP0a1bN8yFY+zz8vI4evQoCxYudBuyYzGbefjhh7n33nsJrFgRs8lEZmYm33//PfPnz2fY8OHc2qIFAElJSYwcNcq17V1t2xLz6KNUqlQJs8nE2bNnWb9+PXPnznV7XQ4fPszRo0dp27at6/X79ddf+e+sWW7zB2666Sb+74UXyMnN5aWXXirxroNcXL9+/QgODuazYn/nSpPg4GAcTm9+277LWCqzdCdAREQ80i233EJgYCCZmZmkpKQYyxcwmUzceeed1Ktb1zVB1NfXlw4dOnDnHXfg6+sLgLe3N7fffjvR0dFu23t7e1MtMhKLxeLa9s477mDEiBG/u2JNrVq1GBMXR8OGDfH29gbAYrFwU+3aDH/uOZo3b+7q6+Pjw0PduhEcFITJZMJsNhMSEkKPHj24qXZtLBYLJpOJgIAAoqOjadSoUcH+zGZGjRpFp/vvx9/f37VtcFAQPXr04Im+fV2PYTKZaNeuHbfddpvreIrOQ5cuXVz9fk/C1q1k2u2uny0WC+Hh4Qx86inXcJuiY+rRowfBwcFYzGZMJhP+/v7cceed3FynTrE9uuvSpQuDBg2iapUqru1sNhsdO3Zk2LBhbhN8GzZsyL333uv2+t1222306N692B7h2LFj2O12gipW1JAgKRMUAkRExCNVCgvDarWSnZ1NntNpLJcoLS2N4c89R3RMDFOmTOHEiRMA7N+/nxEjRzJ4yBAStm7FbDZTr149t21zc3OJX7yY3r17069/f5YsWcLZs2epUb06d7dr59a3uNjYWAIDA/nyyy8ZNHgw0TExDBo8mG+//RabzcY999zj1v/njRuJjomhd+/efLp0KQ6Hgzynk7XffEPv3r159dVXOXHiBH42G7fccgsAnTp1okmTJmzfvp3xL73k2v7d994j6+xZWrVq5bZSUl5eHqvXrKFf//4MGz6cvXv34uXlRd3C5zx33jzeffddHA6H63h69OzJ8hUroHCc/pNPPkl0TAzRMTEMGz6c/fv34+/vT8OGDd2OKScnh0+XLqVf//7069+fVatXs2P7dhISEnj11Vddj1PE39+fu9u1w2q1siUhgWHDh9O7d2+WLFlCTk4ODRo0oGXLlq7++cDGX35h2PDh9Ovfn19++QWAm2++2dUHICMjg3PnzuHt7U14eLhbTeRGpBAgIiIeqUrVqgBkZGYaS5dk/Q8/sC8pCYfDwddff83+/ftJTU3ll40bcTgclCtXzq3/uXPn2L59O1nZ2Zw+fZoPFizg+/Xr8fLyonr16m59i1SpUoXq1arh7e3Nfffdx8wZM1gcH8/MGTNo27YtFrOZkOBg42YAZGVns3btWtLT0zl54gSffvopWdnZ/LxxI/uSkjCbzXhbrQDUq1cPq9XKLbfcwtgXX2RxfDzz58/nySeewM/PD5vNRlBQkGvf6enpLF++nNOnT5OSksKPP/1EXl4e5QrvDFyK9u3b8+9//5tFixYxbepUahQOVSp+TF5eXnz77be8//77nD59mtOnTzNjxgxenzTJuDuXWrVqERoaytFjx5g5cyYpKSlkZWfzwYIFbN22DV9fX7cL/JzsbFauXElKSgqnT5/mm2++IScnBy8vL/z9/d32ffLkSdddBZEbnUKAiIjIdZJ19iwAvuXLG0sAhIWF4efnZ2y+4ipVqmRsuiw52dk4nc4LLpovpn///m7DdUpSqVIlzp07x6FDh4yl3xUZEVFwhycr64Jx+0cOH3b7uSSZdjtOpxMfHx8CAwPdas78gmmUxnaRG1HJ//JERETKuKIL8Oup6ALfeCwWLy8o/OTZbrdz8uRJ/m/0aNfwmeJ/ik+G/bOOnzhBXl4eCxYuvGD/0TExPN6nD1v+5ApKZsOCI7Vq1aLlbbfhzMtjzZo1riFOP2/c6Nbv+IkTWCyWy77gTk5JweFw4OPre8GXh1WrVo38/HzXxfzl8i98vS4lTIiUdgoBIiLikU6eOkV+fr7rwu5qM5nNVK1aFYvZTGhoKAOfeorWrVuTm5vL9u3b3fo2bdqUGjVqkJyczKFDh6hYsSL9+/VzTeSNiIhg9OjR9OvXz227P2vnjh3k5+fzQKdOdOrUCV8fH3x9fOjVs+f/b+/ew6IsEz6O/4aT4EigEp4AxVJcz+HxbctKd1/zsLgb7K7WKprmqr2blodM90p0y13TdrUtLcVSMi0D3bQ0Ld1VS7FN85SJBzBFQVBEcYQYgfcPYGSe1PKQIvf3c138wX0/MwyU1zXfee7nfjRl8uQf/Qn/pTRs2NDtQlp/f3/5+fnJ4XBoS3KysrOz3Y4vl3rokEokde/eXY89+qgCAgJcr+n555+/7BmE48ePK/fMGQUHB6tv376ux/Xv31/NmzdXQUGBDh08aH3Yj1KtWjUVFxersMI1CMDt6tL/ggAAqOKOHTumwsLC763d/6n4+fpqyODBWrp0qV6fM0fdu3cvvXh1506tX79eKntNBQUFql+vnv4yZYratGmjTz79VGfPnlXTpk1d6/VnzZypDu3bq2WLFtf1Br3cv//zH6WlpSkgIEBDBg/WokWLtGjRIkVHR6tx48ZqdQ274Rw5elT5BQUKCgrS5Lg4JSUmatq0aUpNTVV2drYCAwM1ccIEJSUmKikx0bXVZ8NGjeTp4aE1a9cqLS1N1atX1yOPPKI35893vabw8HC1uMxrys7O1tq1a1V04YIe6NLF9bhf9+kjb29v7dmzR1u3brU+7Af5+/vLy8tLhYWFOvLtt9Zp4LZDBAAAjHTgwAGdPXtW/v7+ahgWZp2+4ZxOp7Kzs1VUXKySkhI5HA59+umnmjVrlmt3ok/XrdNHH32kvLw8lZQtWUlOTtaUv/xFe/bsUWFhoVS2O09GRob+s2GDzlfYavNanTlzRpMnT9aaNWtcP7u4uFhnzpzRli1bdPDQIetDftCuXbuUlJSks3l5kqSi4mJ5e3mpht2uhQsX6sjRoyouLlZRcbFOnTql95Yu1bFjx/SzZs3Uo0cPnTlzRnGTJumTTz6Rw+Fwe02bP/9cB/Zffj/3lStXal58vE6ePKnisr93Xl6e1qxZ4/b3vhp16tSR3W5XzunT2n/ggHUauO1ws7BbhJuFAbhRuFnYtXumbJ/92bNn6/PNm63TN0T5TansdrtmvPzyNa+tx63VtWtXDX78cW3cuFFvzJ1rncYP4GZhlQ9nAgAAxlr7ySeuveOBK2nbpo3Onz+v/2zYYJ0CbktEAADAWHv27NHGjRsVGRmpiIgI6zQgSWrZsqWaNGmiFStXcsYNVQYRAAAw2ttvv63//ve/ioyMtE4BkqTmP/uZNm/ZopUrV1qngNsWEQAAMFpRcbHi58/XkiVLrFM3xNGjRzVs+PDr2msft9bS99/X22+/bR0GbmtEAAAAAGAYIgAAAAAwDBEAAAAAGIYIAAAAAAxDBAAAAACGIQIAAAAAwxABAAAAgGGIAAAAAMAwRAAAAABgGCIAAAAAMAwRAAAAABiGCAAAAAAMQwQAAAAAhiECAAAAAMMQAQAAAIBhiAAAAADAMO4RYLO5fQsAAACg6uFMAAAAAGAYIgAAAAAwjK15m5+XXPyO5UA3S926wWocdqeOHj1inQKAqzJh/Hilp6dbh4Fr5uFR+hlhcXGxdQq4Zqdzc7Xyww+tw5VC7dq15Sz20dd791unqiwi4BYhAgDcKO0iI61DwHX53W9/qy+3bVNqaqp1Crgu27Zvtw5VCkQAEXDTEAEAgMpqxksvKXHZMiUnJ1ungCrJxAjgmgAAAADAMEQAAAAAYBgiAAAAADAMEQAAAAAYhggAAAAADEMEAAAAAIYhAgAAAADDEAEAAACAYYgAAAAAwDBEAAAAAGAYIgAAAAAwDBEAAAAAGIYIAAAAAAxDBAAAAACGIQIAAAAAwxABAAAAgGGIAAAAAMAwRAAAAABgGCIAAAAAMAwRAAAAABiGCAAAAAAMQwQAAAA3Bw8dsg4BqGKIAAAAAMAwRAAAAABgGCIAAAAAMIyteZufl1z8zuY2iZ9O3brBahx2pzIyjlunAAC4pZ4YMkS7du3S1i++sE4BVVJAQICcxT76eu9+61SVRQTcInXrBqtZk0bWYQAAbrmo3g/r4KE07f0mxToFVFnZp3KJAPz0PD09rUMAAFQKE599Sslbt2vdfz6zTgFVWlFRkXWoyiICAACAm+efG6XNW7fp0/WbrFMAqgguDAYAAAAMQwQAAAAAhiECAAAAAMMQAQAAAIBhiAAAAADAMEQAAAAAYBgiAAAAADAMEQAAAAAYhggAAAAADEMEAAAAAIYhAgAAAADDEAEAAACAYYgAAAAAwDBEAAAAAGCYixFgs7lNAAAAAKiaOBMAAAAAGIYIAAAAAAxDBAAAAACGIQIAAAAAwxABAAAAgGGIAAAAAMAwRAAAAABgGCIAAAAAMAwRAAAAABiGCAAAAAAMUxoBNpt1HAAAAEAVxZkAAAAAwDBEAAAAAGAYIgAAAAAwDBEAAAAAGIYIAAAAAAxDBAAAAACG8WB7UAAAAMAsnAkAAAAADEMEAAAAAIYhAgAAAADDEAEAAACAYYgAAAAAwDBEAAAAAGAYIgAAAAAwDBEAAAAAGIYIAAAAAAxDBAAAAACGIQIAAAAAwxABAAAAgGGIAAAAAMAwRAAAAABgGCIAAAAAMAwRAAAAABiGCAAAAAAMQwQAAAAAhiECAAAAAMMQAQAAAIBhiAAAAADAMLbmbe8rsQ4CAHAlzZreZR1CFTKw/++05+sUfbl9p3UKVcTp3LM6kZVtHYZBiAAAwFVr3SJCnh6F1mFUEePHjdPHa9Zox04ioCqqbvfXwdQMIsBwRAAA4Kq1bhEhmwqUk5NjnUIVMOOll5S4bJmSk5OtU6gCwhqGEwHgmgAAAADANEQAAAAAYBgiAAAAADAMEQAAAAAYhggAAAAADMPuQACAq2b67kAtWrbUmHFjVTsoyDVWXFysk9nZWr1qtZLef9/t+Mrooa5dNezJETqZna0nhw13m7uW3YEe6/8HRf/2t/Ly8pIklZSUKD8/X4fT0vTeu+/pq23brA/BLcLuQBBnAgAAuHqenp6y2WxuYx4eHgquU0f9HntUMb/7nduciWw2m6pXr67mLVpo/ITn1O+xx6yH/CjDRgzX6/Hz9MCDD1qnAFwHIgAAgGuUc+qU/vzcBEX17KWxz4zWN998Ix8fH7Vq3cp6qDF27dihqJ69NGhArOa+/oYOp6XJ19dXPXv1VOd777Ue/oNatW6tmjVrysODtyzAjcS/KAAAboCUfft0ICVFRUVF1ikjnTp5Uh+uWKHp017St4cP646AAN1338+thwG4RbgmAABw1Uy/JqB1mzZ6ZsxoSdLfZ7ysXTt36oEHH9Tv+/XVHQEBWvjmW/pk7Vr5+fnpry9NU+O77nI99rvvvtPBAwe04M23lLJvnyQpNCxMQ4Y+oRYtW8rHx0eFhYX69vBhLXxrgXbt3ClJerBrV0XHRCskNFSenp4qLCxUWmqqFi5YqD27drme/3IGDX5cXbt10x0BASopKdGJzEzVDgrSicxMt2sCBg1+XC0imim4Xj0F1Koph8OhL7Zu1Ruz5yg/P9/tOSsqvyZg7549+vOEiZecyzh+XE8OG66IZs00bvyzujM4WKpw/cCunTv1xpzXderkSdffuFbt2m7PdfTIEdfrDQ0L06DHB6lFq1by8/NTUVGRMjMytCxpmT5Zs0Yq+7v17ddXdevVk81mk8Ph0Ffbt2tRQoIyjme4PbcpuCYA4kwAAADXrlbt2nrhr1O1YtVHGj1urHx9fbXkncX6ZO1aSVJ+fr5SUlJUUnLx87Zq1aqpRcuWGjp8mPz8/CRJ/Qf0V9t77pGPj48kycfHRwEBAa433T169tTQ4cPUsFEjeXp6uo6JaNZMz4x+Rq3btHE9/6WMGv2M+vzmNwoIDJTNZpOHh4fq1a/v+nnW4yRJttJ1/TVq1NBDXbtq/MQJbsdejePHjsvpdMput6t1mzZK2bdP3x4+7Jovv36gU+fOGv7kCLfHXk5oWJjGPjtO7Tt2dP0dPT091SAkRIOGDFaPnj3VpGlTPfrYo6rfoIE8PDxcv081Hx95yP2aDsA0RAAAADdI0J13asjQJzTuufGusTmvvqY+vXorqmcvRfXspQVvviWHw6G6desqsn17SVL16tUlSZs2bNDvo2MU1bOXhgx6XAf271f9Bg3Us3cv2SSt+Ne/9OSw4Yrq2UuTn5+kvXv3qnZQkB546PIXzT7w4IPq2KmTSkpKlLxli0aPelqDBsRq7Zo1unDhguu47g8/rI6dOyszo/TT8fg35ur30TGa+8Zcnc7JUUSzZur2y19WeObrMyVusutv8vvoGH2wfLmKiorUqFEjNWnaVLt27tTA/gN09MgR5efn6x8zXlZUz16uswBdu3VVSGioHA6HlryzWL+PjtHUF17U4bQ01bDb1eXBB+Tn5ycfHx85HA7Fz53n+nkvTPmLjh0/bn1JgFGIAAAArlHFC4NHj3paq1etUmFhodq1b6+evXtLkmoHBemZMaO1eOl7+uCjDzXw8UGy2+3y8vKSj7e3JOnzzz6X4/x5NYmIULf//V/XJ9uS1KRJEwXdeafsdruifv1rvfb6HK1Y9ZEmTZms5s2by2azqU7ZsppLad22jex2u77evVtT//KCDuzfr1MnT+rr3XvkdDpdx93V5G7Zq1dX/QYNJElD/jhU7yUlaugfh6pW7dry8fFR3bp1Kjzzj1e+beh3332nkydPSpIimjXTpMlxei8pUe8lJarPb34jLy8veXl5uf3+l9OkSRN5enpq44YNWvLOO8rPz1fy5s364F8f6Pz586pXr54kaceOHapWrZo6duqodmXRBYAIAADghjiwf7/mvPqaDh44IF9fXzUKb6TQsDBNmhynB7t2VY0aNb63rWi51atWafrfpulMbq4eH/y43kxYqKHD/ig/Pz+FhIaoWrVq1of8aHWCg2Wz2XTixAnrlJv6ZWvmfwp3N20iX19f5Z45o+PHjqld+/YaP+E5tevQ4Ue94b+UmrVqqaioSGfPnHEbz87KUkGFaxdmvvx3vfP2ItWrV0/PT47T3Pnx+mX37goICHB7HGAaIgAAgBvMZrPJ08PDtWTl7NmzWvLOYg0aEKs/PzdBOadOWR+ir7Zt09hnRuu5cc/qyJEj6tm7t2IHDXStp884flzDnhjqWtJS8ct6IW5FBQUFkqSaNWtap9yUR8KmjRslSbNffc3tZzwS1UfvvL3I8qgf1q59e3Xs2FGSlHbokCTpoa4PqVbt2srMzNTcsmVH/5jx8hUvPC4/m1DudE6OPD09dYflzXxIaKj8qldXSUmJa6empPff1+CBg/TqK/+Ur5+fBj4+SJHt2rk9DjANEQAAwA3QpGlTPTN2jCKaNVNhYaGOHTuuO+64Q15eXjqRmanPNm3SqbKlMFdy8uRJnTl9WjabTSEhIUpJSVHOqVOqU7euRvzfk64lLZ3vvVcz/vF3DRgYa30KN0ePHtWFCxfUum1bjfjT/yk0LEy1g4LUpMnd8i5bjiRJhw6lKj8/X+07dJAk1apZU35+fvpdv3565bVXr3opTe2gIPV77DGNeuZp1Q4KUtaJE/r3+n9LkgLLLlD+9vBhbfn88yu++ZckX19f3dMu0u0Ozenp6ZKkTp06uZZedb73XvX+VW/5+fkpMzNTX+/Z4zpekjIyMpR//rz8/PwUWDPQbQ4wDVuEAgCuGluEXnr7SpVtd7lrxw5NfeFFPdStm2IHDbzkkpcLFy7oo5UrNX9evGIHDXStiS9XUlKij1ev1pxXX9Mf+v9Bv46O/t5uPpL09Z49em7cs9Zhl/JddBqFh1unpApbbvr5+Wn8xAlqe889OvD1XgXXr6fAWrWkstf6wfLlWvjWAuvDXcq3AbV+Yi9JZ3JzlbBgoWvXpEv9vuUKCgqUsDBBH37wgSTp+bhJal92JkGSnE6n3n9vqT7/7LPL/l7nHA69/dYCrV61Sn99aZpatGzpPn/unOLfmKv169a5jZuCLUIhSZ531g2Lsw4CAHAldYKDZNOFH/wEt6qqU7eu/ufee+VXtquPyt605+XlaeOGDXrlHzOVn5+vA/v3KzAwQA1CQuTj4yOn06kj336r5C1bFBoaqgYNGig1NVWNGjVyHWOz2VwXuS56e5Hyz5/Xrl27dPp0rurWrSN/f395eHjI6XTqWHq6Nm3cpH3ffOP2+io6e+aMUlNTVSc4WLVq15anp2fpfvqZmapWrZoc586pU7v2+vm996rkQpFyT+XIw8NDBefzdfrUKZ0+eUqnTmQpNe2wvtm71/r0Lq3btFbzFi1cd/YtLi5WXl6evvziC819Y66+2LrVdez+lBTVqVtH9erXl5eXl7777jul7NunlG++UWhYmOrVq6tVH34kScrMPKGGDRuqVq1astlsKioqUvqRI/r3+vWX/L2OHjmi95a8qzUff6z6DRqoY8cOCggMlJeXl0pKSnQ6J0f/Wv4vJW/ebOz/vwGBNZVz+pwcjvPWKRiEMwEAgKtm+pmAquapP/1JYaGh1mGX8+fP6/k4PjOsKjgTAHFNAAAA2LZtmxwOh3XY5UpzAG5PRAAAAIb7fPNmncjKsg5LZXv7b9y0yToM4DZHBAAAAO3YseOSn/jn5ORoS3KydRjAbY4IAAAA2rxli7ItW5jm5+fr8Lffuo0BqBqIAAAAIEn68ssvde7cOdf35xwOJS1b5nYMgKqBCAAAAJKk5K1bdfr0aUlSYWGhtlbY1hNA1UIEAACqHJvNxtc1fm3/6isVFBTodG6uNmzc+L15vn78F1CZcZ8AAMBVq+z3CegTFaWOHTpYh4GbZv6bbyo1Lc06XClwnwCICAAAXIvbIQIyMzL08Zo11ingJ/fiCy9o2fLlRAAqNSIAAHDVbpcIWJiQYJ0CfnLx8+YRAaj0uCYAAAAAMAwRAAAAABiGCAAAAAAMQwQAAAAAhiECAAAAAMMQAQAAAIBhiAAAAADAMEQAAAAAYBgiAAAAADAMEQAAAAAYhggAAAAADEMEAAAAAIYhAgAAAADDEAEAAACAYYgAAAAAwDBEAAAAAGAYIgAAAAAwDBEAAAAAGIYIAAAAAAxDBAAAAACGIQIAAAAAwxABAAAAgGFszdveV2IdBADgSlq3iJBNBcrJybFOVQp9oqKUmZGhhQkJ1qlbo8sEJTwVKXuFIWdBrk7s36IV89/VumOOCjNVg71ltEY9EaXIBmW/tdOhrG8+1uyXl2h3hV/X3jJaIwb3ULsGgfL2kFTslONkqjYunq74z3IvHigpdkaiohqlaUXMWC10m6lc4ufN07Lly5WalmadqhTCGobrYGqGTmRlW6dgEM4EAABwC3j7BiqkdQ+N+Mcsje1aMQ+uU2g3jXhhtmaNvt86c/OEDtDkif0uBoAkedsVHB6uwIoB0HWMXnm+nzqHlgWAJHl4yx4coR6j5mjGwIiLBwO4oYgAAABuEseXsxQdE6PomCEa83KCNh11Sh6B6tynr0KsB1+r8E7q3CxYNb2tEzdPSK/OCveWnIdX68WhMWW/c4yiB03VJtdR92tU/84K9JBydy3R9JGxio6J0YCRM7T4yyw55a3w3iM1oqnbUwO4QYgAAABuulylbVmhmU8nKsUp6Y46CrcectOEKPaFFxV7A99shweWngFI3zNf2y+zYsze92G18pec+5foqSlJSi5bEuU4lqykv43VvK8ckoLV+ZFbeEYDqMKIAAAAbhW7j2UgQlGjZ2r+kkQlJSYqaekSJcyaoOiWFZcLRShq/EwlLC0/ZqHmTBus+yVp4HQllV17YG8/snQ+caEmdil/rF2dB093e/75syaoW7MIdflV59JDukxQQmKiEsbfr4i+L2p+2c+ZNax8aY5dnQe/qDkLy54jMVHvxs/U2D4Xl+5sOpgup6SQNoPV6jIrnR5u3Vjecmj3x0n6/hURDq1LSFaWJHtYpFpZpwFcNyIAAICbLlDh/xOtidOjFOEtOTNStEkRip0Rp9j/CVFg+VIeD2/ZG0Tq0Ylxrk/qWz01UrHtQ2R3raG3K9i/htwvob20yFHTNbZHuNvzBzYIlt2xW4kvJ7sfHBSlcTERCvSQJIey9qZIsqvb+Fka2yNCwRWX+weGqHP/OM3oX7aoKfFjbcuRvEN7KO6NeE19optC3GKgsxoHe0vKUvrGiuMVHN2j9DxJdwTewrMkQNVFBAAAcJNc/HQ+XjNG91NksLfkTNPqBUlS977q1shbcqZr3exRGhATowEj52j1YYfkHa5ufXtIkgKr2yU5lb5msgaUr7UfMUu7JWnBWEW/sl0Ot+sPYvXiRkmKUlT7YEm52v3uVA2OidGAuCXanSvJ3kydeltea6Nw6av5Ghkbo8HPxum1jZK6jFRs+0Dl7luh2c8OuXh9w+vrlO70VnjXAaVnJLRJ05+erMVb0uXwCVRE9+Ga9dZCTX20VdkOSd7y8XT/eZflW0M1rWMArhsRAADAreB0KGvfOsVPGquF+6X772ksu5xK+WCiZq9PL30jf2yd4ietU5oke/g9ul/SpmXrlOb0Vp17fqWHO4W4bTt6ZYGq4SspL1XrErcrV5JjT5LWHXRI8laNIMvhmev00ourle6Qcg+lKVdS506NZZcU2CxKI6bFXwyaYd0U4i3Jv6Yalz/esVtJL4/SgEGjNHtNmhyyK+KRCZoYY5eUK0e+JHnL+7K/QNlSqbzTSrdOAbhuRAAAADfJxU/nYxTdL1bD/zxHq/eXzjUOsksqlOO4ZYW8I02n8yp8vz9BY56cpU9zQtRn9EwlLJqtiY+Uf8J+JV8pPUuSf4S6xUQqUJK9QQ91udsuyaFzGe5HOzL2K8V9SBF1Ai0jP4IjXevmjdXwhN1yyFsRHaIl7dbRXKekOmpceoLj+9rfo8b+kvIdyrLOAbhuRAAAAJVA6kmHJB/Z61vezoc2VbC/pKJCOcvHcjYp/s8jNGDQZC0+aFfko+WfsFfgab3oeLfmJSYrt9iuVn0naH5iohJmDVZkoKSs7VqxxnJ4UaFloPw1OrV7QYVtP92+Ln8TL8eHaaVv5msHq7Okj3elyilvRTw4XN+/G4BdUb1bKVBS7qFNpUudANxQRAAAAJVA6Y463or4xRhF31P6ibu9QTeNGPMLhUhyHPlalkt3JcdRpeWULucJuTvSbcp+933qUfFmXZIc61dq1fasizFR7FTuodWaPnaWtrsdeWmbvkqVQ95q9dvpGvKLcJW+ykBFxkzQnGmDL3+vg1qRio7ronBJzqw0JUtyvPuxdudJqttNE6cNVrey1xp4VzcNmTZbsS3tktK1ZemPeWUArpatedv7SqyDAABcSesWEbKpQDk5l9kE/hbrExWlzIwMLUxIsE7dGl0mKOGpSOnLWRrwt4u3y3JXujtQVKNL3OXLmaYVZdcOqPskJTxhXf7jVEriEE141yHZ+2lqfLQiKj7NoRWKfjZBkaNma2LLdM0eN1XrLvef7oqvNUKx0+IUddclXqPStfrpUYo/KqnLGM1/qnNZJFRQnKvkV4doetmOQPauY/TKsNIbhn2fU2kfxmnMgouLkmJnJCqqkdtBF+Vt15BBU3XaOn4LxM+bp2XLlys1Lc06VSmENQzXwdQMncjKtk7BIJf8ZwcAAG62FC2cNFWLv0yXo7hsqNip3KPJWvxiXGkASArxd8qR5/osX3LmKm3NbL30btm1BI4lemlBstIrXFrg9K2pSEkhgTWlwEiNmHtxj/+kxEQlzJqgqB91s7AULXx2uGauSVFWxefPy1LK+jXaWh4We7Zqy76s7/8eU0a6AkCSHOtn6KkpS5R8NFfO8mPL5w5/qtXbC78fEgBuCM4EAACuGmcCblNdRmrO0PsV7GudkHRstUaOnH/rd+JpGqW4MQPUqpZlPG+7Zg6aKuu5icqIMwG4HXAmAAAAY3hLubu14vWxGlx2D4GRrySX3mjsjjqV46Zc+1cobugQzfxgu1KO5cpZUDZ+Kv22CADgdsGZAADAVeNMwO3p0WmJir7LOloqd+ssDZ7O2+wbgTMBuB1wJgAAAEMsnjJZ8eut6/nTtXvZDD1FAABGIQIAADCFY7dWz56o4bEX9/bvO2iU4hYny3KLMgBVHBEAAAAAGIYIAAAAAAxDBAAAAACGIQIAAAAAwxABAAAAgGGIAAAAAMAwRAAAAABgGCIAAAAAMAwRAAAAABiGCAAAAAAMQwQAAAAAhiECAAAAAMMQAQAAAIBhiAAAAADAMEQAAAAAYBgiAAAAADAMEQAAAAAYhggAAAAADGNr3va+EusgAABX0rpFhGwqUE5OjnWqUugTFaXMjAy9t3SpdQr4yb36z39q2fLlSk1Ls05VCmENw3UwNUMnsrKtUzAIEQAAuGq3QwR07NDBOgzcNPPffJMIQKVGBAAArlpljwB/f3/rEHDT5eXlWYcqBSIAIgIAANeiskeAp6endQi46YqKiqxDlQIRABEBAIBrUdkjAMDlEQEQuwMBAAAA5iECAAAAAMMQAQAAAIBhiAAAAADAMEQAAAAAYBgiAAAAADAMEQAAAAAYhggAAAAADEMEAAAAAIYhAgAAAADDEAEAAACAYYgAAAAAwDBEAAAAAGAYIgAAAAAwDBEAAAAAGIYIAAAAAAxDBAAAAACGIQIAAAAAwxABAAAAgGGIAAAAAMAwRAAAAABgGCIAAAAAMAwRAAAAABiGCAAAAAAMY2ve9r4S6yAAAFfSukWEbCpQSXGxdQpAJecfUFMHUzN0IivbOgWDEAEAgKvWukWEbDabdRjAbSIz6xQRYDgiAAAAADAM1wQAAAAAhiECAAAAAMMQAQAAAIBhiAAAAADAMEQAAAAAYBgiAAAAADAMEQAAAAAYhggAAAAADEMEAAAAAIYhAgAAAADDEAEAAACAYYgAAAAAwDBEAAAAAGAYIgAAAAAwDBEAAAAAGIYIAAAAAAxDBAAAAACGIQIAAAAAwxABAAAAgGGIAAAAAMAwRAAAAABgGCIAAAAAMAwRAAAAABiGCAAAAAAMQwQAAAAAhiECAAAAAMMQAQAAAIBhiAAAAADAMEQAAAAAYBgiAAAAADAMEQAAAAAYhggAAAAADEMEAAAAAIYhAgAAAADDEAEAAACAYYgAAAAAwDBEAAAAAGAYIgAAAAAwDBEAAAAAGIYIAAAAAAxDBAAAAACGIQIAAAAAwxABAAAAgGGIAAAAAMAwRAAAAABgmP8HKLQubvA8CjIAAAAASUVORK5CYII=;" vertex="1" parent="1">
                    <mxGeometry x="-769" y="-440" width="769" height="753" as="geometry"/>
                </mxCell>
                <mxCell id="3" value="" style="shape=image;verticalLabelPosition=bottom;labelBackgroundColor=default;verticalAlign=top;aspect=fixed;imageAspect=0;image=data:image/png,iVBORw0KGgoAAAANSUhEUgAAA84AAAGJCAYAAABb12qlAAAAAXNSR0IArs4c6QAAAARnQU1BAACxjwv8YQUAAAAJcEhZcwAADsMAAA7DAcdvqGQAAHedSURBVHhe7d1/fM11/8fxx36c2ZzNZpsN22SUSUioVKhMSXVRbS0Uqkl+dIXQ1cV1RT/4KrqauvxIlh8Jra3rIj9STUU/6BL5kYxs2PwaszHHxrHt+8fZjnM+OEbZD573283txvv1Pp/z+Zw5n53n+bzf749bs1btSxARERERERGRc3I3NoiIiIiIiIjIGQrOIiIiIiIiIi4oOIuIiIiIiIi4oOAsIiIiIiIi4oKCs4iIiIiIiIgLCs4iIiIiIiIiLig4i4iIiIiIiLig4CwiIiIiIiLigoKziIiIiIiIiAsKziIiIiIiIiIuKDiLiIiIiIiIuKDgLCIiIiIiIuKCgrOIiIiIiIiICwrOIiIiIiIiIi4oOIuIiIiIiIi4oOAsIiIiIiIi4oKCs4iIiIiIiIgLCs4iIiIiIiIiLig4i4iIiIiIiLig4CwiIiIiIiLigoKziIiIiIiIiAsKziIiIiIiIiIuKDiLiIiIiIiIuKDgLCIiIiIiIuKCgrOIiIiIiIiICwrOIiIiIiIiIi4oOIuIiIiIiIi4oOAsIiIiIiIi4oKCs4iIiIiIiIgLCs4iIiIiIiIiLig4i4iIiIiIiLig4CwiIiIiIiLigoKziIiIiIiIiAsKziIiIiIiIiIuKDiLiIiIiIiIuKDgLCIiIiIiIuKCgrOIiIiIiIiICwrOIiIiIiIiIi4oOIuIiIiIiIi4oOAsIiIiIiIi4oKCs4iIiIiIiIgLCs4iIiIiIiIiLig4i4iIiIiIiLig4CwiIiIiIiLigoKziIiIiIiIiAsKziIiIiIiIiIuKDiLiIiIiIiIuKDgLCIiIiIiIuKCgrOIiIiIiIiICwrOIiIiIiIiIi4oOIuIiIiIiIi44NasVfsSY2N51AkOoknjBsZmERERERERkUuWtf8Qu/dkGZsr1R8KztdGhnLoULaxJCIiIiIiInLRAmvX5mBOwZUXnLOyMo0lERERERERkYtWr27dKhmcNcdZRERERERExAUFZxEREREREREXFJxFREREREREXFBwFhEREREREXFBwVlERC67x3s/waeLF7F42VIWL1vKoqVLWPBJEhMmvkm72283dr+sXh8/jsXLlvLXIc8bS3+qsmN+ffw4Y4mWN97I7A/nMvvDubS88UZj2aVR//wHny5exIBBA42ly6Kin09ERKQqUnAWEZEK5+bmhtlsptkNNzDixZE80fsJYxe5CAMGDWT6zPe58667jCURERH5Eyg4i4hIhdn0yy90u/8BnurTlxnT3yMrMxOTycQdHTpQPyzM2F3OYfxrr/NIt+5MnzrN3taiZUtq166Nu/uf/2v9XM8nIiJytfnzf8OKiIhcQM7hwyxZvJiP5n3E8ePH8fHxITg42NhNREREpEpwa9aqfYmxsTzqBAdxbWQoWVmZxpKIiIiTx3s/Qcyjj7J1yxb+MWq0vf3Ou+7i2UEDOXXyJOkZGbRt25Yvv/gCf39/WrdpA8BnixbRuHFjmjVvTsonn/DRh/Psj399/Dindh8fH54dNJBbbr0Vs9kMwNG8PL5euZJZiR/YH9OyVSt2ZWRQJyQEs9nMqVOnyEhPZ87sOWzZtAmAgc8N5r6uXXFzcwOgqKiIQ9nZ/PfT/7Bs6VIAuj/8MA8/8jC1AwMBOHb0KN98/TWJ78887zFTOsf5hRHDAfjXpLcICgri2UED2bB+PTVr1uSG5s3x8vKioKCAtWvWMO3fU2h3220MGDwIHx8fTp8+Tconn7B502ZeGDGcwKAgp+1n7tnD4AEDiY2Lo0evnnh5eQFQXFzM0bw8Pl++nAUfzQfDz2bf/v3c3akTXl5e7Ni+g4gGEU7P99GH88q1zYgGDejX/xn7cZw6dYrdu3YxZ9ZsNm3c6LCnIiIizurVrcvBnAJ278kyliqVrjiLiEiFCwoOpvvDD/N4n974+vqSm5tLbk4OAE2vv562N9+Mp6cnp06dYs+e8n1B6+Pjw6h/jObuTp3w9fXFzc0NNzc3AmrXpvvDD/PXoUOc+jeMjLSHay8vL6KaNmX4iOG0adsWgK1bfsVisdj7e3h4ULdePR7v05sOd95Ju9tv59HH4ggMCrI/Vy1/f0wmk/0xF8PNzY3b77iDVjfdZA+lPj4+tO/Qgbgejxm7l8vmTZs4mpdn/7e7uzu1AwOJefRRYuPinPqGhIbSKTqaGjVqUFRURG7uEad6mfJss3ef3k7H4eXlhb+/PwUFBfbHiYiIVCcKziIiUmFatmrF4mVLmTV3DvHP9KNu3boct1j44vMV9j5hYWF8v3o1/Z+OZ8K48fzw3XdO2zifR2JjaNa8Odu3b+etNyfa51InLVhAQUEBbdq0cVrB+pcNGxg+dBiDBwxk8X//y/HjxwkMCqLLfV0A+Pabb+gV9xjd7n+Abvc/wKiX/k5mZia+vr7ccEMzfLy9MZlM5B45wrhXX6Pb/Q/Q/YEH/9Bc4KKiIr7/7jsGDxjIqJf+zu7du/H09OS6667j65UreSwmlsw9e+z9N23cyJO9+5C5Zw8FBQW8Pektut3/AIMH2FbATtu2jfgnn7Ifw+ABA9myeTNeXl40bRrl8MwQWrcuadu2MXjAQF4dM5bpU6ed9XyUc5s1a9YEYPW33/JYTCzd7n+Afk89zY7t2522JSIiUl0oOIuISKU4efIkO7ZvZ8o777J82TJ7+47t2/n3O+9y4MABftmwodxXKZtERWEymYiKimL4iyPtAT2uZ0/MZjM+NWsS5DCk+VB2Nju2bydzzx5mznifFcuXU1RURHiEbXgyQMyjjzJz1gf8d8lnjJ/wf0RERODm5obJZGLNjz+yfds2fP38uOvuu7iuSROHvbk0x44e5fNly8ncs4ctmzax4eefKSoqwlSjhrFrud3TpQvvTp3Cfz5bzJTp02jeogUA3t7eTv0OHjjA9KnTyNyzh182bCDn8GGnuqMLbfP7777HcuIE10VFEX3vvfbXU0REpLpScBYRkQpTtqp2t/sf4NGHH2H40GF8v3q1U5+srKxyh2VHf3RxsT2792C1WvHx8aFR48YMHf4Cvfv2ISQ09JyrVRcUFDD+9XEsW7KE5i1aMOntf/H2O5O5qXRudhm3czy2vE6ePElJSQm+pUPKL1bvvn14duAArmnYEA8PD2PZyaFDh866unwu5dnm8mXLmDjhDY7m5fF0/NN8MHcO/Qc8qwAtIiLV1qX/NhcREbkMiouKjE1QOge4huHKq2MozT1yhKKiIv776af2cO7457GYWL5eudLp8Y6CgoPx8PDgxIkTeHt707pNG4qLi/l+9WqGDx1Gt/sfYNMvvzg9pqCggMT3Z9K71+Ms+Gg+9cPCGDR4EFFNm9r71K1b1+nflM2v9vV1avszeHp62v9ePyyM2++4A09PTzZt3MgrL4+h2/0P8OWKM8PiHZUUFxubznIx29zw88+MfGE4f3/xb+zZs4f7H3yQvk89aewmIiJSLSg4i4hIlVdUXIyHhwc3tWlD85YtiWjQgBf//hLXN2tm77Njxw5KSkro1LkzPR9/nKDgYIKCgxkwaCAT3/7XWfeJrhMSwnVNmuDj48OD3bvzwIMPYDKZyEhPp1atWtSoUYMTJ06wbt3P5Zqbe/DAAU6dPEktf3/q16/Prl27KSgoILhOHfoPHECbtm3tz/VIzCPUqFGD3NzcP22VaW9vb25q05qg0ivvwcHB+Pj4YLVa2bRpMz+vW2d8yEW7lG0ePnyYo7m5uLm5ER4ebiyLiIhUCwrOIiJS5W1PS+P06dNcc801jJ/wf0yZPo32HTo4DRVembqSzD178PPzo+fjvZg1dw6z5s7h/gcfpEGDBrS66Sanbba66SbeSnibj1OS6f9sf4KCgzmUnc0XK74gLS2NIzk51KpViyHDhrJ42VIWL1tKy1atAAiLiKBR48ZMm/GevTZsxHD8AwI4np/Pvn37+H71an7dsgWA6667jjGvvmJ/rsCgoLMWRfsjDh44gJubG+07dGDW3DmkLPovzW64gf3791OjRg2e6P2EfT/v6WJb/Cw4JISIBg2Mm3Jp08aN5dpm36ee5NPFi+zzzNvdfjsAe/ftM2xRRESkelBwFhGRKu/T5BRWpqba5z6fOnWKX7dsYeuvv9r7ZO7Zw6tjX+Hbr7/m+PHjlJSUUFJSQn5+PuvXrWPn77/b++7NyuK3337j1KlTUDqXeOOGDUx84002bdzIvr17+Xjhx+zbt4+SkhKKi4vJPXKEJYsXc+DAAa699lq6P/wwJ0+exGq1Qun9jPft3cvCBQtJ27YNgLcnvcXi//6X3CNHKC4dCm21Wtm9axezZiY6LYr2R3y88GPStm2zP0dJSQm1/Hz5aN5H7Nixg+LiYvtr8dWXX5K+cyd169bloYcfMm7qgsqzzRo1alBQUEBJSQmUDmn/btUqkhZ+bNyciIhIteDWrFV722+1i1QnOIhrI0PJyirf/TVFREREREREXKlXty4HcwrYvSfLWKpUuuIsIiIiIiIi4oKCs4iIiIiIiIgLCs4iIiIiIiIiLig4i4iIiIiIiLig4CwiIiIiIiLigoKziIiIiIiIiAu6HZWIiIhIJQsICKBtmzbGZhGRy2rT5s3k5ORQVFRkLFWaqno7KgVnERERkUoWEBDAsCFDSE1NNZZERC6LO+64g8RZsxScy0nBWURERKSSlQXnx3r0MJZERC6LObNnKzhfBM1xFhEREREREXFBwVlERERERETEBQVnERERERERERcUnEVERERERERcUHAWERERERERcUHBWURERERERMQFBWcRERERERERFxScRURERERERFxQcBYRERERERFxQcFZRERERERExAW3Zq3alxgby6NOcBDXRoaSlZVpLFUqNzc3rr/+emOziFSwrVu3GpuqvRtbtjQ2iUgl2L1nD3l5ecbmai0gIIBhQ4bwWI8expKIyGUxZ/ZsEmfNIicnh6KiImO50tSrW5eDOQXs3pNlLFWqKzI4v/7qq2z97TdjSUQqiJubG/M++sjYXO3d16ULQUFBxmYRqUDXXXstCe+8o+AsIvIHKThfnCs2OD8dH8/Ro0eNZRG5zKKjo7n77ruv2OCcl5vL7DlzjCURqSALFyxQcBYR+RMoOF8czXEWERERERERcUHBWURERERERMQFBWcRERERERERFxScRURERERERFxQcBYRERERERFxQcFZRERERERExAUFZxEREREREREXFJxFREREREREXFBwFhEREZHK13EUc5OTSXH4s3DeTCa/HE90mNnY+/J6ciIpycnMfamDsXL53TaEaUnOr0PKgjlMez2eDoHGzlVH6+enkpK8gPGxFfSzamt7nRa+HkMFPaNc5RScRURERKRKMnkHEN6yK4PenszITldJPDKZMRs/oZvMhDTtytA3RxFdjV6G1j1GMXnmOPoaCyLVkPFtKSIiIiJSaSzrJhMTG0tMbD9GvDWX1ZlWcA+gXfcehBs7X8GcXofpi0nLAwJa0/XRqpmc178ziJjYnoxKttjbWrRtTXiAl1O/P826yQyMi6XHP1I484wil4+Cs4iIiIhUQXlk/LiYhGHJpFmBWqFEGrtcFfLI+Gouoz5PwwqE1G1t7CAiFUDBWURERESqLrPDFcvSedBzX+pAVI9xJJbOBZ48IIoOL80hJXkOozs6Pphztkd1H8HkmQvOzCGeM5Xx8e3Onisb2onJM0v7JC0g8e0RdGtypmzuMY6FjnORkxYwd+oYejV33lLUkxNZmPzH5uOafb0wObfQLn4c0+Y4zAmfmcDI7lH2HrZjTyZx0kQSFzgfR4zTPp5rWxPp1z7gTJcm3Rg92ba9stds0jMdgD5Msr8GZa9zB0bPSqZbQ4BIupXVJ/Vx2t7It2eysGw+94I5TH4phhYOu9V3UjIpyRPpa45maNlzzxnDq5PO7KfzPPQoug1PcDrWuZNHGY5V5NIoOIuIiIhIFRRA5G0xjJ7YjSgTWPensbqsFNyNF2OjCHAHsJC9Nc3pka5EPTmRV3q3IzzAIYaaQ4jqOoJ3RjovBmaOaEF4WXZ0NxEQ0Y6+r0ykb2l4tny2hXSrwwPcTZhDWhAzehQxDlmtXfNITICpSTu6O3QvnwAiO/dhdPtIwEL6htWAmeiXJjOyaxQhDs9jCginXe+xTOrtPKg9oGEk9sMtPY5eo8eWHsf5thVJ16GTGN3JDLRg6NA+tHZcpM0cgtmcd+bfF6NJHya90od2EQGYytKIyUx4256MfqUPZ6I/gJkWL/ejQ9lzH8pgj1O9TBR9J42l723hTsdqDmvtcKwil07BWURERESqDHPbIaVXE2cyaXhPWoeYwJrB8tkpZ/o0jIQNiQzpG0v838YyZZXTJs4vog/PdImEvauZM3EofWJjiYnty5CJC9icBwG3dqOvQza07lzMxCF9z8wzPgKYIunaJ8bWwbKAUT1jS+cixxLTfzypmVYwNaJN1zPbSd2YgRWwbFnNojPNLjm9DgO6ERUA1l2pLFgBdBxC37YB5G1bzNS/9XOYC51KltVEZKc+OH4FkLdhLuP6nznW9dlWMEUS3aMrRPSgW9sAII/NC8cTX3oc8zdkYyWA1t17EE4AZh/AmsXysX3txzswYTMwlxGxsSze5fCErGbcU2VtGSwue31GzAWga49oIk1g3ZvK1CF9bfs1dTkZFjA1jKZnF8dthRDZIIvl4/oR03coI95OYeaIWGKWZDh2gi49iG5oAmsWqVNtP9s+Q6axfJflzLGK/AEKziIiIiJSNVktZG9LZeaYkczZ7tB+IJU3xy0nywJ5OzMo93XPu1oQaQJTWAf6jkwovf3VHCaP7EmLAIAQwtuc6X4qN4M1ey1n5hm/tpwswBQWRXRpn4D28YyfWjqMeMYooiNMgAkv3zPbyfpwJD1iY+nz6uJLXMjKSvaPiYwZMZc0oN2tjTADAU27MeiNmQ4BO5pwE+BXm0YOj87du5j1RwAsZK1NYdz/rSIbMNdtQovopoQDeT9OZWzyettreWQ9KeMWsDkfCGtKNKtJ/jYDqymUNg/eR7s/dHuwDrSONIM1jcWjppG612Lbr5WJjPk6AzDT6CbH2G9l88KxzNyQB5YsMvae+xXscFMjzFhJWzSaqSuzsACWvanMHJNKBmCOvMnpywSRi6XgLCIiIiJVxpnVpGOJ6dmXgf+YxnLH0AxY9m+n/IOzz+gQFmJsujiZ28nOtwXT8NJh39OHdiXKcYzzn6TsdRiyKAMrJmrXq2OvRYU6zD2+FJkWW4D3MdOuru01yc1Zb+i0mqycM/9Kmz2SAQlfkdugGyMnz2Hhvy917nAktf2AQguZhgxsSc89xxcLB8n66uxWo0bBZuAUln3GjWaQm+/cJHIpFJxFREREpHopOmVsKeWFqZahxePM31cfyAYg+6uhZ8K505++jHM17NscjtkbyM8lna70vDsSExYyVkxjRH/bNhLWXTjkXYysD8fyyXYrpoZdGRRvm/2bfthiuxI727j/ZX9GMse4IUdNzLZFygosrCl9TWoHGVfr7krkmawOQN53iYwa1Jc+YxewzdyaXoa53OdmwuTUpzTIepuJMDw2PCoEM2Atcpw4bsVajpfU9pp4Ya5v2GhEE0L8bP9nHLcqcrEUnEVERESk2rOFLRNN74qndaAt5EY/M5G+NzkEqdRtZAEhd45idGw7ws0AZsI7xTPp36MwzoL1qh1pH5Yc0DiaQa/bFiqzZGxgNXXwNQOFWfy4bA0ZRwwPdvDHVtW22IZNW0yEdx3CoCawekM6Fky0eHQi/TpHYrv+HEDr2FFMeyP+rPtdmwPKjtW20Nj4F6MJAfJ2rmbz+iyygYC2fRjUKdy2f4GtiRlbusL13m2kGrZn2ZdBngUwhdPUYWj7uYXSonfr0n0EWM22/VYwRRE9Msb2s8JMeKeBjOwUDljI3LTGcQPlsvr3LKyYiOo8gpibbM9mDotm0IjOhAOWPb9y8VsVOUPBWURERESqvTVr07EApoZdGT0jmZQ5CQzqEukcVDMXsnhtHphCaN1jBJPnlM5xHtSVyLpR3Oq0KBWYGtuGJackJ5P4xkDb/OXCDFJnLQdWsm0v4B1FL4fbNA1ta3vGkIbd7M/9x1bVBiyLmThnPRZCiH5xBB1WLCR1pxXMkXQdMJHE0jnOo3u0JqRxC+6LcH54SPuyYz2z0Bh565k/fT1smknyujwwhRM9qHTe94xR9GpuWzBs/aKFZAFdX3a4FdWMUXSoa1ssLONn5+dytHl/HmAivPMo+z6OvA1SZi8nwwoBzXvaflbJc5g8yDY/274A2sVKnsvyXVYIaEGv0bZ533MnDyQ6zLa4XOrC5cZHiFwUBWcRERERqf5WTWbip2nklY3HLbaQvSmF+Rscx/laSJ04hLHz15Bl7wgU5pG1LpXU/zl0zd/M8pVZDtuzkrdzOQnPj2ROJkAWM6fMZb3DYlXWvCxSExNZk23F3DyGoaX3jr6UVbWNLCsnM2ddHgS048mXwkn+20ASVqSR7XB41vxs0lauYK3h6rclOwtLcek/yo7jxfGkWrC9JhNGkLAi48yxApbsNJYnjGDcSgsQTs0iCxaHujUvg+VTJjLfxTDq9dMnk7LNYek2qwlzGLB9LmPGLXB67bDmkfXjAsaNsS2AdvHSmDNmPPPXGY41cw3zx411XlxO5BK4NWvVvsTYWB51goO4NjKUrKxMY6lSubm58fqrr/J0fDxHjx41litWx1HMfb610zed1sI8Dm7/kcWJC0tXEawgT04k5cFILOsm02eC/S6IFatJVwbFx9Ax8sw9+yzZaaxZNJepKy7tFFk5OjB61hBas56Ep8afuafkH9DhpTkMbQvr37nA3KpqIDo6mrvvvpt5H31kLFV793XpQl5uLrPnuJw5ViEmTZxIZGSk/d9Wq5XDOTmsWrWKzxYvpqCw0Kn/5XLjjTcyYvhwLBYL48aPJzOz4n8nhIeH07dPH65v1gwfb2+Ki4vJzctj1apVLJg/n6Lisk9QVUdERASjR40C+MOv24W29dJLL9HqxhuZN28eS5YudapVRwsXLCDhnXfIyyv3OsrVQkBAAMOGDOGxHj2MJZFLZvt8YSZjSSwjZhurcrWbM3s2ibNmkZOTQ1FRkbFcaerVrcvBnAJ278kyliqVrjhXMJN3AOEtuzLo7cmM7HTxs1yqK3OnIUx7JZ7oxg43ugfMIVFE/6XTWXNx/hQ39WT02zMZ39tYELnymEwm6tWtS9yjjzJmzBj8/f2NXa5Ibdq0YczLL9O6dWt8vL0BcHd3JygwkDs7diSykeMNWUREREQujYJzBThzW4V+jHhrLqszreAeQLvuPS5PYKxqzN0Y2bcDISaw7FzO1L/1I6bspvQ7LeTt3sBl+T7pxta0jghwWk1T5Epy4sQJXn3tNWJiYxk6bBiff/45J0+eJDIykrvvusvY/Yrj7+/PE088QWBgIPv27ePthATi4uIYMnQo/1u3jkOHDvH7778bHyYiIiJy0RScK1QeGT8uJmFYMmlWoFYoZwZaXrlaxN9HCzNYdy1m3N8SSd1pG15n2ZvKzL+N581FWuNQ5I/KzMzk/Zkz+emnn/D09Lwqrjh3ufdewsLCyM7O5u2EBL777juKiovJyspi4ptv8sEHHxgfIiIiInJJNMf5ciqd44xxXrG5J+NnxhBVuJ6EWfBMaZ9xu+7jxUeiCHCHrK9Gkxww6pzzXs+eD2umXfwo+naMIqR09Lc1L4ufP5vGxEWlc4fL5jhnbibXrwXhAaULJuz9mUXTJrG4dMEEc49xJMZGYSp7smIrlsPb+HzqJOZvOTMnO+rJibzyYCRsW0D8P1LOcbP6MuEM+ncC0XXzWDOhHxPXGesGTboxcmA32oSVDum2WsjauJiZ76aw2YJ9fnFUxlym7u3AM50jCTDZFgDJWp/C1AmLSXOY0+Msg8WxI5nj8HMxvuZDpqeVex+c5zib6TV+JjFN7K8cWC1k//Y5U99aUPq4UuZ29Pt7Hzo2CcHsDliyyMgPJbLuqQv8TDP4avY4Zn5XOq/vPMfxjxf68tue8/9ELjfNca4YkyZOJDQ0lElvvcXGjRvt7S8MG8Ydd9zB4sWLadGiBaGhoXwwaxYPPvAADRo0IDc3l0WLF9Pjscc4ePAgI0aOtD+2bL6yY/uNLVvS6/HHiWzYEA8PD06dOkVaWhozExPJysqyP8ZqtZKXl0d4RARuQG5eHp9//jmffvopACEhIbz88svUq1sXgJKSEk6cOMG6n3/m/Rkz7HOy27VrR/9nnqGkpIS3ExLYsmWLff+Mxrz8Ms2bN2fRokUu/795uLvz2muvERVlu/8pQEFhIWnbtvHejBlkZ9vuYXpnx4706tWLwMBAAPLy8lixYgXJKSlwjteioLCQzZs2MWv2bPs2zufOjh15NC6O0JAQAA5mZ+Pn60tBQYHTvORHHnmE++67j9oBAbi5uXH8+HFWf/cds2fNOu9c7Yud43yh47yzY0diH32U0NBQ3N3cOHHiBD/88ANz5sypsLnzrmiOs4jIn0NznC+OrjhXqAAib4th9ETbPQCt+9POLCwV3I0XY23BByxkby3vYllmol+azMiuZwIWgCkgnHa9xzKpt/NgcHNEaWgGcDcRENGOvq9MpG8TW5Plsy2kO94d3t2EOaQFMYYb3Jf/tgq3Eh4E5Kez/oKhuQ+TXulDuwiHedAmM+FtezL6lT6c+cgL5pZ9GNm1NDQDuJsJb9uHQc9cxOD3c73mF7EPziws2pSO40uHyUxIyxhGj3a4Z6M5mtGTR9C1aWloBjCHE1nXIXCf92caSdehkxhtnBtvOI5TxysvNEvliYiIYPCgQdxyyy2cPHmSzCzbLxt3d3ceeeQRGjZsiLu7O0ePHmX/vn3Gh59Tu3btGDZsGNc2boyHh23Og5eXFy1atGDU3/9ORMSZ+534+/tzzTXX4OHubp9j3KNHD+Lj4wHIzs4mfedOe383NzfMZjMdO3Tg2WeftbdHNWmCv78/tWrVotWNN9rbjerUqUNwnTqcPHmS37ZtM5adFBUXs3XrVoodgqePtzetWrXi+eefx8PdnaioKPr27UtwcDDupccQEBCAycsLzvNa+Hh7c8sttzB8+HCXV/j/8pe/MGDAAOrVrWvfdr26dfH19XXqFx8fT48ePQgKDMTd3R03Nzf8/Pzoet99DB8+3KnvpbrQcZbta/169fAo3Qez2Uznzp0ZMmQI7u762CAiIlcn/QasAOa2Q0rvezeTScN70jrEdj+55bNt3+4DmBtGwoZEhvSNJf5vY5lS3pWVOw6hb9sA8rYtts8djontx4jpqWRZTUR26kMHh+7WnYuZOKRvaZ/FpB0BTJF07RNj62BZwKiesaXbiSWm/3hSM61gakSbrme2U/7bKpjxKs2Ep4wlg649ook0gXVvKlOH9CUmti9Dpi4nwwKmhtH0dLq3opXsdQsY1z+WmL5DmbnBduUhPKoTAKsn9CVmSQYAGUvKjmckjtcJz/WaX9w+OLMsHE2PstctNpb4calkWcEU2Zr7Svu0HtCT1gHAkc3MnziUPqVzvVcfcIjcET3o1tZ278TNC8cTX/pzmL8hGysBtDbMjTcex27DLSjkylWzZk1e/uc/SUlOJuHtt+nUqROenp5s2rSJb7/5BgBvb2/8fH159913eTo+nn+9/fZ5r1w68vPz4+GHH8bNzY2FCxfydHw8MbGxjHzxRTZu2kSdOnWI7mR7vwEcPXqUf0+ZQlxcHK+8+iqbN2/GDbjj9tvtV3r/9fbb9vdHXFwcCxYs4PTp0zS+9lrq1KkDwJZff+Xo0aPk5uXxv3Xn/7bN29sbk6cnJSUlnD592lg+y7yPPuLRuDj780+ZOpXjx48TVr8+UVFRtu2ZTBw+fJi/jxpFTGwsj5buI8A9nTvj5+fHrl27GDV6NHFxcbw3YwbHjh2j4TXXnHdOeUhICF26dMHT05NffvmFkS++SFxcHB988AEnTpyw97u5bVs6dujA3r17mThpEnFxccTFxfF2QgI5OTk0b96c1q1bO237Urg6Tj8/P+6+6y5MJhMbN21iyNChPPHEE3z66aecPHmS5s2b01iLrYmIyFVKwbmiWS1kb0tl5piRzveTO5DKm+OWk2WBvJ0ZlHcAWrtbG2EGApp2Y9Abtpu9225ub7uJPH61cfyYcyo3gzV7Lbb51l/NZdRry8kCTGFRRJf2CWgfz/ippTe5nzGK6AgTYMLL4eJI1ocj6REbS59XF7sYpo3tCqjTZdjz6UDrSDNY01g8alrprbosZK1MZMzXGYCZRjc5fgWQxZoJKaw/YhvqvHzuz2QDeJvLv+DaWa/5xe6DUQAdnhnHtDnJpCQnkzi69Gdg8sL20nWga/MAsGaw+LVXSFmbhaV0rvfPWQ5fK0Q3JRzI+3EqY5PX2/4vHFlPyrgFbM4Hwpraf1Zw9nFcOELIlaiouJicnBz+u2gREydOtIfjoqIili9fzjfffmu72rx/v/Gh5xQZGUnd0FB8fX3p0aMHHyQmkpKczMQ33+TGli1xd3enbr169v6nTp3i999/p6i4mE2bNvHWv/5FZmYmNWvW5LrrroPSEPnCCy8w78MPSUpKomfPnphMJkyenniXroj9888/83R8PP379yct7fwjbwoLC7GWIzCX8fH25pl+/Zg9axbJn3zC4EGD8PX1xdPTE5OXF1s2b+bXX3/F39+fezp3tgd5Sq/mh4WFcSw/nzlz55KWlkZRcTFffPEF3377LR4eHjS9/nqn5ytzy803ExwURHpGBgmTJ5Oenm57jTZvxmI5c/Zsev31mM1mGkREMHLECJKSkkhKSmLY0KEEBwfj5eVFfYfX+1K5Os5GjRpRp04dDhw8yPTp08nKyqKgsJCP5s9n85Yt+Pj4EBIa6rQ9ERGRq4WCcwU4s6p2LDE9+zLwH9NYbrgJu2X/9ku62XtUaNm460uUuZ3sfFvADi+duzx9aFeiHMcI/yHbyc4F/MJpcWZU5zlEUtsPKLSQaUjilvTcC4RzINNi62OuXe4F185+zf/IPkTRd9I0hnZxHl7trGz7uaS7WBqgQ13bHMjcnPWGymqycgxN5zwOuVo4rqodFxdH/2efZd68eU5XlE+dOsXvDkOky6tBRAQ1atQwNpdbfn4+2YcO4enpSe3atWnUqBGvjB3LHbffjo+Pj7H7RTt06BDHjh6lRo0aXHvttcayE39/f8a+8gr33Xcffn5+uLm5GbtQVFzMxIkTSU5OplWrVkydMoXx48bRsGFDAgMDMZvNnCwsJDc31+lxhw8fdnnFOygoCJPJRG5uLvn5+cayXVhY2Dn362K4ubnhfoFtuDrOiPBwTCYThQUFZ83ZLu/wfhERkSuVgnNVUXS+gcxemGoZWhxur5R+2AJY2TzbYXi10x/n4clnMYdj9gbyc0mnKz3vjsSEhYwV0xjR37aNhHWuI6Nrm/l5jwUIoeOQc80RNtOieRSQQW6+7YpxhCF4hkeFYAasReW6dH0Wk8d5kuxZr/nF74NtViDQpQfRDU1gyWD59JG24dWxk1nv9Dm59Or7ObbvaPUB2wfW2kHGYZldiTxzceiMs45D5AxXQ5k9PT3x8/Nz+ndZeMvMysJqtZKZmcmTTz11jnNLLBMmTHDYmjMPd3dq+flx+vRpco8csV/ddLxt1KuvveY0XPli7dixA3d3dzpHR9PoHEOIm11/PR7u7tx91100vOYa8vLymJmYyBNPPMHQYcM4dOiQU/+i4mKSU1J4pn9/Ej/4gIiICIa/8AIAFouFGt7e1K5d2+kxYWFheHp6UnSe1/iU1UpxcTG1/PzwcDE/uCyYfvnVV2e9zjGxsfTo2ZMlS5caH+akVq1aNGlSumBFKX9//7OuVJ/vOPOPH8dqteLt40NI6SJmZRo0aEBJSQmUXNJ6oiIiItXe+X+LS6WzhTQTTe+Kp3WgLeRGPzORvjedSV2rN6RjwUSLRyfSr3MktuvPAbSOHcW0N+LPGrbsVTuSdmG2xwc0jmbQ67aFyiwZG1hNHXzNQGEWPy5bQ4aLubJRT05kYXIyC193WPjqPFZ/lEqGFUwNuzH6jXiiG9v20hzWjpiXJjJ6dD/6NlnNtv1WMEURPTLGdryYCe80kJGdwgELmZsu7bZVoc37lG7vQi5yH/yiiO7Vwnb89XxtwTpzDZ//eL6h9mtJzwZMUXR7faDT69Ai1B7BYX0W2UBA2z4M6hRu235ga2LGxtDCDOzdRuqZ3iIXraSkhOLiYkJDQ7n33nvxcHfn9ttu48m+fe1Xg9PT0zl06BD1w8IYPHiwPZhGRUXx2quv8lB352UBvby8uPbaa/Fwd6dOnToMfu45rr32Wo4dO8bW336jdmAgbm5u7Pj9d35et+6886zbtWvHB4mJJM6cSfPmzY1lJ6krV3L48GFCQkIYNnQo7du3P/P8gwbx0ksvcf8DD+Dv74+npyf79u3jhx9+KNfK0Pv376ewsJCAANv7NCcnBz9fXx566CHCw8PxcHena9eu3H777RQVFbFjxw7jJgDYvWsXJ0+e5Nprr2Xwc89Rp04dPNzdaRoV5XTlfceOHRQUFHDH7bfzeK9e+Pv74+Huzr333ssbEyac84uBMpmZmeTk5ODl5UVcXBx33XknHu7uNGrUiCFDhlC/fn0KCgpIT083PtT5OEtKyDt6lJCQEHr06IG/vz8+3t707t2bZs2aUVhYeNaVaBERkauFgnMVtmZtOhbA1LAro2ckkzIngUFdIp2D6oqFpO60gjmSrgMmklg6x3l0j9aENG7BfYbh0abG3Rg52TZ/OfGNgbb5y4UZpM5aDqxk217AO4pepX1SkpPtt3UKadjN/tzlX1UbyJzL+ytsi4mZG3e1z8WeO3kEvdqGYCpd/T5l9nIyrBDQvKfteJPnMHmQbZ6wdVcqC1YYN3wBWw6SB5gioku3l0ziyHbGXk7Ktw/rbQEbM1GPjGHaSx0gdZttrnjTnkwuneOckjyE1n4AIUQ+aAayWLDINmfZFBHt9DrY5pGX2jST5HV5YAonelACc0vnmvdqblswbP2ihVStxfmlusnIyODAwYN4eXnRq2dPkpKSGD58OHXr1rVdVSwdar3y66+xnjrFzW3bMvHNN0lJTmb8uHE0a9aMFi1aOG3T39+f5wYPJikpienTpnFnx44AfP/996Snp7Ptt984ffo0d3bsyLx580hJTublf/6TmjVr4ufnxzXXXAMXsao2pYFxydKlFBYWUr9+fYYNHWp//k6dOuHh4UFJSYk9lDZr1sw+Vzvh7bepU6eOPfD7+fnxr7fesp/3Xv7nPwkMDOTosWPs37+fz5Ys4fjx49zYsiWTExJISkqiX3w8vr6+7Nq9m69LF2MzWrt2LVu2bMHd3Z07O3Zk+rRpJCUlMWDAAKdVtdeuXcumTZvw9vbmkUce4YPERJKSkni2f38aNmxIS8PrbZS6ciWFhYUEBgby17/+laSkJPt89OKSEr77/nu2/vaby+P8bds2vvjiC4pKf04fJCYyb948HureHZPJxJYtW9h5jvAtIiJyNVBwrspWTWbip2nklY0OLraQvSmF+Rsch06nMedvA0lYkUa2Q7M1P5u0lStY63jVOH8zy1dmOWzPSt7O5SQ8P5I5mQBZzJwyl/V7z2zImpdFamIia7KtmJvHMNT2WfgiVtW2SZs9kgEJy0nLtmAtu9BUbCF7W+nzbwe2z2XMuAVOz481j6wfFzBuzNyLn8e7bhoJn6aRZ38+KyZzmKGTQbn2wULKuJmkZuadOZbMRKZ+uJ6ssocVW8nLTGVm4hqyrWZaxAyhA2BZOZ7hCcvJsP8QbIubZTiuqo2F1AkjSFiRceZnBViy01ieMIJxK//I0HkRWyhOTExk165dFBUXU1xcTM6RI3y2ZAkFBQX2fkuWLCEhIYHfd+6039/RarWSnp7O6tVn7k1vtVpZtWoVOUeOUFxcTFFxMYcOHWL6e+8xZ+5cAD777DNSU1PtV3sLCgv55Zdf+PLLL3F3d7dfwS7vqtplHPfRarW9YYqKivh9504SEhJYsmQJP/z4I4sWLeJY6Rxjq9XKjh07+M9//sPJkye5p3NnmjZtaltwrGwbxcXsycxkTuk9mtesWcOUKVPYk5lpv1peUFDA9z/8wFtvvcXRo0cd9uqMouJiJk+ezFdffWV/bYuKi9m3fz/Hjx936vfWW2/x8ccf21/HkpISLBYLGzZs4BeHe3Wfy8qVK89+HUoXjEv6+GNmz5oFpfcKdnWcn332Ge/PnMnhw4ft+5Cfn8+KFSuYPHmy0y29REREriZuzVq1v6QJS3WCg7g2MpSsLBerHFUCNzc3Xn/1VZ6Ojz/vBxkRuXyio6O5++67mffRR8ZStXdfly7k5eYye47LlQNE5DJauGABCe+8Q17euSfFVFcBAQEMGzKEx3r0MJakUpmJHjqRDjmDGPthaVOnUczta2JB31dYbujdbewCulsmEz/x0qaXnV8fJiV3IzJ/PQlPjefMV5cV7MmJpDwYScaSWEbMNhbPr8PwiUT/PpOxiy76MohcRnNmzyZx1ixycnLsX5BXBfXq1uVgTgG791StMZa64iwiIiIicg5RT47lmVtz2fzpmTZzZAhmcyNu7eLYE6ArrSNNBIQ6L9InsPp/uTTqPZLRnS60Mo5I1aXgLCIiIiJiFNGHZ7pEYlmXQorDLKnoiFDATKObOjj2ho430cgMBIUT7VyRVXNZtTeA1rH9MN4zRKS6UHAWERERETFoHdeRSFM2m79c79AaTniwbUFPc1QHHKNzi9ald8LwCyfKsDirZLFgQwaEtCM2VledpXpScBYRERERcdKBrs0DID+LzZsc21sTYrtLHfhFUXoDAaAF0U3K7n9em/Bby9oBoug2PIHEBaV33UhawNzJo4hpbgiQgR3o9/pU5jr0S3x7xNn9yjTpxtiZyaTMHEW0vYuZdvHjmGa/w0cyC2cmMLJ7lP1h5h7jWFhas+/P1DH0Out5Svc7qazfTCY1d76XPYD51njGTz1zN5aUeTOZ9EyH0luknmFJTScbE41an7lLi0h1ouAsIiIiIuLotltp5AfkHcRpma+WkYR6g2XLZrIx0+jm0oHHEe2JCilrNxEaWXb7yyj6ThpL39vCCSi786S7CXNYa3qNHkvfsunQTfowacoQujYNwezQLyCiHfd3ORN67QK7MvrFPrQwZ7D4zfGkWrAtZPbSZEZ2jSLEIZmaAsJp13ssk3qHA2D5bAvpjjfzcDdhDmlBzOhRxNgf57DfZWnBPYDIhs5x2NxpFO+M7EqU4xN6BxDZZQhvvRTtHJAz93KwEEyRzbnPsV2kmlBwFhERERFxFBVKAGAtyMPpJpBNQqgNZO9K5Oe9EBDVidaAOboRIVhIW7mBg4UQEFyaiLv0ILqhCaxZpE4dSp/YWPoMmcbyXRYwRRLdoysQTt/+XYk0gTUzlal/60dMbCzx4xaw/kAGPyY5DhUHzNGMfjOe1gF5rH9/rO2WngAdh9C3bQB52xbbtxET248R01PJspqI7NTHNrTcsoBRPWNL67HE9B9PaqYVTI1o07X0KXr0oWtDExRmkTp9JPGl/eZvcXw1wunZvTUBQN6WBYzrb3u+cQvXk22FgLZ/oafTkPVcrFbAFEqj2xzbRaoHBWcREREREQcd6tqGXZ86lu3U3i4yFBMWctOz+HxLFgQ2omNLM7HNIyE/jVWrUsk6BITYFgjrcFMjzFhJWzSaqSuzsACWvanMHJNKBmCOvIkOdKJFQxNYNjNn2DRSd9putZa3IYVxz41kptOdX0PoPnkgrQMgb+0cxq08E2Tb3doIMxDQtBuD3phZOnR6JpMGRBNuAvxq06i0b0B7h+HVM0YRHWECTHj5ApiJbRuFCQvrZwxl6lcZ5AEcWU/KLsfXoxNNw4Aja5gyNoX1RwDyWJ88nvkbLUA4TZ1WSVvPwTwAM+Ygx3aR6kHBWURERESkHKKCA4BsslZB1uebySKEqE49iAoDS9pqVmMh47DFvkBYo2AzcArLPqfr1mDJIDe/9O8dwwkBOJRx1n2hz+IXTmSABYsFAlrH0M/hzldRocZZxecW9eREpg81DK920prwIOzHeV5l+30sG8M1cVYfcP7CwcaCtQjAhG+wsSZS9Sk4i4iIiIg4yCs0BF0AOhAeYpv3nAaQuYLNeyHk1s40MllI+2E1AKl7s+0LhKUftgBemOsbQmpEE0L8gKJTWFdlkQ1QK6Qct2rKY/OH4+nz7mqyTeF0HhhP2Qxo23NZ2TzbYRi205+RzKErPe+OxISFjBXTGNHfVktY53i8eVgKAGoT0tah2cjFfndtULpQWpFjawtq1wSwkJvu2C5SPSg4i4iIiIg42JxjC5JetcpWygbMpWE3J7t0wbDS4domEyZLOuvLrs6mHSSvdIGw1b9nYcVEVOcRxNxkuyJsDotm0IjOhAOWPb+yhg1kZQOB7Rj6RjzRjc/06/dGAiPtK3cD+emkLkqDdZNJ+CobU0RnBsXbovPqDelYMNHi0Yn06xxZuqp1AK1jRzHtjXhsS4PVwdcMFGbx47I1ZBxx2LbdZtIOWIAA2vUfQ8ytpbfZCoykW1kgBrDvdxv6Doom3Ezp840htqUZyGLbNw7dCcDsA2DBYhuNLlKtKDiLiIiIiDjaaLuaavJyuFJ8a6htYbD9G+xNtuHaYNn505lh1j9mk0vpAmHJc1m+ywoBLeg12jbveO7kgUSHmcCaQerC5cBm3k9eTx5gbtzVPj957uSBdG0cTtOylbsN0qZPJvWAifDOA21DtlcsJHWnFcyRdB0wkcTSOc6je7QmpHEL7osAWMm2vYB3FL0mn7mF1NC2tuMMaWi7VdTyhalkWIHAFvQamcDc5GRSZkykb0vHK+dl+20ivNNAJs8pe74WtgXD1n3GAqf52bUxmYDCg6Q73eJLpHpQcBYRERERcbRpPVn5QJBtkS+A8CbhmLGSm7X5TL/MFWzeayF9rePs5O22RbBCwokmjTljxjN/XRaW4tJysZW8zDXMH3dmRWzLyvE8P3YB6/dasBr6LVuRVrZhgzSmvpPqMGQ7jTl/G0jCijSyHUZeW/OzSVu5grVHALKYOWUu6/ee6WDNyyI1MZE12VbMzWMY2hHYPpcx42z749CRjF3Ol4otK8czPGE5GXkO97eyZJO2YjLDJ6Q6r0geEUaoN1j3bGGxY7tINeHWrFX7EmNjedQJDuLayFCyspy+Sqp0bm5uvP7qqzwdH8/Ro0eNZRG5zKKjo7n77ruZ99FHxlK1d1+XLuTl5jJ7zhxjSUQqyMIFC0h45x3y8q6ssZ4BAQEMGzKEx3r0MJakkrQePpPRt50iddggprr4uGsOC8e0N8u28rScX+w4FvYIZ9v7fRm7wliUyjBn9mwSZ80iJyeHoiKnCemVql7duhzMKWD3nixjqVLpirOIiIiIiMH66ctJs4YQdZ9tdvD5WBSay8FMr9aNMB1YwwKFZqmmFJxFRERERIwsKUxdlkFo+3i6ne/OTVI+bfvRoUEWi9+ZZluRXKQaUnAWERERETmHrA/HMm6VL60fMVbkYnS4PYS0D87M6RapjhScRURERETOycLmxJGM/dDYLhdj9TujSVh5rntji1QfCs4iIiIiIiIiLig4i4iIiIiIiLig4CwiIiIiIiLigoKziIiIiIiIiAtuzVq1LzE2lked4CCujQwlK8vFHeErgZubG6+/+irPDhhgLIlIBbjxxhu5++67mffRR8ZStXdfly7k5eayZOlSY0lEKsi/332XhHfeIS/vyrpzbkBAAMOGDOGxHj2MJRGRy2LO7NkkzppFTk4ORUVFxnKlqVe3LgdzCti9J8tYqlRXZHB+ZcwYY7NUYW5ubpSUXNJ/w2rHzc0N4Io/3u07dlyxwfn2224zNks1cjWdb65k/0pIUHAWEfmDFJwvzhUXnKV6uadzZwICAvgkOdlYuiK1aNGC29u1w9/fn9XffcePa9YYu0gVVrt2bfz8/IzNUo083L07P61bx969e40lqUb27dvH6dOnjc3VmoKziFQ0BeeLo+AslarPE0/we3o6P/zwg7F0Rbvl5pu57bbbKC4qYvX33/PLL78Yu4jIZTDw2Wf54quv2Llzp7EkUqkUnEWkoik4XxwtDiaVKjQ0lEOHDhmbr3g//e9/TJk6lY2bNtG1Sxfin36aqCZNjN1ERERERKQKUHCWSlOzZk1CQ0PJyckxlq4Kp0+fZtXq1fx76lQyMzPp1bMnj/fqRYMGDYxdRURERESkEik4S6WpGxoKwJEjR4ylq0p+fj5ffPkl/54yhePHj/PXwYN55OGHCQkJMXYVEREREZFKoOAslSa0bl0OHT5sbL5qHTp8mEWLF/POu+/i5eXF8889x31duuDr62vsKiIiIiIiFUjBWSpN7YAAchScz5KZlcXCjz9m7ocfUq9ePZ5/7jk6tG9vv5WViIiIiIhULAVnqTRBQUFkX4ULg5XX9h07mDV7Nss+/5xWN97IXwcPpvVNNxm7iYiIiIjIZabgLJUmMDBQwbkcfvnlF96dMoUNv/xCl3vvJf6pp2hy3XXGbiIiIiIicpkoOEulCQoMvCpvRXWpVn/3He/8+9/s3buXvn368FhcHGH16xu7iYiIiIjIn0zBWSqFt7c3NWvWJDs721gSFywWC59/8QXvvPsuRadP89fnnuOB+++nVq1axq4iIiIiIvInUXCWShEYGEhhYSH5+fnGkpTDwexskj/9lBkzZxIcFMTzzz3HXXfeiYeHh7GriIiIiIj8QW7NWrUvMTaWR53gIK6NDCUrK9NYErmgFi1acPedd/LOv/9tLMklaNmiBR3at8fLy4tvV61i/YYNxi4iAgx89lm++Oordu7caSyJVKqAgACGDRnC6dOnjSURl9zdbdfBiouLjSWRC3rv/ffJycmhqKjIWKo09erW5WBOAbv3ZBlLlUrBWSrFXXfeSb169ViwcKGxJH/AHbffzp0dO5K1dy/frlrF7t27jV1ErmoKzlJV+deqhU/NmsZmkQt6YehQAP6VkGAsiVzQyZMnOXr0aJX64kXBWcRBzMMPk3f0KKkrVxpL8gfVqlWLOzt2pGOHDnz77bd8u2oV+cePG7uJXJUUnEXkSjPpzTcBGPHii8aSSLVUVYOz5jhLpaitFbUvm2PHjvHZkiVMnTaN4OBgnhs8mNtvu83YTURERK4AK7/+2tgkIpeBgrNUijrBwQrOl1nGrl3MnjuXL778kna33kr/Z54hKirK2E1ERERERC5AwVkqnJubG0FBQWQrOFeIn9ev599Tp7Jr1y76PPEEMY88Qp3gYGM3ERERERE5DwVnqXB16tThyJEjVWr1vivdqVOn+OLLL3l3yhQ8PT15bvBg7rrrLmM3ERERERE5BwVnqXAapl15Dhw4wMdJSSR98gktbriBgQMGcH3TpsZuIiIiUo189913xiYR+ZMpOEuFC1ZwrnS/bt3Kv6dOZfv27Tzx+OM88tBD1A4IMHYTEREREREFZ6kMdYKDyT582NgsFaykpITUlSv599Sp+NSsyaBBg7j99tuN3URERERErnoKzlLhguvU0RXnKmT//v18NH8+y5Yt47ZbbyX+6adp3KiRsZuIiIiIyFVLwVkqnOY4V00bfvmFf0+dyr59+xjw7LM8eP/9+Pj4GLuJiIiIiFx1FJylQnl6euLr60teXp6xJFXAyZMnWf755/x76lTqhIQweOBAbmzZ0thNREREROSqouAsFSo4KIhjx44Zm6WK2b17N7Nmz2btTz8RGxtLbEwMAf7+xm4iIiIiIlcFBWepUEEKztXK6u++Y/r06fj6+jJo4EBuuflmYxcRERERkSuegrNUqODgYI4qOFcre/ftY/acOaz+7jv+8pe/8ESvXoSGhhq7iYiIiIhcsRScpUJpqHb1VXb12dNkYtCAAbRv397YRURERETkiqTgLBUqUMG5Wiu7+vxVaipdu3Shx2OPYTabjd1ERERERK4oCs5SoYKDgjiWn29slmpm9Xff8d777xMQEED/fv1032cRERERuaIpOEuFCgoKIl9XnK8Ie/bs4b0ZM9i+Ywf9n3mG9nfcYewiIiIiInJFUHCWClM2pDdX93C+YpSUlLB02TLmL1hAh/btiY2JoUaNGsZuIiIiIiLVmoKzVBjfsuCcm2ssSTW3cdMmps+YgXeNGjwTH881DRoYu4iIiIiIVFsKzlJhzL6+5OfnY7VajSW5AuTm5jJv/ny2paXRLz6etm3aGLuIiIiIiFRLCs5SYcxms642XwW+Sk0l6ZNP6PHYY9x3773GsoiIiIhItaPgLBXGXLMmR44cMTbLFWjzli1MfOst7rjjDnrExRnLIiIiIiLVioKzVBiz2cwRXXG+ahw8eJCXx44lLCyMZ595xlgWEREREak2FJylwvj5+nLixAljs1zBSkpKeOvtt/E0mYh/6iljWURERESkWnBr1qp9ibGxPOoEB3FtZChFp7XQk5TPgw88wJ7MTDZt2mQsyVWgV69eHM3LY+myZcaSSIWJe/RRflyzhszMTGNJRKRa6tC+PZ4mE19//bWxJFJtHcwpYPeeLGNzpfpDwdnHx8fYLHJeA/o9wY9rf2bj5t+MJblKDHymN4cO5ZD8X4VnqRwD+j3BlytXszN9t7EkIlItde1yN14mE4uWfGEsiVRbbm5cOcFZ5GL9640xzPnoEzZu2mosyVVk1Mi/knfsGFPfm2MsiVx2Y0YN45P/LGXrb9uNJRGRaqlnXHdq1KjB7A+TjCUR+RNpjrNUmAD/WhScKDQ2y1Vm/MR3qenjw9Dn+hlLIiIiIiJVkoKzVAhPT0/M5ppYtDiYAJMSpuNfy4+H/nKfsSQiIiIiUuUoOEuF8Pf3A6CgQFecxeaT/yylZ1x3WtzQ1FgSEREREalSFJylQvjXqgWgK85it/W37Xzy6RJ6xj2Ej4+3sSwiIiIiUmUoOEuFqOnjTVFxMSdPnjKW5CqW/J+lnDx5kp6PdjeWRERERESqDAVnqRAmk4lCDdOWc/jkP0vpcs9d3Nm+nbEkIiIiIlIlKDhLhfD09KCw8KSxWcQ+ZPuuO283lkREREREqgQFZ6kQnp6eFBTqirOc26rv1xJ5TYQWChMRERGRKknBWSqEp6eHgrOcV3b2YVZ/v5bbbm1jLImIiIiIVDoFZ6kQJk+TbkUlLn373Ro6tL+VoKDaxpKIiIiISKVScJYK4enpocXBxKXfd+5i0+bf6HD7rcaSiIiIiEilUnCWCuHp6UnhSS0OJq59s/pH7rjtZmOziIiIiEilUnCWCmEyeWqotlzQxo2/UrduHeoEBxpLIiIiIiKVRsFZKoRW1ZbyOGW1smXLNppd38RYEhERERGpNArOUiE8PT2wWk8bm0XOsvnXbdxwfZSxWURERESk0ig4S4XwcPcwNomc0+87dxERXt/YLCIiIiJSaRScpUJ4enoam0TO6UhuHkGBAcZmEREREZFKo+AsFcLTU1ecpXxyc/Pw96+Fh7tOTyIiIiJSNeiTqVQIDw8FZymfouJijh49Ru3auuosIiIiIlWDgrNUCA3VlouRcySPQAVnEREREakiFJylQnh46L+alF9hYSE1a/oYm0VEREREKoXSjFQIXXGWi1WjhpexSURERESkUig4S4XQHGe5WN41ahibREREREQqhYKzVAhdcZaLpSvOIiIiIlJVKDhLhdDtqORi1dAVZxERERGpIhScpUJ4aqi2XCRdcRYRERGRqkLBWUSqnMKTp4xNIiIiIiKVRsFZRKqcwsJCY5OIiIiISKVRcBaRKqfw5Eljk4iIiIhIpVFwFpEq56SGaouIiIhIFaLgLCJVTmGhrjiLiIiISNWh4CwiVU7+8ePU9PExNouIiIiIVAoFZxGpcnJzjxIUVNvYLCIiIiJSKRScRaTKOZKbR2BggLFZRERERKRSKDiLSJVzJDeP4MBAY7PIH+bh4WFsEhEREbkgBWcRqXJydcVZLhOTl8nYJCIiInJBCs4iUuVYrafZt/8AUdc1NpZE/hAvk4KziIiIXDwFZxGpknam7+G6ayONzSJ/iJeXl7FJRERE5IIUnEWkStqZvouoJrriLH8uLw3VFhERkUug4CwiVdLOjN20bH49Pt7expLIJTNpqLaIiIhcAgVnEamStu9IZ0/mXtrffouxJHLJamiotoiIiFwCBWcRqbJWfbeWju1vNTaLXBJ3Nzc8PT0oKSkxlkRERERcUnAWkSpr9Q9rqVMniJbNrzeWRC5aDe8aAJw8edJYEhEREXFJwVlEqqzCwpP88OM67rjtZmNJ5KKVDdMuLDxlLImIiIi4pOAsIlXaqu/XckvbVtx2axtjSeSi1KhResX5lK44i4iIyMVRcBaRKm3X7kw++XQJPR7tRnBQoLEsUm41athW1D6pK84iIiJykRScRaTKW7ZiJZlZ++nxaDdjSaTcanjZrjifOqXgLCIiIhdHwVlEqoXk/yylzU0t6XLPXcaSSLl4e9fg9OnTnLJajSURERERlxScRaRaKBuy/eQTj3JzmxuNZZEL8vHxJjfvmLFZRERE5IIUnEWk2li2YiUp/13GcwOe0i2q5KL5eHuTm5dnbBYRERG5IAVnEalWkv+zlM+WfclfBz5Fk+saGcsi5+Xt401u7lFjs4iIiMgFKTiLSLWT/J+lrPjqW54f9DTXNAg3lkXOycfbm9xcXXEWERGRi+fWrFX7EmNjZQoPr49vTR9js1RzT/V5jIxde/hm1Y/Gksglu6vjbTRv1pQvU1eRtmOnsSzi5L577sJyooDV3681lkREqq3OnTpgMplYvmKlsSRyWWzbfnV+5qqSwTks1I+TJ08aS1KNPd6zJ7v37OG77783lkT+kJtataLT3Xfzv3XrWLV6tbEsYvdQ9+78/vvvbPn1V2NJRKTauuvOOzGZTHz51VfGksifroa3P2vXbTQ2XxWqbHDet2+fsSTV2MBnn+X3nTt1UpfLouE11/Dggw9itVr5fMUKdu/ebewiwnODB/P555/z+86r85tyEbky3d+1K14mE/9dvNhYEvlT+fj4UDuw3lUbnDXHWUSqvV27d/P+zJkcPnyYAf37c2fHjsYuIvjXqkXeUS0OJiIiIhdPwVlErggnT54k5dNPWfzZZ9x91108+8wzREVFGbvJVczf359jx3QfZxEREbl4Cs4ickX5cc0a3p0yhUOHDvFMfDwxjzxCUFCQsZtcZfz8bGtnnDp1ylgSERERuSAFZxG54uTk5PDpf//LtPfew79WLZ4bNEjDt69yAf7+HNUwbREREblECs4icsXauXMnH8yezWdLl9L6ppsYPHAgN9xwg7GbXOEG/fU53pg0iUbXXsviZUtZvGwpH6ckM+aVsUQ1bWrs/oe9Pn4ci5ct5a9DnjeWKtTr48fx6eJFPN77CWNJRERELpKCs4hc8davX8+7U6awLS2N2JgY+vTuzbWNGxu7yRXKw92d09ZTmEwme5uPjw9tbr6Z/gMH4OPj49RfRERExEjBWUSuCqdPnyZ15Ureefdd8vLyeKZfPx6LiyMiIsLYVa5AVutpdu/eRbf7H6Db/Q8wf95HFBQUUL9+fW659VZjdxEREREnCs4iclXJzc1l8Wef8c6//40bMOSvf+WRhx8mJCTE2FWuICcLC7GeLrL/+/vvvuNoXp5THxEREZHzUXAWkavS3r17WZiUxIyZM/H392fIX//KA/ffT+2AAGNXuQKcKizk9GkrABENGtD94YcIDAoibds2vv3mGwAGPjeYRUuX2OdB/+ezxcxInMn9DzzgtK2opk0Z88pYFiZ/wqKlS/jvks+YOesDYh591KlfGR8fH14aPYpPFy9i6PAX7O1PxT/N3I/msWjpEhYtXcL8pI8ZOvwF+9Dxuzt1YmHyJ/xt1N955fXXSP7vf+zzs18YOcJpiHnzli2Z+K+3+HTxIhYvW8r8pI+pFxZmr4uIiMgfo+AsIle17du3M2v2bD5JTqZhw4Y8/9e/0vW++6hTp46xq1RTHu4enD59mo53383iZUuZMn0ad3fqxMZffmH6lKn2flu3/IrFYjnzOA8P6tarx+N9etPhzjsBaNO2LS+N+jttbr6ZmjVr4ubmhru7OyGhoXTo2OGs+dI+Pj4MfG4wt7Zrx6+bN/Pe1GkADB3+At0ffpiA2rVxc3PDzc0NX19f7u7UiZdGj7I/3s3NjdvvuINWN92El5eXfZvtO3QgrsdjULpPw0cMJ6ppUzw9PQHw9fXV/2EREZE/kYKziAjwy8aNTJk6leWff84111zD8GHDiI2JITIy0thVqhmTlwmvGjVwc3M702YycfMttzD+jQm079ABgG+/+YZecY/Z50GPeunvZGZm4uvryw03NAPg4UceJig4mJzDh5nx3gwei4ll/Ovj2J6Wxvqff6agoMD+HADPDhpIxzvvJHPPHma8N4OCggK63Hcft7Rrx4H9+5k+ZSqPxcTyWEwsM96bQe6RI0Q1bUr0PffYt1FUVMT3333H4AEDGfXS39m9ezeenp5cd911ADzw4APn3Kd9+/Y57ImIiIj8EQrOIiIOfvrf/5j+3nvMnjMHLy8vBg8cyJN9+tC8eXNjV6kmvExeeNWowZcrVtDt/gd4LCaWyf96m/T0dIKCg3ngLw/a+8Y8+igzZ33Af5d8xvgJ/0dERARubm6YTCZuaN6csPBwCgoK+CTpE5YsWkRBQQFrfviBEcNeYO7sOU7P2+yGG7jr7rspKChg0X8XkblnDwCNr7sWc82a1A8LY8DgQXyckszHKcn0f7Y/gUFBeHl5UbduqH07x44e5fNly8ncs4ctmzax4eefKSoqwlSjBi1vvJFGjRtz3GJh4fwFTvt0ODvbYW9ERETkj1BwFhE5h21pacxfsIB/JSRwOCeHmIcfZvDAgbS79Vb7cFipHrxMnnjVqGH/d0FBAalffcXSxZ9RWFhI3bp1uaF5c4YOf4HeffsQEhqKu/vZvx5DQkKoaTZTcOIEWZmZxvJZwsLDOVFQgI+PD3d3uts+jLt+vXpOV78v1smTJykpKcHXbCYoKAifmjU5VVjI/v37jV1FRETkT3L2JwMREbHbt28fS5Yu5a2332bLr79yW7t2DB82jOhOnbSQWDVhu+Jsmx98Lm5ublzfrBmt27ShuLiY71evZvjQYXS7/wE2/fKLvV9OTg4FJ07gVaMGtWvXdtrGuWRmZvLm+P9j586dNLvhBh59LA6AgwcPArB61Sr7sHDHP490685HH84zbO3cTlmtnD59utz7JCIiIpdGwVlEpByOHz/Ot6tW8fbkyaz48ksaXnMNw194gZhHHqGR5kFXWZ6enpg8Panh7W1v8/Hx4f4HHiDm0Vh8fHzIzc0l5/BhatSowYkTJ1i37md2bN/utB2ATRs3kpOTg6+vL4/36c2D3bvj4+ND85Ytef3/xjPoucFO/bdt3covGzbwycdJWI4fp1N0NG3atmXnznQKCgpoe/PNDBg8iIgGDfDx8SGuZ0/emfJv2rRt67QdVzLS0zl29Chms5m4Ho9x5113QemCYbWDgozdReQK1b59e2OTiPzJFJxFRC7SL7/8QuKsWSR+8AElxcU89eST9IuPp03r1ucc4iuVJ6z0lkwmLy/u6dLFfjunAYMHUT8sjOMWC198voK0tDSO5ORQq1Ythgwbar8lVctWrWzbiYjAx8eHr774kuMWC3Xr1qX/s/35OCWZ8RP+j5Y33kiTqKizVtUGWPPDD3zz9dfU8vfn4ZhHWPPDD2z77Te8vb25/4EHmDJ9Gh+nJPNE7ycIj4igeYvyz6fft3cvP3z/PVarlYgGDRj+4kgWL1vKmFdfISIiwthdRERELpFHnboNxhobK1OtWn7U8q1Bfn6+sSTVSOfoaBo1amT/c23jxvj4+BAQEGBv8/T0JOfIEeNDRaqNvLw8ftu2jfUbNlCjRg3a3Xor7e+4g5o1a3L06NGzVliWijHxjTe4s2NHOrRvT3Z2NlFNmhBSr65TH6vVyu5du5j9wSxWpqaSn5+PxXKCaxo2xNfXl5KSEvJyc0n98ktq+fsTFhaGmxt8mpJCeno64RHh1KpVCw8PD4qKijiUnc3K1JVs2riRTtHRhNatS/rOnfy0di0A2377jRY3tqTp9ddTXFzMjGnTSxcBq2u/Gl5QUMC2rVv55ptvObB/P5GRkbS95WZOW638+MOP9iHeLW9sSbMbbuB4fj7Llixl08aNFBUV06BBBN6lwf348eMcO3YMHx8fftu6lc2bNjkcvYhUZ21at+aGZs3sn6caN25M7dq1KS4utreFhoaSlZVlfKjIH2IymfDx8WPvPtvvo6uNW7NW7UuMjZUpPLw+YaF+uo1GNde9Wzduv+02PDw8jCUALBYLY155xdgsUu3d2LIlN910E1FNmrDhl1/YsGEDO37/3dhNLqOxL7+Mr6+vsRmr1UpxcTGj//lPY0lEpFoZ99pr1HBY9NBRQUEB/xwzxtgs8of5+PhQO7Aea9dtNJauChpTKJfF2p9+Ijcvz9hsl63bpMgVauOmTcyeM4dp06dz8uRJHu/Vi2efeYZbbr4ZL6/zL1A17rXXeGHoUGOzXILCkyeNTVD6Tbn19Gljs4hItXM4J8fYZGexWIxNIvInUHCWy+LAgQNkZGRw+hwfUi0WC9/98IOxWeSKsiczk0WLF/PWv/7Fb9u2cVu7dowcMYK/PPgg11xzjbE7Hh4ehISEMODZZ40luUhHzvOB8tSpU6xfv97YLCJS7ezcuZPCwkJjM1arle/1GUvkslBwlsvm21WrOHrsGCUlZ2YDuLm5cfjwYTZuvDqHeMjVJ//4cVatXs3kd9/lv//9L7X8/Hhu0CCe7d+fdrfeau9nMpnw9PQkLCyMHo895rQNuTi7du8+a365m5sbB7OzWfzZZ07tIiLV0eLPPuPosWNObSUlJRw+fJif9QWhyGWhxcHksjl+/Dh1Q0KoV6+efaXh/Px81v38Mxm7dhm7i1zxDh06xOYtW9i8ZQs+3t7ceuutdLnnHu7r0gU3NzcATJ6eBAYFEVa/Pps2bzZuQsohNy+Pm9u2dZr/l5uXR9Inn3D06FGnviIi1VUNLy8aRETg6ekJwMmTJ9mWlsYmLQYol8nVvjiYrjjLZfXd9987XXU+nJPDyq+/NnYTuaocOHCAz1esYPI777Bk6dKzFtHz8fbm2muv5Y7bb3dql/I5cuSI0/w/i8XC559/zu7du536iYhUZ19/8w25ubn2f1ssFpYsXerUR0T+PArOclkdOHiQtG3bKC4uxmKxaN6NiIPCwkIeuP9+YzMlJSXUrFmTe++5h7vuvNNYlnLYlpZGcXExhYWF/Prrrxq6KCJXpF9//ZWCwkJOnTrFDz/+yMnzLI4oIn+cbkdVTmazmdq1axubpRyCAgPp3q0bhYWFzF+40FiWctL9GK9ME994w2kdgDJubm6UlJRgsVhInDXLWJYLaNy4Mfd27syhQ4dI/vRTY1nOQeeYq0N4eLixSaq5vr17AzB/4UKsVquxLNVYVTsvX+23o1JwLiez2czwYcPIOc9qreJaWQiQS2P29eXNiRONzXIFmPTmmxw7dozjx4+f9z1y6tQpY5PIn+rrb79l69atxma5ArVv354bW7QwNotIFfPbtm1VbnqjgrOCc7mUBedejz9uLIlcVo0aNeIf//iHgvMV6rG4OEJDQliyZAnLli83lkUuuzcmTGDt//6n4HyVaN++PeaaNZk8ebKxJCJVxLP9++Ph6angXMVojrOISCX6OCmJ7OxsY7OIiIiIVCEKziIiIiIiIiIuKDiLiIiIiIiIuKDgLCIiIiIiIuKCgrOIiIiIiIiICwrOIiIiIiIiIi4oOIuIiIiIiIi4oOAsIiIiIiIi4oKCs4iIiIiIiIgLCs4iIiIiIiIiLig4i4iIiIiIiLig4CwiIiIiIiLigoKziIiIiIiIiAsKziIiIiIiIiIuKDiLiIiIiIiIuKDgLCIiIiIiIuKCgrOIiIiIiIiICwrOIiIiIiIiIi4oOIuIiIiIiIi4oOAsIiIiIiIi4oKCs4iIiIiIiIgLCs7VWZOuDHpjJguTkklJtv2ZO3Ucg7pEGXtWeX0nJZOSPJG+xsKlenIiKcnJTHrSWBCRC/Fwd6d3794kzpzJJ0lJpCQnM+/DD/nbiy8SHh5u7F5lvPTSSyxcsIAHH3jAWLpokyZO5MO5c7nxxhuNJfr26UNKcjJ9+/QxlkTkIrwwbBhJpeeYlORkPklK4oPERJ7p1w8fb29j9yrBw92d1159lXkffkinTp2M5cvi+eefZ+GCBfTs2dNY+kPatGnDK2PHEhERAX/yOfTPdmfHjsyYMYPkTz5h3ocfcu+99xq7XJKIiAhe/uc/ubFlS2NJ5CwKztWUudMQpr0ST3TjAEwOP0VzSBTRf+nEZfloe1NPRr89k/G9jQURuVL4+/szduxYunfrRkBAAO7uthOMj48Pbdq04dZbbzU+RETkknjVqIFH6TkGwN3dHX9/f7p06cKQIUOcalVdr549SXj7bVpWkwDWqFEj4p9+mtzcXDIzM43li+Ln58eAZ5/ljTfesIfwP1Pz5s3p27cvQYGBuLm5AZCTk2PsdkkyMzM5ZbUyYMAAGjVqZCyLOKk+ZyQ5w9yNkX07EGICy87lTP1bP2JiY+kzZBrLd1rI272BLONj/gw3tqZ1RABeHsaCiFwpevXqxfXXX09BQQGffvopT8fH88QTT5CSkkJOTg47duwwPkRE5JJZrVZmzZpFTGwsAwYOZMWKFVitVpo1a8aNrVoZu1e6ouJi/vnyyzzRuzcrV660t7du3ZqgoCB7sPszvfPOO/To2ZMFCxYYS5csLi4On5o1Wfn118bSRQsICKBVq1b416plLP0p7rj9dmrVqsXOnTsZMnQozzzzDL9s2GDsdslWffstvr6+dPvLX4wlEScKztVQi/j7aGEG667FjPtbIqk78wCw7E1l5t/G8+aiNcaHiIhcUFRUFDe3bYvVaiXpk0/4aP58jh49SkFhIfMXLGDChAlkZGQYHyYi8qc4dOgQM95/n/T0dLy8vKhfr56xi/wJWrZsSVRUFPv27mXTpk3GcpVTOzCQ06dPs2r1arKysigoLKSouNjY7ZKtXbuWAwcO0LJlS5o3b24si9i5NWvVvsTYWJnCw+sTFurHvn37jKVKZTabGT5sGL0ef9xYqmCBDPr3DKLr5rFmQj8mrjPWjaLoNnwg3duGE2ACiq1Y9m9m0fuTSdliAaDDS3MYen06c6Zm0fGZzkQGmACw7F1P8pTxLN5e2qet2bDtDBbHjmQOHRg9awitWU/C/2XQ9cUYogKAvamMGjKNtCbdGDmwG23CSoeVWy1kbVzMzHdT2GzbBfpOSqZbw7Lt2Zh7jCMxNgrb3pTu++FtfD51EvNL992m9BhvDSfAHSjOI2MPRDYMIGNJLCNml27v1nhG9+1IVEjpcRTmkfHtHF5/fzV5AB1HMff51rBuMuN23ceLj0QR4A6vv/gUG9LzHZ6vYjVq1Ih//OMfvDlxorEkV4gecXH89NNPLFu+3FiqUDExMTwWF8fvv//OP//5T5cfTJ54/HG6d+9uH8pdVFTEgQMHmL9gAWvW2L68u7FlS5586inCwsJwd3Pj+PHjrFm7lunTp9vrvR5/nMiGDfHw8KCgsJDNmzYxa/ZssrOznZ7PKDw8nH7x8TRt2hSTycSx/HxOWCwEBQUxb948lixdCsAjjzzCfffdR+2AANxK92H1d98xe9Ysl8c3aeJEQkNDmfTWW2zcuNGp1rdPH7p168bixYuZM3cud3bsSK9evQgMDAQgLy+PFStWkJySAn/wOCvCGxMmsPZ//2Pr1q3GklyB2rdvj7lmTSZPnmwsVbiXXnqJVjfe6PSe9XB3Z8KECURERNjby97vUVFReHl5UVRURMauXcz/6CM2btpEREQEo0eNwt/fnwMHDxJWv77tvVZQwPoNG5g3b579vebv70/800/TunVrfHx8KCoqIisriwULFvC/dbYPVed7TxcWFvLEE09gMpk4ceIEk956iyNHjjB61Cjq1Klz5sCAjIwMRowcad9e7KOPEhoairubGydOnOCHH35gzpw5FBQW2vcf4OOkJHo89hhBQUFkZ2dTq1YtfHx8sFqtTq/THzmvPNm3Lw8++CDLli/ngw8+sLcbfx59+/ThnnvuISUlhY533klYWBhuwJEjR5g/fz7frlrFjTfeyIjhw6lZs6bTc/xv3TomTJgA59jXU6dOkZaWxszERLKyssp1/GXKXofly5fz2muvERV1Zl2fgsJC0rZt470ZM8jOzubBBx6w/7yMSkpK+HbVKt59910ABgwYQHSnTixatIh5H31k7F7hnu3fHw9Pzz9lRMCfycfHh9qB9Vi7zvn34tVCV5yrnSaEBwH56awvR2juO2ksfW8rDc0A7ibMYa3pNXosfZs4dDW3oO/IrvbQDGAOa03fwfEXMV+6Nt3LQjNg2b+FtCZ9mPRKH9pFOMzFNpkJb9uT0a/0wdUyZpbPtpBudWhwN2EOaUHM6FHE2DO8wzGWbd89gMiGpTtRytxpFO+M7HomNAN4BxDZZQhvvRSN01cCwd14MdYWmsHCyfzKC80iFSk8LAwPDw9+37nTZagE2LR5M8ctZ77A8vDwICwsjP7PPEPz5s2pU6cO8fHxNIiIwMPdHTc3N/z8/Kjh5QVAu3btGDZsGNc2boyHh23+h4+3N7fccgvDhw/H39/fvm2jRo0aMXrUKFq0aGH/QFTLz4+6des69YuPj6dHjx4EBQbi7rAPXe+7j+HDhzv1vVRRUVH07duX4OBg3N3dcXd3JyAgAFM5j9P4YVPkalZ23ggPD+fYsWNs/e03p/e7V+n7ysPDg2sbN2bosGG0adPG/ngvLy/bOafsvebjwx23324/p/j7+zNq1CjuuOMOexjz8PDgmmuuYfDgwbRr1+6C7+mL9Ze//IUBAwZQv149+7nQbDbTuXPns+Zxe3l50atnT4KDg3Fzc+Po0aOUlJx9fetC5xVX50+A65s14/Tp0xcM2JS+hr169bKfy93d3QkODubxxx8v15zgc+2rl5cXLVq0YNTf/+40J7q8x0/pkPmtW7dS7PC7ysfbm1atWvH8889fcH78zvR05s6da//3oUOHKCkp4frrr3fqJ+LI9f8qqYK88SrNtqeMJaMuPYhuaAJrFqlTh9KnbB70LguYIonu0dWpuzV7PfPH9SMmti9DEtfbrsKGNSUaWD2hLzFLbEM0M5bEEhMbS4zD1WEA/CKJZD0zh/Qlpv9IxsxYTdce0USawLo3lalD+tq2PXU5GRYwNYymZxfHDRhYFjCqZ9lzxRLTfzypmVYwNaJN6a6be/Sha0MTFGaROn0k8aX9nK9Ih9Oze2sCgLwtCxjXP5aY2H6MW7iebCsEtP0LPR3WsjA3jIQNiQzpG0v838ay45DDpkSuYD6lIa7o9Glj6SybNm3iqaeesr8/hwwdyq5du/Dz86NFixZ4e3vj5eXF8ePHSZg82d5v8jvvAHBP5874+fmxa9cuRo0eTVxcHO/NmMGxY8doeM013H3XXcantHuoe3dCQkLIzs7m7YQE4uLiGDV6NHscFri5uW1bOnbowN69e5k4aRJxcXHExcXxdkICOTk5NG/enNatWztt91J4e3tjMpk4fPgwfx81ipjYWB6Ni7PPRbzQcWpYoFztTCYTTz31FCnJyUyfNo0uXbrg4enJ2p9+Ij09nbi4OAICAlixYgUDBg60z4VetWoVZrOZe+65x76tU6dOkZySwhNPPMHT8fF8+umnnDhxwn5Oufuuu2h4zTUcP36cmYmJ9nPH77//jp+fH/d07uzyPb1k6VJGvvgihw6d+WCQmZnJgIEDycjI4MSJE7z62mvExMYyYuRI/Pz8uPuuuzCZTGzctIkhQ4fyxBNP8Omnn3Ly5EmaN2/utOCiv78/p0+fZszYsQwYOJB/vf02vfv0OWuKzIXOK67OnxEREfjXqkVxcTEnTpwwls/p2LFjvDdjBnFxcbz77rvk5+dTq1Ytml1/PRs3bmTU6NEcOnSIQ4cOMXTYMGJiY5kwYQJ+fn48/PDDuLm5sXDhQp6OjycmNpaRL77Ixk2bqFOnDtEOK5Of7/j/t26dfS58j5497Vfd5330EY/Gxdl/v0yZOpXjx48TVr8+UVFRLFm6lB49e575HBkby7Lly9m3fz/vvfceR48etT/3ycJCiouLCQwMpJ6mCMh5KDhXO4WccrwK60KHmxphxkraotFMXZmFpWwe9JhUMgBz5E10cOif9dN4UjbkARayls/l5wMAZszlXiAxm9Q3x7N8rwWOZJBxpAOtI81gTWPxqGmk7rXYtr0ykTFfZwBmGt3kuAdnC2gfz/ipc2y3qpgxiugIE2DCyxfATGzbKExYWD9jKFO/yrCF/SPrSdnl+C1qJ5qGAUfWMGVsCuuPAOSxPnk88zdagHCaRjt0P5DKm+OWk2WBvJ0ZlPPlFqn2Csr5IapMp06dePfdd0lKSmJyQgINGzbE3d0dL5OJzMxM/rduHTVq1OCOO+5wujIRERFBWFgYx/LzmTN3LmlpaRQVF/PFF1/w7bff4uHhQdPzfOsfERFBkyZNOH78OB988AHfffcdRcXFpKWlcfDgQXu/ptdfj9lspkFEBCNHjCApKYmkpCSGDR1KcHDwnzZ/csvmzfz666/4+/tzT+fOTsM1y3OcVfn2XiKV4cSJE8z/6CMSExOpV68e1zRogJeXF126dGH6tGn2gN2xY0c83N0JDgqyP/b06dNs3bqVgsJCjh49ykfz5/P9Dz/g6enJNddcQ9Prr8fd3Z0vv/yS5cuX288dHyclYbFYCAsLIzc397zv6YvVqFEj6tSpw4GDB5k+fbp9fu5H8+ezecsWfHx8uO666+z9y9aT2LJliz2IGpXnvHK+8ydAYGAgZrOZoqKicq9MveP33/niiy8oKi7mm2+/JSMjA3d3d2pc4JZhkZGR1A0NxdfXlx49evBBYiIpyclMfPNNbmzZEnd3d+o6nIfLc/yOfLy9eaZfP2bPmkXyJ58weNAgfH198fT0POcIgb/85S90aN+eZUuXkp6e7lTbf+AAp0+fxtPTE7PZODVRxEbBudrZR3Yu4BdOiwsE2kbBZuAUln2OV18BSwa5Fxx9nIWlEMBM7Uhj7Tzys0jb7tgQSW0/oNBCpnEX0nMxNJ0l6smJTB9qGF7tpLVt2DrZZK0y1hx0DCcE4Fg26w2l1QfOHqZk2b+dNGOjyFUg+9AhiouLadiwobF0lvj4eKfhh+eSmJjIjPffJzw8nDcmTGByQgI3t21r/+B2srCQ3Nxcp8ccPnyY0y6ueJc9tqCggAMOQdkoLCzsD69u6+bmhqenp7HZSVFxMRMnTiQ5OZlWrVoxdcoUxo8bR8OGDf/QcYpcLcquJD751FPs2LGDGt7eBAUHAxASEoKvr6/xIRel7AtBn5o1CQ4KoqioiLw826KqZQ4dOmS/+lpSUnLe9/TFiggPx2QyUVhQcNaw6P3nWMvHcvw4e3bvNjY7qQrnlZOnTuHh4YHvBQJmg4gIatSoYWw+r/Icfxl/f3/GvvIK9913H35+fhc837dr146HH3qI1d99x/LPPzeWOX36NCUlJXh7eys4y3md+9OOVGF7+HmPBQih45BzzRE206K5rTX9sAXwwlzfcAKIaEKIH1B06pKuppo8zn9CcR4+XhrQvc1EGB4SHhWCGbAWOe6BCZO9X1d63h2JCQsZK6Yxor9tiE3COse4nYelAKA2IW0dmo1WZZENUCsE48DMrg1CbH8pcmgsuuAgeJErUlpaGgUFBTRt2pS/nOO2HNc0aEBISAiNGjXi1ltuobioiJUrV9qHT5YtrONo5cqVPPfcc7z55pv4+PgwcOBAAgMDsVgs1PD2pnbt2k79w8LC8PT0PO9wceupU5w+ffqcj3VU9qH0y6++chqmV/bHcbjf+dSoUYPrmzZ1avNwdz9rXl9RcTHJKSk8078/iR98QEREBMNfeAHggsdZXOR48hG5euXn5zPvo484np9Pxw4daNeuHUeOHMFisXDkyBH+9tJLZ72PY0qHRLtSFrwLTpzgcE4OHh4eBAQ4r4MSER6Or68vJSUlnD59+rzv6ZCQ0s8M52H8si0zKwur1Yq3j89Zj23QoAElJSUUO8zhNf77XMpeE1fnlfOdP3E4h14Obm5uuDsE2LLjz8zM5EmHqT2Of8oWEKOcx1+mbNh9Xl4eMxMTeeKJJxg6bNg5r1I3atSIPr17s337dmbPmmUsAxAUFISHh4f9/5vIuSg4V0OrP0olwwqmht0Y/UY80Y1tvwDMYe2IeWkio0f3o28TWP17FlZMRHUeQcxNZX2iGTSiM+GAZc+vXMqNq0Kb96G1baHJC1jNtv1WMEURPTKm9DFmwjsNZGSncMBC5ibHPQinzYAO2Pa0Dr5moDCLH5etIeOc57DNpB2wAAG06z+GmFvDbYt8BUbSrSwQA7CBrGwgsA19B0UTbgYIoHXsGGJbmoEstn3j0F3kKrV+/Xq2/vYbXl5exD36KI/36oW/vz8+3t507dqVl19+maefesrW5uODxWLhxzVrzvlBxWj/gQOcOHGCmjVrYq5Zk5ycHPx8fXnooYcIDw/Hw92drl27cvvtt1NUVHTe+0VnZmWRm5uLn68vfXr3pmXLllA2JLL0KhXAjh07KCgo4I7bb7cfh4e7O/feey9vTJhwVvg1yszMxN3dnS5duvDwww/j4+1NnTp1eO6557i+WTNOnjxJZlaW8WHs37+fwsJC+wfzCx3nvv37jZsQuWpt2bKFpcuW4e3tzWOPPcaxY8fYu3cvtWvXJv7pp+3v9/DwcF566SWefvppp8e7ubtTv359PNzdqVOnDv2feYb27dtz6tQptm7dyu7Sq5kdOnTg9ttug9IF/mJiYvDx8WHfvn3sN7wnHd/TF5r7WqNGDW655RZ8Socw79u3j7yjRwkJCaFHjx7282nv3r1p1qwZhYWF7Pz9d+NmXMrMzLzgeeV850+A3Lw8CgsL8fDwIMhhmPufwd/fn5tvvtk+Cik9PZ1Dhw5RPyyMwYMH28+7UVFRvPbqqzzUvbthC+Xn7++Pp6cn+/bt44cffqCgsNDYBUq/7IyLiyP/+HGmTZ9+3oUva/r44O7ujvX0aQrPsy0RBefqKHMu76+wzb01N+7KoDdmkpKczNzJI+jVNgRT2QWM5Lks32WFgBb0Gl3WZyDRYSawZpC68CJvfbPlIHmAKSKa0TOSSUlOJnFkO2MvJymzl5NhhYDmPUsfM4fJg6IJN4F1VyoLVtj6bc6yDWEKuW0IiZP6ACvZthfwjqLX5NI5zsnJ9ltihTTshhlYvtD2JQKBLeg1MoG5ycmkzJhI35aOl7g3837yevIwEd5pIJPnJJOSPJPRPVrYFgxb9xkLzqwpJHJVS0pKYv+BA9SsWZNHHnmEDxITmTdvHv3i46lVuqBM2YehgIAARo8aZX9/3tzWNvTjmoYN8XB355//+Ie9NjkhgYiICAoKC9mTmclnS5Zw/PhxbmzZkskJCSQlJdEvPh5fX1927d7N19+c+9us/Px8vv7mG6xWK5GRkYx5+WX7nDnHoZRr165l06ZNeHt7248jKSmJZ/v3p2HDhrRs0cJpu0apK1eSl5dHzZo1eeLxx5k3b559XqW7mxubNm3i22++wc/Pj3+99Zb9OF/+5z8JDAzk6LFj7N+//4LHuWXLFuNTi1zV/vuf/7Dhl1+ICA/n2f79+fKrrzh27BhNmjSxv9/Lpn00v+EG/Pz87I/18famX3w8SUlJ9oXGTCYTGzduZOXKlSxbtoz0jAyCg4MZPnw4KcnJ9mHY+fn5fPnVVxd8T5/Pvn37cHd3p3N0NPPmzWPhggW0adPGNjf49Gnu7NjRfj59qHt3TCYTW7ZsYe3atcZNXdCFzivnO39S+kXAkSNHcHd3p6bDbZ7+iH1793LkyBFMJhM9e/YkKSmJObNnExkZycqvv8Z66hQ3t23LxDfftL/mzZo1o8UFzsOulH052qxZM/vc6YS336ZOnTp4eXlx7bXXAvDkU0/RunVrrm3c2N6v7M8kh9t81vD2xt3dncPlmFstVy8F52oqbfZIBiQsJy3bgrXsy7NiC9nblpPw/EjmbAdIY86Y8cxfl4XF3sdKXuYa5o8bW9rnIqybRsKnaeQ5bMtkDjN0Mtg+lzHjFrB+r8MQa2seWT8uYNyYufa5xOsTJpOyKfvMfpLFzClznR5nzcsiNTGRNdlWzM1jGNrx/NvP2OU8f8mycjzDE5aTkecwNNySTdqKyQyfkHrB+dYiV4v09HReffVVvv/hBywWi23oXHExOUeO8PHHH/PWW29x9OhR5syZw57MTIqLiykqLiYnJ4ePk5LYu3cv1zdtSveHHqK4uNh+FaC4uJjDhw/z4YcfsmnTJtasWcOUKVPYk5lpvwJQUFDA9z/8YH+O8/nss894f+ZMDh8+THFxMSUlJRw9epQDBw7Y+xQVF/PWW2/x8ccfk3PkiL2fxWJhw4YN/GK4N7PRli1beO3119myZYvTMRw9epQVK1YwefJkioqLCQgIoLCwEKvVdm4pKi5mT2Ymc0rvpXqh4yzvqrYiV4ui4mKSkpI4dOgQN910E3Xq1OHV115jy5YtnDplm0pVVFTE/v37+ebbbznhcFs8q9XKoUOHKHJ4v3/11Vf29+vRo0d56623+Omnn5y29fvOnUyZMoU1a9Zc8D19PvM++ogtW7bY3+dFRUX416p1zvNVfn6+03nkYl3ovOLq/Elp6PT09CQkNNRYuiRFxcXMnjOH3bt324+xuKSE4OBglixZQkJCgu02h6VTU6xWK+np6axevdq4qXL74ccfWbRoEcdKbxlqtVrZsWMH//nPfzh58iT3dO5Mr5496Rwdfd51OBzVqVMHNzc3tru4Wi/i1qxV+/JNJqgg4eH1CQv1Y985Fk2oTGazmeHDhtHr8ceNJZHLqlGjRvzjH//gTYdvRuXK0iMujp9++ollyy9yFIjIn+CNCRNY+7//sXXrVmNJrkDt27fHXLMmkydPNpaqrYiICEaPGoXZbGbSW2+x8QJfjF3tWrZsybBhw9iVkcErr75qLF+Vxr3+OnXq1GHCG2+cteJ2ZXi2f388PD1Z+fXXxlKl8vHxoXZgPdauuzrfYxf+CkZERERERK4ImzZtYuMvvxAWHn7B9R6uBi1btqR+/fps+OWXKhGapepScBYRERERuYqkfPop1lOn6NKli7F01el0990cPHiQ+fPnG0siThScRURERESuIpmZmUx+5x2CAgOJiIgwlq8aERERmEwmZrz//gXnhosoOIuIiIhItZWZmcmAgQPp3aeP5jdfhO3bt/P6uHFkZl69txbJzMxk4qRJGqIt5aLgLCIiIiIiIuKCgrOIiIiIiIiICwrOIiIiIiIiIi4oOIuIiIiIiIi4oOAsIiIiIiIi4oKCs4iIiIiIiIgLCs4iIiIiIiIiLig4i4iIiIiIiLig4CwiIiIiIiLigoKziIiIiIiIiAsKziIiIiIiIiIuKDiLiIiIiIiIuKDgLCIiIiIiIuKCgrOIiIiIiIiICwrOIiIiIiIiIi4oOIuIiIiIiIi4oOAsIiIiIiIi4oJbs1btS4yNlSk8vD5hoX7s27fPWKpUZrOZ4cOG0ffJJ40lkcsqIiKCf/zjH7w5caKxJFeIHnFx/PTTT3z51VfGkshl9/prr7H2f/9j69atxpJcgdq3b4+5Zk2mTp1qLIlIFfH0U0/h4enJyq+/NpYqlY+PD7UD67F23UZj6aqg4FxOZrOZUS+9ZGwWqRBHjx1TcL6C9YiLo0WLFsZmkQrz0YIFCs5Xifbt29O1Sxdjs4hUMakrVyo4VzEKzuXk5eWFh4eHsVmkwhQUFBib5Arh4+NjbBKpcDrHXB10vhGpPqraeVnBWcG5XNzc3IxNIhWqpKRKvVXlT6Tzi1QFOsdcHXS+Eak+qtp5+WoPzh516jYYa2ysTLVq+VHLtwb5+fnGkoiIiIiIiFQCk8mEj48fe/cdNJauClpVW0RERERERMQFBWcRERERERERFxScRURERERERFxQcBYRERERERFxQcFZRERERERExAUFZxEREREREREXFJxFREREREREXFBwFhEREREREXFBwVlERERERETEBQVnERERERERERcUnEVERERERERcUHAWERERERERcUHBWURERERERMQFBWcRERERERERFxScRURERERERFxQcBYRERERERFxQcFZRERERERExAUFZxEREREREREXFJxFREREREREXFBwFhEREREREXFBwVlERERERETEBQVnERERERERERcUnEVERERERERccGvWqn2JsbEyhYfXJzy0lrFZREREREREKlGJWw3WrttobL4qVLngXL9eXWOTiIiIiIiIVAH79h8wNl0VqlxwFhEREREREalKNMdZRERERERExAUFZxEREREREREXFJxFREREREREXFBwFhEREREREXFBwVlERERERETEBQVnERERERERERcUnEVERERERERcUHAWERERERERcUHBWURERERERMQFBWcRERERERERFxScRURERERERFxQcBYRERERERFxQcFZRERERERExAUFZxEREREREREXFJxFREREREREXFBwFhEREREREXFBwVlERERERETEBQVnERERERERERcUnEVERERERERcUHAWERERERERcUHBWURERERERMQFBWcRERERERERFxScRURERERERFxQcBYRERERERFxQcFZRERERERExAUFZxEREREREREXFJxFREREREREXFBwFhEREREREXFBwVlERERERETEhf8HabmPguRl7VcAAAAASUVORK5CYII=;" vertex="1" parent="1">
                    <mxGeometry x="-1090" y="470" width="974" height="393" as="geometry"/>
                </mxCell>
                <mxCell id="4" value="" style="shape=image;verticalLabelPosition=bottom;labelBackgroundColor=default;verticalAlign=top;aspect=fixed;imageAspect=0;image=data:image/png,iVBORw0KGgoAAAANSUhEUgAAAbkAAALVCAYAAABdip+UAAAAAXNSR0IArs4c6QAAAARnQU1BAACxjwv8YQUAAAAJcEhZcwAADsMAAA7DAcdvqGQAAD+MSURBVHhe7d1/WNTnne//F4kk6oQoIvgjYJj8KNFVcSmnOU2FVFPjVvnS7leSfLOJgN/NnpNsv0F7iqeu9pyTNtF6HemJmivVnrarkOTKSYLZhsskNYlmI23cppQVdZuwiQwigiBIkAyIaPj+MTMfZm5QUQSGm+fjuuZave/785nPzDbz8n3f92cm4j9Nr+sWAAAWus5sAADAFoQcAMBahBwAwFqEHADAWhGz5s1n4wkAwEpUcgAAaxFyAABrEXIAAGsRcgAAaxFyAABrEXIAAGsRcgAAaxFyAABrEXIAAGsRcgAAaxFyAABrEXIAAGsRcgAAaxFyAABrEXIAAGsRcgAAaxFyAABrEXIAAGsRcgAAaxFyAABrEXIAAGsRcgAAaxFyAABrEXIAAGsRcgAAaxFyAABrEXIAAGsRcgAAaxFyAABrRcyaN7/bbBwt4m+ZpulTJ5vNABA2znzRrk8qj5rN6KdRH3JTJo9Xa2ur2QUAw27s2LE6330jITcAhNzk8WpsbDS7AGDYTZgwgZAbINbkAADWIuQAANYi5AAA1iLkgCvwyPJH9XrJG3pyZZ7ZBSAMsfGEjScjyoKFC/X49/5e48aNC2l/d88ePbdla0jbYHhk+aNa9sADen/v3kF5vou9Pkk63dys/1XwM82ZO0fLHnhAY8aMkSSdP39eu157TS+98KLUj3Ns//nP9S8H/sXsQhhi48nAUclhRDpeU6PMJUuVuWSp3t2zR4sWL9bz27eZw0as4NcXeOQuz5YkLbr/fv35yBGn/c9Hjijzu9/VgoUL+3UOAg6jCSGHEe+5LVt1vKZGk2Nje33Q2+ZQRYVyl2frR2vXOW0NDQ0aN26cZs+ZHTIWACEHS7ScPq3IyEjNS0nRzheK9L//8dfa+UKRSt56U6+XvKFHlj+q57dv084XijQ3Odk57smVeU5/wDMb1qvkrTedR18V4l0zZ4aMMdfonlyZF9Lf1/Neqh/AtUHIwQrRkyapq6tLTU1NkqSpU6eq9vhxZS5Zqv878zvOetXlPL99m+5MStKzBT9T5pKlerbgZ5ocG9tnCAWmAA8dPKhFixfrmQ3rJf+a2FdTU0POMW78eP3nJx53+uenp+vQwYMh04iHKipCzt8fc5OT9dXUVHV0dOjI4SNmNzDqEXIY8Z5cmaeEGTP0aWWlKv71XyX/BotXX3nVHHpJjyx/VJNjY1Xym9/o/X37JEnv79un3+3fr5snTNCcuXOcsZ98/LHz5x+tXafjNTW6MylJCxYu1Pv79il3eXbIOT6trOw1nRo9aZLzZ1PCjBmXrBQDHnzoQU2KidGnlZXO8wX09xyAzQg5jEjBH+CLFi/Wu3v2hKxTeb3eK66MZs6cqXHjxumhhx8OCYdFixebQ3v55OOPFRkZqem3TJf81doru4qdc8ydN88ZGwjOhBkz9Mqu4j7XEc1NI33t5Hxk+aOaNXv2RQO9P+cAbEfIYUQarA/w8+fP65WXXw45d+YVTnk+svxRPblqpZpOnXKOP3TwYMiY57ZsVeaSpfq0slLfz/9Bn+t+lzI3OVmL7r9fkvTuO+9ccaADowUhB/g1NDRozJgxmnSJacSLmTJlirq6ulR3ok4zZ85UV1eXil99TfIHUnxCgnmI5J/qfHfPHiXMmHFF04mBaco/HznS7/AFRiNCDqNGy+nTIWtrgQ0gAYFbERbcd1/Ibstnt24J+bv8oRYQmDYMrIs1NDSETF0++NCD8nq9IW0DEXi+jo4O7X1vr9kNIAjfeMI3nowogW/zaDp1St97/AmzW3OTk/Vf8n8gr9fbZ//z27cpYcYMSVJHR4cOHzqklK9+NeQbQ4LHSNKZM2f02iuv6o1/+ic9svxRfXvpUp1qbNTtd9zhjDG/cSX4HIcOHtSrr7zqXFfxq6/1+kaSQwcP6kdr113220r+6Z9+o7/+6+9qUkyM2a2Ojg5tf/7nknTJc/CNJyMH33gycIQcIQcgTBFyA8d0JQDAWoQcAMBahBwAwFqEHADAWoQcAMBahBwAwFrcQhAmtxC4XC79VT++IxHA4Pu3f/s3fVJZaTYPOW4hGDhCLoxC7sEHHtDbb71ldgEYQnOTk1VVXa3PPv3U7BpyhNzAEXJhFnI//OEPzS4AQygvL4+QswhrcgAAaxFyAABrEXIAAGsRcgAAaxFyAABrEXIAAGsRcgAAaxFyAABrEXIAAGsRcgAAaxFyAABrEXIAAGsRcgAAaxFyAABrEXIAAGsRcgAAaxFyAABrEXIAAGsRcgAAaxFyCA/pa1VUXKyCXLMjfKWtKdSu4k3KMTvCzQh8b4FrJWLWvPndZuNoEX/LNE2ZPF6NjY1m15BzuVx68IEH9MMf/tDsGhq5m7Qrw200elSStVqFRuugSF+rorwUNe7OUv5Os3OQ+J/TFdTkLdui7I2lQS0Xl7amUKtSG0PfI//76LmC1+E7j1S+NUfr95u910A/3tuLX0O2Cooz5a4u0bJ8j9btWKmUqOB+k0flZXFKSQ1+V3vzvT/+c/fZZzQOoby8PFVVV+uzTz81u4bchAkTdL77Rn1SedTsQj9RySGEZ3eWlmX5HiXVbmVaWwFkqyAvRa7qkqDX61Xlh/0LuIuqapHXbLuM0pPmP7KyVVBcrKI1aUb7cCvV+hU9//tYtrVcXuN/M8uyVmv9xpygv29ReZukoPd5WZYRYsF9uz1yZxRrV0F20ADg6hFyuKjC/BJ5JLlnW/iBkztHbnlVXlLkNBXmm1XMVdi/Qdnmh/jl7FytZVnX4LltsHO1SqolJc7Rt8w+4CoQcrgEj1raJMXEK82pLtaqoLhYu4qL/etRfVcdOQXF2rVjrYJbcwoCx/ke5jGSpNmbQsb0qiJzQ/vN5wisP/Vq75NL0beZbcHStG5H8DUXal26OSZI0LWZ132x1+5b1ws+d88Unit1Zehr7HNtzX+NIZWPcd0rkoL6wl9Vk1dSnCbPMXuAK0fI4RLcio6S1FyrwCSeKzVFcqan+rte5/vQzYwp1+agqS6lruw1LeXWYWfqanOZV+6M4DDMVkGGVOJMe5XIE5WiVVcztbWzROVtusTUWLYKilcqRT3XvLlMSskzQybIztVatttjNPpfe6In5LobUx/TunSpdGOONpcFT3AWKT/LV0F7y7b4xq/Y4Lz/l9f7upd90Biy7hjubpvsktSopsNmD3DlCDlcVE5BZq8pPVWXXNlUnCTlZiolyqOS4A/r/Rv0yzKvlDgnZHei50jPc5VuzFFJteRKzfSPKVJ+SLAW6Q3zHP7pwssHg299yTc1lumreILCLm3Nfb7XvqPnPKUbf+ULxiuZvs3NVEqUV+VbQ687f5CmJ33XbbzX/V4ndCklL7Ti3NXHxpBBlbtJmYmSt6xE75l9wFUg5BDCndHzAeerPkI/jL1NZqVyeTmz3ZJ8m1iCP0BXXWYHniQVHvFIilO8M03omx69knNcSmF+T9WoxEwn6G6b7JLaKrU/JIhKVdscmL7tH99rb1TtIARab2lKT3JJ1Yf7WWGbvCrf2rM5xKmWzWHXWuAfGcXFzs7U/u5wBS6HkEMIc6fc1X1Y9iV4uu4qnyN9rYoC29n9x4dO9V29QNVoVpbXRFuLqsw29LjUzktggAg5DLrARoKeaqz/0qbGOZVQ2j1JcsmjkvzAlKa/crlGfNcZ9OeoJKWHXHOa4mNC1ygvp+/zDJYrrzQB2xFyGCDfDkxXUlrPB6t/XSXAt5blUkpe8LeDpGndjt7fFhI3NejjOX2t/i7VJW9ZiQqd+8l6wjJtzWOKbjamM/u9uzJbBcFj/M8VmOor3bhXHrmUkhm8TveYb33Nv0bpux635lxsI0rwefrx2nv08Z5K0v5aNRq3dPiuqWdI4RGPZG7GuS16RG08Aa4lQg4DVKr1K/y7HAPrKrMP+6b+QsZsUXlb8LrcSqU0t6gqpMLxqFKP9azP+L+lw1mf2blaJdU9myP+Tr9Sfn6JL0CDwqhfcufIHXzNeSlS2RYtc6pE/y7HoPWiXt8IsnN1HztATUXKz+r92pMqDxuvPVip1u8olzfo+nw7OouUv7Vc3qBr+jvt9d1sHbBzte8m7eB1rnvj+rnxBLAPX+vF13oBCMLXetmFSg4AYC1CDgBgLUIOAGAtQg4AYC1CDgBgLUIOAGAtQg4AYC1CDgBgLUIOAGAtQg4AYC1CDgBgLUIOAGAtQg4AYC1CDgBgLUIOAGAtQg4AYC1CDgBgLUIOAGAtQg4AYK2IWfPmd5uNo0X8LdM0ZfJ4NTY2ml1DzuVy6cEHHtDPf/5zswvAEPrOd76jqupqffbpp2bXkJswYYLOd9+oTyqPml3oJ0IujEJuRU6O2YwR5LrrrtMNN9ygL7/8UufOnTO7MYLsLy3VocOHzeYhR8gNHCEXJiEXERGhm266yWzGCHLL9OlKT0tTQ2Oj9r3/vtmNEaSzszMs/qFCyA0cIRcmIYeRb0ZCghYtWqT6+nq99fbbZjdwxQi5gWPjCQDAWoQcAMBahBxwDTU1NamB6W8gbBBywDXU0dGh9vZ2sxnAMCHkAADWIuQAANYi5AAA1iLkAADWIuQAANYi5AAA1iLkAADWIuQAANYi5AAA1iLkAADWIuQAANYi5AAA1iLkAADWIuQAANYi5AAA1iLkAADWIuQAANYi5AAA1oqYNW9+t9k4WsTfMk133BZvNgNXJS42VrfOiFfjqSYdqzludgNX5WTjaX1SedRsRj+N6pC77joKWVw7d9yWqHnJf6GjVcf0rxVHzG7gqn355ZdmE/ppVIcccC3dcXui/jJ5to5WHVP5wcNmN4BhQCkDALAWIQcAsBYhBwCwFiEHALAWIQcAsBYhBwCwFiEHALAWIQcAsBYhBwCwFiEHALAWIQcAsBYhBwCwFiEHALAWIQcAsBYhBwCwFiEHALAWIQcAsBYhBwCwFiEHALAWIQcAsBYhBwCwFiEHALAWIQcAsBYhBwCwFiEHALAWIQcAsBYhBwCwFiEHALAWIQcAsBYhBwCwFiEHALAWIQcAsBYhBwCwFiEHALAWIQcAsBYhBwCwFiEHALAWIQcAsBYhBwCwFiEHALAWIQcAsBYhBwCwFiEHALAWIQcAsBYhBwCwFiEHALAWIQcAsFbErHnzu83GcBc9cYKiom4ym4FhlRA/XTOT7tDxE/X6+JNPzW5gWHV1nVf9yQaz2XojNuSS7ozXuc4OswsYNtOmTdPtt92m+pMndfToUbMbGDbXXz9GtfWthNxIEQi5E7U1ZhcwbGYkJOiuu+7S8dpaffzxx2Y3MGymTp02akOONTkAgLUIOQCAtQg5AIC1CDkAgLUIOWAAFixcqFd2FeuZDevNrkE3NzlZO18o0vPbt5ldAPwIOVjryZV5KnnrzZDH6yVv6JHlj5pDAViKkIP13t2zR5lLlipzyVLV19Up87vf1YKFC81hACxEyGFU+eTjjxUZGanpt0w3uwBYiJDDqDE3OVlfTU3VmdZWHT502Gl/fvu2kCnNvtbXntmwPmTMpdbB/v7/+55K3npTT67Mc9oeWf6oXi95wzn+lV3FTjUZWNdb/cP/qp0vFF3yOYKv46mnf6Jx48ebQwAEIeRgvUWLF/vC66cb9KeyMuUuz9ahigrJv24nyZnOfHfPHs2dNy8koJ7fvk2zZs/WKy+/rMwlS/Wjf1grl8sVMibg7v94tyZNmqRXXn5Zz23ZKvmf46GHH9b7e/c6z9N06pSeXLUyZH3w69/4ht595x1lLlmqV15+WdOmTw8JXPM6ntu8xekD0DdCDtYLXpO7a+bMkM0nz23Zqu89/oQz9oN//kCnm5t118yZkr8CmzZ9ut7fu1cvvfCiJOlQRYVyl2c7IRaw+Nt/pUT3bTpUUeGMDVSPhw4eDBlf/Opr6urq0kz/80jSn48ccY47fOiwzrS2KnrSJOki19Hc3KyO9nbneAC9EXIYVX6xbbvOtLZq0f33a25ysmTswnzmpxs0KSbGGR8IodOnTzttfYm88UZ97e67JUltbW1O+5y5c3TzhAmaO29eyHTn9/N/oHHjxgWdoW8ul0tzk5M1c+ZMdXV16cjhI+YQAJdAyGFUOVRRIa/Xq3HjxysmJkbPbFivRYsXO9Xej/5hrU43N4cc09XVpboTdSFtppkzZ6qqqkqdnWf1lykpToAGHDp40Kkmgx8/WrsuZByAa4uQw6gyNzlZLpdLHe3tunniRMUnJOh4TY0zlRiovAIaGho0btw4zZ4zO+gsvR06eFAvFb2gqqNHNX78eD340IOSpLoTderq6nKmHa9WQ0MDu0KBq0DIYVR58KEHNSkmRn8qK9Mbr78ur9frTAnOTU7WPd/4hs60tjptgTW6BffdF7JJ5NmtW/TI8kcVGRmp811dui4iQtHR0WpuatbxYzW6MylJ/+9jf6uyjz7S7/bvV8KMGSGbSJ5cmdfnLs6LOXL4iLq6ukLu8YuJiWF3JXAZhBysF9hdWfLWm87uxEDlVvzqaxo3frye+ekGPfX0T/Th73+vd995RzdPmKB7v3mvs8mkvq5ODz38sHMe1003qe5EnSbHxOj0qVMac911WrhwodyJieo8e1b1Ncf1l8nJ+u5f/7We27LV2bUZOH7BffeptbXVvNSLen/fPq3/ydPqaG/X9/N/oJK33tSTq1aawwAY+NFUYADmzZunv7r/fk2ePNnsUmtrq/bu26cPDxwwu4AhxY+mArgqDQ0Nqj52TJ2dnSHt58+fV319vU42jL4PFSCcEHLAADQ1Nenf//3f1dLSEtLe3t6uo1VVqqu79K5MAIOLkAMGoKurSyfq6nS8ttap5rq6ulRXV6ea48d19uxZ8xAAQ4iQAwbo9OnTOnr0qLORpL29XZ8dPaoTJ06YQwEMMUIOGKBANXespkZtX3yhOn9lRxUHDD92V6LfvvKVr5hN8Btz/fW644479JU779SxY8f08Sef6FxXlzkMfo2NjWptbVV394j7+BmRRvPuSkIO/fb0j3+sjz76yGyGX0REhCIiItTd3c2H9yXcfvvteuHFF9V8me8DxbVDyI0whNzwePrHP9bDf/M3On/+vNkF9Nv2bdsIuSE2mkOONTkAgLUIOQCAtQg5AIC1CDkAgLUIOQCAtQg5AIC1CDkAgLUIOQCAtQg5AIC1CDkAgLUIOQCAtQg5AIC1CDkAgLUIOQCAtQg5AIC1CDkAgLUIOQCAtQg5AIC1CDkAgLUIOWCIpK0p1K7iTcoxO65U+loVFRerINfsAGAi5DDy5G7SruJi/6NQ69LNAQDgQ8hhBEnTuh3F2nVvizZnZWlZVpaWZe1VdN4gBF3uJgIUsAAhhxEjp2ClUlSuzSs2qNRpLVJ+Vo7W7w8ZCgCSpIhZ8+Z3m43hLnriBCXdGa8TtTVmFwbR0z/+sR7+m7/R+fPnza7Bl75WRXkpatydpfydZqfBP9YV+HtbcDBmq6A4U9q9RS33rlRKlH9MdYmW5Rf5/py7Sbsy3IGjJUnesi3K3liqtDWFWpXaqPKyOKWk+p4h0Hfp5/Wtya1KbVRJ1moVBsaYx8gT2i/5K9iga23zyhvlCn0vzPOEPLf/+OZylcek+M/j1X/9Tzk6ejpwwNDZvm2bXnjxRTWfHoYnH6WmTp2m2vpW1Z9sMLusRyWHESHtniS55FVLldljyN2kXXkpUtkW/3TmFpUrRauMDR/ujMekHf4pz63l8iZmqmhNmq9z52ot2+2R5FX5Vt+Y7I09taPkVkpSpTNlmr2xtN/PGypN61YkqdL/HMuytqi8za3MHWvlvxJ/KPsr2MAU7QeNQaHY/9esxBQlVQbGDE/AAUONkINF0rTuXrfUVq5fOqFUqvU7yuWVW3OCdiN6y37VM8W5v1SVbZJrcmj1dnFele8InjLt//OGKtX6FcFTraVa/4FHikpSun8tMG3NfXLLo5LgKdqqFnkDf76S5w4ZA4wOhBws4lZ0lOStLA0KIEn7a9UoKW5qT33Up5j4oArqUhpVG7IGOJDn9W+mCewWDZkmTVN6kkuqPmxMXwa7gudurg0dA4wChBxGhNKTjZJcir7N7BnJ+piK3O0xBwEYAEIOI8POw/JIct8bvF5l8qilTXIlpYWOSY9XnKTGk4NVx1zl8+bOkduY+syZHVzJlaq2+XIV5lU+NzBKEHIYIYqUv9sjRaVoVcjGDN90n+/bPwJrWin6jrMWlaZ1K1LkaivXG5fblRmsqkVeuZR0z8XjpUf/ntdXjQatk/mfw6lOczfpPnlC2gqP+F9zQbZ/kKTbooM2nvTvuYHRipDDyLFztZZllcgTlaJVzjee+Kb7WuQPAf/OSHdGaH/ovXX9sH+DflnmlSt1pf88l9ol2c/n3blam8u8cmcU+3Zy+p/DOWb2YWXnr9be6qCKdedqZ/ens253b1zQxpN+PjcwSnGfHPptWO+TgzW4T27ocZ8cAAAWIuQAANYi5AAA1iLkAADWIuQAANYi5AAA1iLkAADWIuQAANYi5AAA1iLkAADWIuQAANYi5AAA1iLkAADWIuQAANYi5AAA1iLkAADWIuQAANYi5AAA1iLkAADWIuQAANaKmDVvfrfZGO6iJ05Q0p3xOlFbY3ZhED394x+rtbXVbIZfRESEIiIiJElffvml2Y0gO3buVPPp02YzBsnUqdNUW9+q+pMNZpf1CDn028SJE80mBLll+nT9x7vv1smGBv3+ww/NbhhaW1vV3T3iPn5GJEJuhCHkEI5mJCRo0aJFqq+v11tvv212A8NmNIcca3LANdTU1KSGxkazGcAwIeSAa6ijo0Pt7e1mM4BhQsgBAKxFyAEArEXIAQCsRcgBAKxFyAEArEXIAQCsRcgBAKxFyAEArEXIAQCsRcgBAKxFyAEArEXIAQCsRcgBAKxFyAEArEXIAQCsRcgBAKxFyAEArEXIAQCsRcgBAKxFyAEArEXIAQCsRcgBAKxFyAEArEXIAQCsRcgBAKxFyAEArEXIAQCsRcgBAKxFyAEArEXIAQCsRcgBAKxFyAEArEXIAQCsRcgBAKxFyAEArEXIAQCsRcgBAKxFyAEDMGHCBLkTE+VOTNT06dM1ceJETYmLc9omT56sMWPGmIcBGCIRs+bN7zYbw130xAlKujNeJ2przC5gSCXPnat7vv513XDjjbrxhhs0duxYnTt3Tmc7O3W+q0tlf/qTPvrjH/Xll1+ahwJDZurUaaqtb1X9yQazy3pUcsBARETo5gkTlBAfr7i4ON18882aPHmy4m+5RVE336wLFy4QcMAwIuSAAThZX6+qqiqdPXtW3d09kyLnzp1TbW2tTjaMvn85A+GEkAMGoPn0aX362WdqaWlRRESE097e3q5jx46psbExZDyAoUXIAQNw/vx5nThxQtXHjjnVXFdXl2pPnNCxmhp1dnaahwAYQoQcMEAtLS367OhRNZ8+LUnyer2qqqrSyZMnzaEAhhghBwzQ+fPnVVdXp2PHjqmtrU21tbWqoYoDwgK3EKBf7v7a1zR27FizGX7XXXedpk+bpltuuUUNjY06fvy4Lly4YA5DkN/9/ve8R0NkNN9CQMihX+7+2tc0buxYtbe3m10IEhEREbLLEn2LmzJFb//2t4TcECHkRhhCbugFQm77L35hdgFXZOmSJZo5axYhN4RGc8ixJgcAsBYhBwCwFiEHALAWIQcAsBYhBwCwFiEHALAWIQcAsBYhBwCwFiEHALAWIQcAsBYhBwCwFiEHALAWIQcAsBYhBwCwFiEHALAWIQcAsBYhBwCwFiEHALAWIQcAsBYhB1xjGUuX6v+8/LJysrPNLgBDjJDDiJKQkKDt27ZpV3GxdhUXq2DTJnOINdasWaP/8/LLyli6NKQ9OTlZLxQVac2aNSHtAHoj5DBi5GRna/Ozz+rAgQNalpWlZVlZamputjroAAwMIYcRIWPpUn37299WSUmJCouKnPaNGzcqf/XqkLEAEEDIYUT45je/qc8//1z73n/f7AoRWA8LTGe+UFSk5OTkfvcXbNrk9O0qLu7Xupo5hfrQQw+ZQ5wpxsCYvqYhr5b5/OZ152Rnh/RR+WI0IeQQ9m699VZNmTJFX3zxhY4fP252OxISEnT//ffrxRdf1LKsLK36/vfl9Xr1xOOPKyEhQQkJCcrIyFBtba0z3bk8O1sVFRVOUEyZMkU/efppLcvKUklJiTIzMy+59pWcnKwN69dLklZ9//talpWl9957T5GRkc6YjKVL9Q9r1ujf/vxn53kPVlRoxYoV/QrRy3nkkUfkcrmc616WleVUu2vWrFFmZqZKSkq0LCtLP3n6aU2ZMkXbt21TQkKCeSrAOoQcrHH8+HHlrVyp3W++6fz9wIEDmjhxopLnznXG3XTTTb0+4BcuWKDY2Fi99957qqiokCQVFhXJ4/Eo8dZbe40P+Pa3vy1J2rZ9uxPAzc3N6urqcsZ885vfVG1trTZu3Oi0vfTSSzp16pTmzJnjtA1EZGSkEuLjQ9qSk5P1F7NmyePxOKFXUVGh9957r9d7AtiKkINVzKm7zMxMp+/48ePavXu3Jk6cqE3/83+GTBdOmz5d7e3tOugPuICm5ma5XC5NmjQppF3+50q89VY1NDQ4wWhKTk7WlClT5Ha7Q6YMNz/7rGJjY83hV+Wll17S559/rhUrVoRUnQnx8YqMjNThw4dDxjc3N0uSYmJiQtoBGxFyCHtffPGFvF5vnxVYsL6mDktKSkLG7H7zTf0/Dz+st99+WytWrBiyaTuPx+NMJQY/rsWmmePHj+vxJ57QT55+Wn8xa9Y1Xe8DRjpCDmGvublZ1ceOKTY2VgsXLDC7HfOSkxUZGandu3c7U4cXmw4sLCrSjh07NHHiRD3yyCOqr6vT+PHjNS9oE4okTY6Jkdfr1enTp0Pa5Q+XL7744pLhe/r06X4FdF/q6+rMJimoQjP7KyoqtHbdOn3++efKyMhQZ2enurq6er0HgQouUNEBNiPkMCIE1rAyMzN77RwMVGPmNFxOdrZuuOGGkLaL2ff++zp16pS+/vWvO2GUk50tt9utAwcOXHTDy+HDhxUbG6uVeXlOW0xMjLPxJHiKNHhMxtKlTtV5MQcrKtTV1aWHHnrI2QEa2DzT1dXVa2rV9Ellpf7tz39WfHy8U9klJyfrW9/6lmpra521S8BmEbPmze82G8Nd9MQJSrozXidqa8wuDJK7v/Y1jRs7Vtt/8Quza0itWbNG/yE1NaTtj3/8ow4cOKAP9u8P6fd4PMpfvVoFmzbppptu0q9+/Ws99rd/G7IWFhgjf4CsW7s2pN+8L68vGUuX6tFHH3WCrb29XZGRkXr77bedY80xklRaWqpdr79+0QDVRa7p1KlTWr9hg3Oc+Z60t7er4Gc/c9YJzf7g1zwcli5ZopmzZunt3/5WFy5cMLsxCKZOnaba+lbVn2wwu6xHyKFfwiXkMPIRckNvNIcc05UAAGsRcgAAaxFyAABrEXIAAGsRcgAAaxFyAABrEXIAAGsRcgAAaxFyAABrEXIAAGsRcgAAaxFyAABrEXIAAGsRcgAAaxFyAABrEXIAAGsRcgAAaxFyAABrEXIAAGsRcrgi1113HQ8eA3oAQyli1rz53WZjuIueOEFJd8brRG2N2YVBcvfXvqb/KyPDbIYhIiJC3d0j7j+pIfcvf/iD3v7tb3XhwgWzC4Ng6tRpqq1vVf3JBrPLeoQccI3MSEjQwoULVVdXp3fefdfsBobNaA455g6Aa+j666/XmDFjzGYAw4SQA66hpqYmNTQ2ms0AhgkhB1xDHR0dam9vN5sBDBNCDgBgLUIOAGAtQg4AYC1CDgBgLUIOAGAtQg4AYC1CDgBgLUIOAGAtQg4AYC1CDgBgLUIOAGAtQg4AYC1CDgBgLUIOAGAtQg4AYC1CDgBgLUIOAGAtQg4AYC1CDgBgLUIOAGAtQg4AYC1CDgBgLUIOAGAtQg4AYC1CDgBgLUIOAGAtQg4AYC1CDgBgLUIOAGAtQg4AYC1CDgBgLUIOAGAtQg4AYC1CDgBgLUIOAGAtQg4AYC1CDgBgLUIOGIDY2FjNnj1bs2fP1u233664uDjdOmOG03bLLbcoMjLSPAzAEImYNW9+t9kY7qInTlDSnfE6UVtjdgFDal5ysuZ/4xsaN26cIiMjdeONN+rcuXPO4w9//KM++ugjffnll+ahwJCZOnWaautbVX+yweyyHpUcMAAXvvxSY8eO1ZQpUzRp0iS5XC5FR0drypQpuuGGG9R59iwBBwwjQg4YgLoTJ/TpZ5+p4+zZkPbOzk7VnjihhsbGkHYAQ4uQAwbg89ZWeaqrdfr0aXV398z8t33xhaqrq3Xq1KmQ8QCGFiEHDMCFCxdUW1urqqoqdXZ2qru7W2fPnlVNTY1qamrU1dVlHgJgCBFywAC1trbqs6NHnanJjo4O1dTUqJEqDhh2hBwwQBcuXNCJEyfk8Xh05swZ1dTUqLq6mioOCAPcQjBAERERyli61GzGKHNdRIQmTJyomJgYtZ05o1NNTeyqhD764x/V0tKic+fOmV1DajTfQkDIDVBERIR+8tRT+tWvf212ARjFMpYuVfHrrxNyw4yQG6BAyD3w4INmF4BR7LmtWwm5MMCaHADAWoQcAMBahBwAwFqEHADAWoQcAMBahBwAwFqEHADAWoQcAMBahBwAwFqEHADAWoQcAMBahBwAwFqEHADAWoQcAMBahBwAwFqEHADAWoQcAMBahBwAwFqEHADAWoQcAMBahBxGiGwVFBdrl/EoWpNmDhxmaVq3o1i7dqzV4F6Z//0oyDY7AAQh5DCyVJdoWVaW/1GixtSVYfZBX6raZqMpd5N2FRdqXbrRPiAetbSZbQBMhBxGsCIdrpaUOEc5ZtcwKszP0rIVG1RqdlxTpVq/IkvL8ovMDgBBImbNm99tNoa76IkTlHRnvE7U1phdQy4iIkI/eeopPfDgg2YXrqlsFRRnyl1dEvLBnlNQrMyYcm12QsU/zhnhVfnWHK3fHzzeI4/cckcFxnhUkrVahc4x/uoro+cs6ut5E3u6vWVblL1RWrdjpVKiJLX5r8k8jzPWH4Hpa1WUlyJXoDNwnOSf+lyplOZylcek+M4rr8q37lV0nv81Xua6PLuzlL+z5+8YOs9t3ari119XS0uLzp07Z3YPqalTp6m2vlX1JxvMLutRyWHkyt2kzETJW1nqC4X0tSoqzlRc2RZnSnNzmZSSV6yC3KDjouLUsiMw5Zmlkmq3MoOmE9PWFGpXhlue3T3Top7EzJ51ttxNykz0qnxrzzl8oVWq9Su2qDx4GnHnai3b7fGHU/BYf5DmpUjO9W5RuVK0qnhTaGWamKKkysCYHK3fX6T8rBJ5gsf41wIzEz0qCUzn7vbInRGO65bA0CHkMLIkZvZsPMmIU/nWntDIyUyRq7qkJ0QklW78lcrbJPfsoHW7tkrt91d2klSYXyKPXEq6J01Str6T6pKqS4IqoCLl7/ZIUUlKd9bVXIq+zTnFVUjTunvdUlu5fulcb6nW7yiXV27NCQ7lkDEXkZuplCjJszuoIt25WiXVkispbZA3wQDhi5DDyOLfeLK5zGsETbbmJBohWFysXcX+6cNL8m3icE12S+nxipPkOWKsdVW1yBt4Pn94uDMGsrvRreiooCo0YH+tGiXFTQ2Kpebay67vpU2Nk+TRYWNqsqrJK0VFa0B5DIxghBxGJKdCyzCm9kJ2XwY9rvEGjcJ8//RijC9UQ6ZDAYQNQg4jVM/U3n1r0nq21MfEX/nUXHqakqIkb5PHqaRCpjcl6bZoueRVS1Vwo2+Ho6+qM8L2svzVozmV6K8kG09ernYLVXqyUTKnOSXdNtkltbUo5LKBUYSQw8i1f4P2Vkuu1Me0Lt0felEpWhU8hZi+VkXmlGLI9F2a1q1IkUse7d1YKqlIb5R5pcT7gu5ry1ZBhluq3uvs0rwi/qlO35pfQKnWf+CRolL0HSeY/NfSVq43rnRH5M4SX2V7b9BN6P6NOZ4PBvt2BiB8EXIY0QKbRlLyNiln/wZlby2XN3hdLi9FjU2e0GqpLU73hazZhd5CULoxx9mV6Rtj3LqQuylk3c+309K4BSHY/g36ZZlXrtSV/mP8VZ9/56U7I+haFHwLwZXw7+xUilY5G3N8O0S5hQCjGffJDRD3yY0sve+rAwYH98mFByo5AIC1CDkAgLUIOYwqQ/O9kgDCBSEHALAWIQcAsBYhBwCwFiEHALAWIQcAsBYhBwCwFiEHALAWIQfA92vo5i+SAxYg5DC4cjcNy2+t8aF9JXy/hh7yq+L9lFPAe4zwRshh8KSvVVGGgn6tOlsFxcUqWnPFv/iGAfKFfmHQzwcF990n99X8vI+kwiNS5o6gn/cBwgwhh0Hi+200lZVccXUwWg1m9en7UdW+lW7MufqvOttZonKl6O/4hwvCFCGHwZGbqZQoryo/vKqPTlxrO1drWVbO1f3o6yWVan+lt/cvnANhgt+TGyB+T65vOQXFykwM/TFS33RlpuLKtih7Y6lvOjMvSZW7K5WUkSKXJClwjG+sW5LkVfnWng9o32/CeeSRW+6owLlDnyttTaFWpTYazx9o9z2TJCn4x1Cv8np6jg0cE3ycnNet3VvUcu9KpQSuOei5e12XFPSDp2latyPouJC+Hr73vOfvXv/73HNu47pzN2lXhu8VScZ70Y9rdvjP09c1jWb8nlx4oJLDIEhTfIykthZVmV29uJRyr/TLrCwty8rS5rI4Ze5Yq3UFc3Q4K0vLsraovM3/y9/Bh0XFqWWH75hlWVkqqXYr8yJrTgE5BcX+4AscVyJPYqZ2hawpXcX15G7y/QL57ktfjzvjMSlwzf5fMA+sT/p+jdzrD0ffmEBgpK15TEmVW5xzby7zyp0RfO40rdsR+EdFz2trTH1M69KDz90jbU2hE0wXfy8ufc2OqhZ5JcVNpZZD+CHkMAjcig6qOi7H80HPelDph5XyRqUo+kigCirV+g88kuIUHxxgbZXaH1RJFeaXyCOXku65yAdt+lrdl+hV+dbgyq5I+bs9UlSS0oPOfWXXk6Z197rlLdsSUsX0dT3esl/1VFH7S1XZJrkmB1VSF1G6McdX+Tp/3xt6bv/UcK/XdtHpSd9uSlWXBF1z3+/FlVzzxdqB4UTIwRIetVziAzjtniS55FJKXrF2FQc9gqfrrkZ6mpKiJFfqytDzOlOblxET36+1LN+mlL7PnTPbLalRtX0GWh/S4xUnyXPEmHasapFXLkXfFtrcSz+vGQgHhBxGEa/Kt/ZMKfY8Llbx9J+3rGc6MfgRXIFdLd80q4KuvUQec1C/poaB0YeQwyDwVVVDyl9ReZt6ffxLzhb6flQpV2p/rRoHdaouW3MSjWnD3DkhlVxVk7fXNOMl+a/ZPTs7tP22aLnkVctVpuXF3ntgOBFyGAS+beWKita1zhRHyLl99+S55NFef+XkCzW35gS+bWXnapVUy9iwIeUUXHqzyuX517LMDRm5m3pv0LiMXtcs9TENm62CeyVPUFtgjS50c06a1u242D13RXqjzCsl3hf02rNVkOGWqvdeeVXrD0duF0E4IuQwKHwf2MZmkWupLU73OWtUK5USZdyusHO1fxdizzesFOZnqaQ6dF0uM6ZRtcHnvRo7V2vZbk/oulxGnBpPmgMvwwli/zl2rFWaSrV+h29Xo+/cc3R4xWrlf+AJCqki5WdtUXmbW5lB70lS5WFVXeT99+24VNB7kSl3X7cH9EPa1LheG4GAcMF9cgPEfXIX47u3K6nSf0/cNeS7T65cm6/2WzpwDQ3e/59HOu6TCw9UchgkvgpEqZkXmTKDFXIzlaJy/ZKAQ5gi5DB49m9Q9m4Za0ywSc5sqYSKGmGMkMPg2rn6mn/VU2F+1tV/oTCuqcL8K/95HmAoEXIAAGsRcgAAaxFyAABrEXIAAGsRcgAAaxFyAABrEXIAAGsRcgAAaxFyAABrEXIAAGsRcgAAaxFyAABrEXIAAGsRcgAAaxFyAABrEXIAAGsRcgAAa0XMmje/22wMd9ETJyjpznidqK0xu4ZcRESEfvLUUzp79qzZhVEmIiJCERER6u7uVnf3iPvPCoPgV//4j2ppadG5c+fMriE1deo01da3qv5kg9llPUJugCIiIjRp0iSJD7VRb9q0abr77rvV0NioAx9+aHZjFOo4e1adnZ26cOGC2TWkCLkRJpxCDgiYkZCgRYsWqb6+Xm+9/bbZDQyb0RxyrMkBAKxFyAEArEXIAQCsRcgB11BTU5MaGhvNZgDDhJADrqGOjg61t7ebzQCGCSEHALAWIQcAsBYhBwCwFiEHALAWIQcAsBYhBwCwFiEHALAWIQcAsBYhBwCwFiEHALAWIQcAsBYhBwCwFiEHALAWIQcAsBYhBwCwFiEHALAWIQcAsFbErHnzu83GcBc9cYLu+kqC2QwMq6lTpigx8VY1NDTKU11tdgPDqrrmlOpPNpjN1huRITdhws1mEzDs3LcmaPZf3KXqmlodPvKx2Q0Mu9bWM2aT9UZkyAHh6I7bE/WXybN1tOqYyg8eNrsBDAPW5AAA1iLkAADWIuQAANYi5AAA1iLkAADWIuQAANYi5AAA1iLkAADWIuQAANYi5AAA1iLkAADWIuQAANYi5AAA1iLkAADWIuQAANYi5AAA1iLkAADWIuQAANYi5AAA1iLkAADWIuQAANYi5AAA1iLkAADWIuQAANYi5AAA1iLkAADWIuQAANYi5AAA1iLkAADWIuQAANYi5AAA1iLkAADWIuQAANYi5AAA1iLkAADWIuQAANYi5AAA1iLkAADWIuQAANYi5AAA1iLkAADWIuQAANYi5AAA1iLkAADWIuQAANYi5AAA1iLkAADWipg1b3632YjwM3HCBLMJYSbx1gTN+YskVdfU6vCRT8xuhJnPW1vNJliIkBshYifH6A73VLMZYWTqlClKTLxVDY2N8niqzW6EkbqGz3Ws5oTZDAsRciNE7OQYuW+NVX0d/2GGqxkJCbrrrrt0vLZWH3/8sdmNMBEbG6vmzzsJuVGCNTkAgLUIOQCAtQg5AIC1CDkAgLUIOeAqPLkyT6+XvKFHlj9qdgEII4QcwsYzG9ar5K03Qx6v7CrWgoULzaFWWLBwoV7ZVdzrNT+5Ms8cCuAqEXIIK+fPn9crL7+szCVL9aN/WKuO9nblrMjV3ORkc6g1jtfUKHPJUmUuWapXXn5ZC+67T89v32YOu6RAYD6zYb3ZBYxqhBzC1qGKCtUeP65x48crJibG7LbSSy+8qF2vvaZp06cTWMA1QMghbC1YuFB3JiWp6dQpvb9vn9P+/PZtIdN7Zhhcqt+cIuzvupp53N1f/7o5RIu//Vd66OGH9T9+/NSAploPHzqsM62tik9IcCrYJ1fmhbymnS8UOX0LFi7U49/7e40bN05z583r1f/I8kf1eskbfR57uXMDIx0hh7AyZswYPfTwwyp56009uWqlSn7zG33v8Sec/sB6VWB67909ezR33jyn/cmVeZo2fboz5Zm5ZKl+tHad5P+wf3LVSn1aWen0/fnIET308MOXXAcLHNd06pRzXHVVVciYJ1fm6Vv3369qT5V+/D+eUuaSpWo6dUpPrlrZrxANdqiiQl6v16lgFyxcqK+mpurZgp8pc8lSPVvwM40bP17/+YnHJUnv79un7c//XB0dHTp08KAylyxV7vJsHaqo0JMr8/TQww/rz0eOOFPAkrTuv/83LVi4UAsWLtT89HTnuOBjARsQcggrwWtyT/23/65F998fUhE9t2VrSOh98M8f6HRzs+6aOdNpGzNmjCZNmuT8PeCeb3xD9XV1TuhJ0quvvNrreNM93/iGzrS26hfbtjttDQ0Nzp/nJifrq6mp+uzfP9Uf/uUPTnvxq6+pq6tLMy9x7v54f98+5S7PdqrZ9/ft06eVlZocG3vJSjFwXaebm/XqK69K/gB99513FBkZqdlzZjtjo/t4vwAbEHIIW4cqKlS4Y6ckKevBB5z24Om1Z366QZOC1uue27JVx2tqtGjx4pDNGwsWLtTk2FglzJgRMjVnHm8KHFd7/PhFq5s5c+fo5gkTdMdX7tTDjzziTFd+P/8HGjdunDn8qpjTpXPnzTOH9BITE6Nx48f3uva6E3Xq6urSlClT9P6+ffrd/v1KmDHjqqdXgXBGyCGsNTc3q6O9XS6XS3OTk/XMhvVatHix3t2zx5l+O93cHHLM9x5/Qj/6h7VyuVy+ac+gqcjgnYzBj+Dq8Gp99u+f6uWXXnKmKwOP4MqxP+YmJ8vlcjlrkX1Nlx46eNA87Ko9t2WrMpcs1aeVlfp+/g+ueGcnEM4IOYS1QDXi9XolSfEJCTpeU6PntmyVgqoo06GKCuUuz9bxmhrNT09X/IwZIWHZX4GQvdR0XqAyuvnmm82uqxJ4TZ/4f8lg5syZ6urqUvGrr0n+EIxPSDCO6i1w7cEbWCRp+i3TFRkZGTLlKkk/WrtO7+7Zo4QZMy65RgmMJIQcwlrWgw8oMjJSH/7+986GjEBQzU1OdtbLLhdetTU1evedd3TzhAnOhg35N5U8u3VLyNhggdsYEmbMCNmlOWXKFOfPgSm/uKlT9K1vfUtT4uIk/7SqufPzchYsXKjM735X9XV1TpA3NDQoMjJS02+ZLkl68KEH5fV6Q9r6CrRDFRX6U1mZJsXE6N5v3iv5A3LR/ffrTGurPvjnD5znBWzF78mNEKPh9+Se2bC+11pTR0eHtj//c2fTRfB2+fPnz2vXa77qZtkDD+j9vXslSYsWL3aOD4x56YUXJX+oLXvgAY0ZM8YZ89Ef/qCS37xx0TU3+QMr+LxnzpzR+PHj9d6ePWprPaPrr7tOt99xh2666SZdf/31unHsWH355QXV1dXr6aefDjlXQPBrCTCvN+D57duUMGOGJOnQwYN69ZVX9V/yfyCv1+tMtZqv7d09e/Tclq29rv10c7P+V8HPdKiios9rOHTw4BVPsY4k/J7c6ELIjRCjIeRGoq+mpOivFi9WdHS0uru7FRER4fzfL774Qnv37VPp735nHoZhRMiNLkxXAgNwqqlJtbW16urqUkREhCQpIiJC58+f16lTp9RsbIoBMLQIOWAATp48qU8/+0xf+DfGBHR2durTzz7TsZqakHYAQ4uQAwbg3Llzqq2t1YnaWp0/f17yr6s1NjaqtrbW2RUKYHgQcsAANTQ26rOjR51AO0sVB4QNQg4YoM7OTp04cUK1J06o4+xZnayvl6e6mioOCAPsrhwhwml35Y033mg2jXpjx45V6le/qv+QmqrDR47o97//vTrOnjWHjXqdnZ1m05Bjd+XoQsiNEOEUclFRUfreEwP/GiwbBW4hQG+vFReryuMZ9veHkBtdCLkRIhxDLnfFCrML6NMzzzyjAwcOEHIYcqzJAQCsRcgBAKxFyAEArEXIAQCsRcgBAKxFyAEArEXIAQCsRcgBAKxFyAEArEXIAQCsRcgBAKxFyAEArEXIAQCsRcgBAKxFyAEArEXIAQCsRcgBAKxFyAEArEXIAQCsRcgBAKxFyGEEylZBcbF2GY+CXHPcCJO76fKvqdeYQq1LDx2Stqawz3ZgNCLkMHJVl2hZVpbvsdsjd0axdhVkm6OuXO6moQ+J9LUqynDLW7bF/5q2qLzNo8M7e4bkFBRrV0acyrf6X3NWljaXSSl5xSpakxZ8NgB+hBzssHO1SqolJc5Rjtk3AqTdkySXPNq7sdTfUqr1K1arMDAgfa3uS5Q8u3O0fn/PcaUbc7S5zCtXauaIfN3AYCPkYI2qJq+kOMX7K7CcgktM/aWvVVHItN8mX0jkbtKuDLckl1LyfH3BVZJvKjD0vE71GKgA1wRNKQZVlub19K6+eq7dlJOZIpdCK7uA0g8r5ZVbc8ypTQCEHOxx22SXpEbV7k/Tuh3Fykz0qMSYzvQFS5rWrUiRK3i6M8tfNe1crWW7PZK8zrRgtr+6SltTqFWpjSHnlCRPk0c9ceVSSqp6xuQX+Z5vR7EyY8q1OdC+tVxKXemEYOnGvfL4g7V3+KUpPkZSW4uqjB5J0v5aNUqKm2oeB4CQgx1yNykzUfKWlagwN1MpUZJnd9B0n38605WU1hNIMfFB4XQ5aUpPcknVh4POeVgeSe7JbgUmGSXjeSUpN1MpUR6VrNjQM27/Bv2yzBs0vVqk/KwtKm+TXKkrL1LpXZprsttsAkY9Qg4jV2Jmz/Rfhlue3b6qK21qnNTH1F5Vk1eKitZtKtX6HeXyRqVo1TXfYOJVi1Fu5cx2S3Ir05jmXJXqCh2oUq1f4av0Sqp9YXclQedt8lWWAHoQchi5QqYbs5Tfx3rVRe3foOysLC3b3ehbe9ux9jJVXan2VwZXXpJy58gtyXOkKHRon4KmTkMeRtXnV5jvr+qS0pSmUtU2yx/QffBfR+PJ4HoSgAg52Kj0ZKPUx0aM2ya7eq9r7VytZVt9Vd3fXaZqKt34K5W3BVVk/urxcuFqbojpH3+w+RWWlMsrt+7r4xp9lWLvyhUAIQcb7SxReZvkvjeoOvOv2Xk+CFoXu5iqFnnlUtI9RqDkZipFQZtH+lk9+sLRpZQ8/w5Oyb8ZJejv6WtVFHyPX2CNsbLUd737N2hvteRKfSxkejVtTaHvdZnrgAAkSRGz5s3vNhsRfmInx8h9a6zq606YXUMuKipK33viCeWuWGF2DZFsFRRnyl1d4t+92Jc0rduxUilRPS09VVfvPhnn8u2kDKyZeVSStVqFzu0FoZzz5m7y36wdei+bT1/PWa7NJRtUut98Pp8+q8Q+rsEc19e5An790yy99SezdfA988wzOnDggKo8HnV3D+9HTmxsrJo/79SxmuH/bwmDj5AbIQi58NRzW8FwVFKB4PReJFjDByGH4cJ0JdBf6WtVYKyJ+e7NGy7+3ZhbK5Xkv3F9l3nTOzDKUcmNEFRywy+noFiZiUZjW7k2B9//hj5RyWG4UMkB/VSYb27/z9IyAg4Ia4QcAMBahBwAwFqEHADAWoQcAMBahBwAwFqEHADAWoQcAMBahBwAwFqEHADAWoQcAMBahBwAwFqEHADAWoQcAMBahBwAwFqEHADAWoQcAMBahBwAwFoRs+bNH97foke/xE6OkfvWWNXXnTC7hlxUVJS+98QTOnTokNkF9GlSTIwOHDigKo9H3d3D+5ETGxur5s87daxm+P9bwuAj5EaIcAu5O26/3WwGLunMmTOEHIYcITdChFPIXX/99Ro3dqzZDFzShQsX1HH2rNk85Ai50YWQGyHCKeSAkYyQG13YeAIAsBYhBwCwFiEHALAWIQcAsBYhBwCwFiEHALAWIQcAsBYhBwCwFiEHALAWIQcAsBYhBwCwFiEHALAWIQcAsBYhBwCwFiEHALAWIQcAsBYhBwCwFiEHALAWIQcAsBYhBwCwFiEHALBWxKx587vNRoSf2Mkxct8aq3OdZ80uAFfguuuuU/PnnTpWc8LsgoUIuREidnKMXK7xZjOAq9Dd/SUhN0oQcgAAa7EmBwCwFiEHALAWIQcAsBYhBwCwFiEHALAWIQcAsBYhBwCwFiEHALAWIQcAsBYhBwCwFiEHALAWIQcAsBYhBwCwFiEHALAWIQcAsBYhBwCwFiEHALAWIQcAsBYhBwCwFiEHALAWIQcAsBYhBwCwFiEHALAWIQcAsBYhBwCwFiEHALAWIQcAsBYhBwCwFiEHALAWIQcAsBYhBwCwFiEHALAWIQcAsBYhBwCwFiEHALAWIQcAsBYhBwCwFiEHALDW/w+kdAWSMhpxCQAAAABJRU5ErkJggg==;" vertex="1" parent="1">
                    <mxGeometry x="60" y="-180" width="441" height="725" as="geometry"/>
                </mxCell>
            </root>
        </mxGraphModel>
    </diagram>
</mxfile>